<svg width="23" height="34" viewBox="0 0 23 34" fill="none" xmlns="http://www.w3.org/2000/svg">
<mask id="path-1-outside-1" maskUnits="userSpaceOnUse" x="0" y="-6.10352e-05" width="23" height="34" fill="black">
<rect fill="white" y="-6.10352e-05" width="23" height="34"/>
<path d="M6.57505 19.5849C6.44867 19.5849 6.32601 19.5923 6.20335 19.6035V19.2132C6.20421 18.9177 6.32197 18.6346 6.53091 18.4257C6.73984 18.2167 7.02297 18.099 7.31845 18.0981H14.7524C15.0479 18.099 15.331 18.2167 15.54 18.4257C15.7489 18.6346 15.8667 18.9177 15.8675 19.2132V19.6035C15.7449 19.5923 15.6222 19.5849 15.4958 19.5849H6.57505ZM12.8939 2.85844C12.8939 2.36553 12.6981 1.89282 12.3496 1.54428C12.0011 1.19574 11.5283 0.999939 11.0354 0.999939C10.5425 0.999939 10.0698 1.19574 9.72129 1.54428C9.37275 1.89282 9.17695 2.36553 9.17695 2.85844V17.3547H12.8939V2.85844ZM20.997 32.3714C19.6023 30.503 18.8464 28.2353 18.8411 25.9038V24.0453H3.22976V25.9038C3.2245 28.2353 2.46857 30.503 1.0739 32.3714C1.0324 32.4268 1.00727 32.4927 1.00135 32.5617C0.99544 32.6307 1.00898 32.7 1.04045 32.7617C1.07054 32.8236 1.11762 32.8757 1.17619 32.9119C1.23476 32.9481 1.30241 32.9669 1.37126 32.9661H3.60146L4.0475 32.3714C5.44216 30.503 6.19809 28.2353 6.20335 25.9038C6.20335 25.8052 6.24251 25.7107 6.31222 25.641C6.38193 25.5713 6.47647 25.5321 6.57505 25.5321C6.67363 25.5321 6.76818 25.5713 6.83788 25.641C6.90759 25.7107 6.94675 25.8052 6.94675 25.9038C6.94176 28.3962 6.13363 30.8205 4.64221 32.8174L4.5307 32.9661H7.46341L7.73104 32.4271C8.67867 30.5227 9.1735 28.425 9.17695 26.2978V25.9038C9.17695 25.8052 9.21611 25.7107 9.28582 25.641C9.35552 25.5713 9.45007 25.5321 9.54865 25.5321C9.64723 25.5321 9.74177 25.5713 9.81148 25.641C9.88119 25.7107 9.92035 25.8052 9.92035 25.9038V26.2978C9.91766 28.5415 9.39474 30.7541 8.39266 32.7617L8.2923 32.9661H13.7786L13.6782 32.7617C12.6762 30.7541 12.1532 28.5415 12.1505 26.2978V25.9038C12.1505 25.8052 12.1897 25.7107 12.2594 25.641C12.3291 25.5713 12.4237 25.5321 12.5222 25.5321C12.6208 25.5321 12.7154 25.5713 12.7851 25.641C12.8548 25.7107 12.8939 25.8052 12.8939 25.9038V26.2978C12.8974 28.425 13.3922 30.5227 14.3399 32.4271L14.6112 32.9661H17.5402L17.4287 32.8174C15.9373 30.8205 15.1291 28.3962 15.1241 25.9038C15.1241 25.8052 15.1633 25.7107 15.233 25.641C15.3027 25.5713 15.3973 25.5321 15.4958 25.5321C15.5944 25.5321 15.689 25.5713 15.7587 25.641C15.8284 25.7107 15.8675 25.8052 15.8675 25.9038C15.8728 28.2353 16.6287 30.503 18.0234 32.3714L18.4694 32.9661H20.6996C20.7685 32.9658 20.836 32.9464 20.8945 32.91C20.9531 32.8737 21.0004 32.8218 21.0312 32.7602C21.062 32.6985 21.0751 32.6296 21.0691 32.5609C21.063 32.4923 21.0381 32.4267 20.997 32.3714ZM18.8188 23.3019H3.25206C3.34468 22.4849 3.73444 21.7305 4.34717 21.1822C4.95989 20.6339 5.75282 20.33 6.57505 20.3283H15.4958C16.3181 20.33 17.111 20.6339 17.7237 21.1822C18.3364 21.7305 18.7262 22.4849 18.8188 23.3019ZM12.5222 21.8151C12.522 21.7166 12.4827 21.6222 12.4131 21.5526C12.3434 21.4829 12.249 21.4437 12.1505 21.4434H9.92035C9.82176 21.4434 9.72722 21.4826 9.65751 21.5523C9.58781 21.622 9.54865 21.7165 9.54865 21.8151C9.54865 21.9137 9.58781 22.0082 9.65751 22.0779C9.72722 22.1476 9.82176 22.1868 9.92035 22.1868H12.1505C12.249 22.1865 12.3434 22.1473 12.4131 22.0776C12.4827 22.008 12.522 21.9136 12.5222 21.8151Z"/>
</mask>
<path d="M6.20335 19.6035H5.20335V20.6985L6.29389 20.5994L6.20335 19.6035ZM6.20335 19.2132L5.20335 19.2103V19.2132H6.20335ZM7.31845 18.0981V17.0981L7.31553 17.0981L7.31845 18.0981ZM14.7524 18.0981L14.7554 17.0981H14.7524V18.0981ZM15.8675 19.2132H16.8675L16.8675 19.2103L15.8675 19.2132ZM15.8675 19.6035L15.777 20.5994L16.8675 20.6985V19.6035H15.8675ZM9.17695 17.3547H8.17695V18.3547H9.17695V17.3547ZM12.8939 17.3547V18.3547H13.8939V17.3547H12.8939ZM20.997 32.3714L21.7996 31.7749L21.7983 31.7732L20.997 32.3714ZM18.8411 25.9038H17.8411L17.8411 25.9061L18.8411 25.9038ZM18.8411 24.0453H19.8411V23.0453H18.8411V24.0453ZM3.22976 24.0453V23.0453H2.22976V24.0453H3.22976ZM3.22976 25.9038L4.22976 25.9061V25.9038H3.22976ZM1.0739 32.3714L1.87437 32.9707L1.87525 32.9696L1.0739 32.3714ZM1.04045 32.7617L1.93989 32.3246L1.93565 32.3159L1.93124 32.3072L1.04045 32.7617ZM1.37126 32.9661V31.966L1.35984 31.9662L1.37126 32.9661ZM3.60146 32.9661V33.9661H4.10146L4.40146 33.5661L3.60146 32.9661ZM4.0475 32.3714L4.8475 32.9714L4.84885 32.9696L4.0475 32.3714ZM6.20335 25.9038L7.20335 25.9061V25.9038H6.20335ZM6.94675 25.9038L7.94675 25.9058V25.9038H6.94675ZM4.64221 32.8174L5.44222 33.4174L5.44341 33.4158L4.64221 32.8174ZM4.5307 32.9661L3.7307 32.3661L2.53071 33.9661H4.5307V32.9661ZM7.46341 32.9661V33.9661H8.08336L8.35907 33.4108L7.46341 32.9661ZM7.73104 32.4271L6.83574 31.9816L6.83538 31.9824L7.73104 32.4271ZM9.17695 26.2978L10.1769 26.2994V26.2978H9.17695ZM9.92035 26.2978L10.9203 26.299V26.2978H9.92035ZM8.39266 32.7617L7.49791 32.315L7.49499 32.321L8.39266 32.7617ZM8.2923 32.9661L7.39463 32.5254L6.6874 33.9661H8.2923V32.9661ZM13.7786 32.9661V33.9661H15.3835L14.6763 32.5254L13.7786 32.9661ZM13.6782 32.7617L14.5759 32.321L14.573 32.315L13.6782 32.7617ZM12.1505 26.2978H11.1505L11.1505 26.299L12.1505 26.2978ZM12.8939 26.2978H11.8939L11.8939 26.2994L12.8939 26.2978ZM14.3399 32.4271L13.4445 32.8726L13.4467 32.8768L14.3399 32.4271ZM14.6112 32.9661L13.718 33.4158L13.9951 33.9661H14.6112V32.9661ZM17.5402 32.9661V33.9661H19.5402L18.3402 32.3661L17.5402 32.9661ZM17.4287 32.8174L16.6275 33.4158L16.6287 33.4174L17.4287 32.8174ZM15.1241 25.9038H14.1241L14.1241 25.9058L15.1241 25.9038ZM15.8675 25.9038H14.8675L14.8675 25.9061L15.8675 25.9038ZM18.0234 32.3714L17.222 32.9696L17.2234 32.9714L18.0234 32.3714ZM18.4694 32.9661L17.6694 33.5661L17.9694 33.9661H18.4694V32.9661ZM20.6996 32.9661V33.9661L20.704 33.9661L20.6996 32.9661ZM3.25206 23.3019L2.25842 23.1893L2.13228 24.3019H3.25206V23.3019ZM6.57505 20.3283V19.3283L6.57303 19.3283L6.57505 20.3283ZM15.4958 20.3283L15.4979 19.3283H15.4958V20.3283ZM12.1505 21.4434L12.1534 20.4434H12.1505V21.4434ZM12.1505 22.1868V23.1868L12.1534 23.1868L12.1505 22.1868ZM6.57505 18.5849C6.40954 18.5849 6.25517 18.5947 6.11282 18.6076L6.29389 20.5994C6.39686 20.59 6.4878 20.5849 6.57505 20.5849V18.5849ZM7.20335 19.6035V19.2132H5.20335V19.6035H7.20335ZM7.20335 19.2161C7.20344 19.1849 7.2159 19.1549 7.23802 19.1328L5.8238 17.7186C5.42805 18.1143 5.20499 18.6506 5.20336 19.2103L7.20335 19.2161ZM7.23802 19.1328C7.26013 19.1107 7.2901 19.0982 7.32137 19.0981L7.31553 17.0981C6.75585 17.0998 6.21956 17.3228 5.8238 17.7186L7.23802 19.1328ZM7.31845 19.0981H14.7524V17.0981H7.31845V19.0981ZM14.7495 19.0981C14.7808 19.0982 14.8108 19.1107 14.8329 19.1328L16.2471 17.7186C15.8513 17.3228 15.315 17.0998 14.7554 17.0981L14.7495 19.0981ZM14.8329 19.1328C14.855 19.1549 14.8674 19.1849 14.8675 19.2161L16.8675 19.2103C16.8659 18.6506 16.6428 18.1143 16.2471 17.7186L14.8329 19.1328ZM14.8675 19.2132V19.6035H16.8675V19.2132H14.8675ZM15.9581 18.6076C15.8157 18.5947 15.6613 18.5849 15.4958 18.5849V20.5849C15.5831 20.5849 15.674 20.59 15.777 20.5994L15.9581 18.6076ZM15.4958 18.5849H6.57505V20.5849H15.4958V18.5849ZM13.8939 2.85844C13.8939 2.10032 13.5928 1.37325 13.0567 0.837173L11.6425 2.25139C11.8035 2.41239 11.8939 2.63075 11.8939 2.85844H13.8939ZM13.0567 0.837173C12.5206 0.301101 11.7936 -6.10352e-05 11.0354 -6.10352e-05V1.99994C11.2631 1.99994 11.4815 2.09039 11.6425 2.25139L13.0567 0.837173ZM11.0354 -6.10352e-05C10.2773 -6.10352e-05 9.55025 0.301101 9.01418 0.837173L10.4284 2.25139C10.5894 2.09039 10.8078 1.99994 11.0354 1.99994V-6.10352e-05ZM9.01418 0.837173C8.47811 1.37325 8.17695 2.10032 8.17695 2.85844H10.1769C10.1769 2.63075 10.2674 2.41239 10.4284 2.25139L9.01418 0.837173ZM8.17695 2.85844V17.3547H10.1769V2.85844H8.17695ZM9.17695 18.3547H12.8939V16.3547H9.17695V18.3547ZM13.8939 17.3547V2.85844H11.8939V17.3547H13.8939ZM21.7983 31.7732C20.5322 30.077 19.8459 28.0182 19.8411 25.9015L17.8411 25.9061C17.8469 28.4523 18.6725 30.9291 20.1956 32.9696L21.7983 31.7732ZM19.8411 25.9038V24.0453H17.8411V25.9038H19.8411ZM18.8411 23.0453H3.22976V25.0453H18.8411V23.0453ZM2.22976 24.0453V25.9038H4.22976V24.0453H2.22976ZM2.22976 25.9015C2.22499 28.0182 1.53871 30.077 0.272549 31.7732L1.87525 32.9696C3.39843 30.9291 4.22401 28.4523 4.22975 25.9061L2.22976 25.9015ZM0.273435 31.772C0.119886 31.9771 0.0268863 32.2211 0.00500655 32.4763L1.9977 32.6471C1.98765 32.7644 1.94491 32.8765 1.87437 32.9707L0.273435 31.772ZM0.00500655 32.4763C-0.0168725 32.7316 0.0332416 32.9879 0.149657 33.2161L1.93124 32.3072C1.98473 32.4121 2.00775 32.5298 1.9977 32.6471L0.00500655 32.4763ZM0.141008 33.1987C0.25395 33.4311 0.43064 33.6267 0.65049 33.7626L1.70188 32.0612C1.80459 32.1247 1.88713 32.216 1.93989 32.3246L0.141008 33.1987ZM0.65049 33.7626C0.870334 33.8984 1.12427 33.969 1.38268 33.966L1.35984 31.9662C1.48056 31.9648 1.59918 31.9977 1.70188 32.0612L0.65049 33.7626ZM1.37126 33.9661H3.60146V31.9661H1.37126V33.9661ZM4.40146 33.5661L4.8475 32.9714L3.2475 31.7714L2.80146 32.3661L4.40146 33.5661ZM4.84885 32.9696C6.37202 30.9291 7.19761 28.4523 7.20335 25.9061L5.20335 25.9015C5.19858 28.0182 4.51231 30.077 3.24614 31.7732L4.84885 32.9696ZM7.20335 25.9038C7.20335 26.0704 7.13716 26.2302 7.01933 26.3481L5.60511 24.9339C5.34787 25.1911 5.20335 25.54 5.20335 25.9038H7.20335ZM7.01933 26.3481C6.90149 26.4659 6.74168 26.5321 6.57505 26.5321V24.5321C6.21126 24.5321 5.86236 24.6766 5.60511 24.9339L7.01933 26.3481ZM6.57505 26.5321C6.40842 26.5321 6.24861 26.4659 6.13078 26.3481L7.54499 24.9339C7.28774 24.6766 6.93885 24.5321 6.57505 24.5321V26.5321ZM6.13078 26.3481C6.01294 26.2302 5.94675 26.0704 5.94675 25.9038H7.94675C7.94675 25.54 7.80223 25.1911 7.54499 24.9339L6.13078 26.3481ZM5.94675 25.9018C5.94219 28.1791 5.20378 30.3944 3.84101 32.219L5.44341 33.4158C7.06349 31.2467 7.94132 28.6132 7.94675 25.9058L5.94675 25.9018ZM3.84221 32.2174L3.7307 32.3661L5.33071 33.5661L5.44222 33.4174L3.84221 32.2174ZM4.5307 33.9661H7.46341V31.9661H4.5307V33.9661ZM8.35907 33.4108L8.6267 32.8719L6.83538 31.9824L6.56775 32.5213L8.35907 33.4108ZM8.62633 32.8726C9.64258 30.8302 10.1733 28.5807 10.1769 26.2994L8.17695 26.2962C8.17375 28.2693 7.71475 30.2151 6.83574 31.9816L8.62633 32.8726ZM10.1769 26.2978V25.9038H8.17695V26.2978H10.1769ZM10.1769 25.9038C10.1769 26.0704 10.1108 26.2302 9.99292 26.3481L8.57871 24.9339C8.32146 25.1911 8.17695 25.54 8.17695 25.9038H10.1769ZM9.99292 26.3481C9.87509 26.4659 9.71528 26.5321 9.54865 26.5321V24.5321C9.18485 24.5321 8.83595 24.6766 8.57871 24.9339L9.99292 26.3481ZM9.54865 26.5321C9.38201 26.5321 9.2222 26.4659 9.10437 26.3481L10.5186 24.9339C10.2613 24.6766 9.91244 24.5321 9.54865 24.5321V26.5321ZM9.10437 26.3481C8.98654 26.2302 8.92035 26.0704 8.92035 25.9038H10.9203C10.9203 25.54 10.7758 25.1911 10.5186 24.9339L9.10437 26.3481ZM8.92035 25.9038V26.2978H10.9203V25.9038H8.92035ZM8.92035 26.2966C8.91785 28.3857 8.43096 30.4458 7.49793 32.315L9.28739 33.2083C10.3585 31.0624 10.9175 28.6974 10.9203 26.299L8.92035 26.2966ZM7.49499 32.321L7.39463 32.5254L9.18997 33.4068L9.29033 33.2023L7.49499 32.321ZM8.2923 33.9661H13.7786V31.9661H8.2923V33.9661ZM14.6763 32.5254L14.5759 32.321L12.7806 33.2023L12.8809 33.4068L14.6763 32.5254ZM14.573 32.315C13.6399 30.4458 13.153 28.3857 13.1505 26.2966L11.1505 26.299C11.1534 28.6974 11.7124 31.0624 12.7835 33.2083L14.573 32.315ZM13.1505 26.2978V25.9038H11.1505V26.2978H13.1505ZM13.1505 25.9038C13.1505 26.0704 13.0843 26.2302 12.9665 26.3481L11.5523 24.9339C11.2951 25.1911 11.1505 25.54 11.1505 25.9038H13.1505ZM12.9665 26.3481C12.8487 26.4659 12.6889 26.5321 12.5222 26.5321V24.5321C12.1584 24.5321 11.8095 24.6766 11.5523 24.9339L12.9665 26.3481ZM12.5222 26.5321C12.3556 26.5321 12.1958 26.4659 12.078 26.3481L13.4922 24.9339C13.2349 24.6766 12.886 24.5321 12.5222 24.5321V26.5321ZM12.078 26.3481C11.9601 26.2302 11.8939 26.0704 11.8939 25.9038H13.8939C13.8939 25.54 13.7494 25.1911 13.4922 24.9339L12.078 26.3481ZM11.8939 25.9038V26.2978H13.8939V25.9038H11.8939ZM11.8939 26.2994C11.8976 28.5807 12.4283 30.8302 13.4446 32.8726L15.2351 31.9816C14.3561 30.2151 13.8971 28.2693 13.8939 26.2962L11.8939 26.2994ZM13.4467 32.8768L13.718 33.4158L15.5044 32.5164L15.233 31.9774L13.4467 32.8768ZM14.6112 33.9661H17.5402V31.9661H14.6112V33.9661ZM18.3402 32.3661L18.2287 32.2174L16.6287 33.4174L16.7402 33.5661L18.3402 32.3661ZM18.2299 32.219C16.8671 30.3944 16.1287 28.1791 16.1241 25.9018L14.1241 25.9058C14.1296 28.6132 15.0074 31.2467 16.6275 33.4158L18.2299 32.219ZM16.1241 25.9038C16.1241 26.0704 16.0579 26.2302 15.9401 26.3481L14.5259 24.9339C14.2687 25.1911 14.1241 25.54 14.1241 25.9038H16.1241ZM15.9401 26.3481C15.8223 26.4659 15.6625 26.5321 15.4958 26.5321V24.5321C15.132 24.5321 14.7831 24.6766 14.5259 24.9339L15.9401 26.3481ZM15.4958 26.5321C15.3292 26.5321 15.1694 26.4659 15.0516 26.3481L16.4658 24.9339C16.2085 24.6766 15.8596 24.5321 15.4958 24.5321V26.5321ZM15.0516 26.3481C14.9337 26.2302 14.8675 26.0704 14.8675 25.9038H16.8675C16.8675 25.54 16.723 25.1911 16.4658 24.9339L15.0516 26.3481ZM14.8675 25.9061C14.8733 28.4523 15.6989 30.9291 17.222 32.9696L18.8247 31.7732C17.5586 30.077 16.8723 28.0182 16.8675 25.9015L14.8675 25.9061ZM17.2234 32.9714L17.6694 33.5661L19.2694 32.3661L18.8234 31.7714L17.2234 32.9714ZM18.4694 33.9661H20.6996V31.9661H18.4694V33.9661ZM20.704 33.9661C20.9579 33.965 21.2065 33.8935 21.4221 33.7595L20.3669 32.0605C20.4655 31.9993 20.5792 31.9666 20.6953 31.9661L20.704 33.9661ZM21.4221 33.7595C21.6378 33.6256 21.8121 33.4345 21.9256 33.2074L20.1368 32.313C20.1887 32.2091 20.2684 32.1218 20.3669 32.0605L21.4221 33.7595ZM21.9256 33.2074C22.0391 32.9803 22.0875 32.7262 22.0652 32.4733L20.0729 32.6486C20.0628 32.5329 20.0849 32.4168 20.1368 32.313L21.9256 33.2074ZM22.0652 32.4733C22.043 32.2204 21.951 31.9786 21.7996 31.7749L20.1944 32.9679C20.1251 32.8747 20.0831 32.7642 20.0729 32.6486L22.0652 32.4733ZM18.8188 22.3019H3.25206V24.3019H18.8188V22.3019ZM4.24569 23.4145C4.31068 22.8414 4.58413 22.312 5.01401 21.9274L3.68032 20.437C2.88475 21.1489 2.37869 22.1285 2.25842 23.1893L4.24569 23.4145ZM5.01401 21.9274C5.44389 21.5427 6.0002 21.3295 6.57707 21.3283L6.57303 19.3283C5.50544 19.3305 4.47589 19.725 3.68032 20.437L5.01401 21.9274ZM6.57505 21.3283H15.4958V19.3283H6.57505V21.3283ZM15.4938 21.3283C16.0707 21.3295 16.627 21.5427 17.0569 21.9274L18.3906 20.437C17.595 19.725 16.5655 19.3305 15.4979 19.3283L15.4938 21.3283ZM17.0569 21.9274C17.4868 22.312 17.7602 22.8414 17.8252 23.4145L19.8125 23.1893C19.6922 22.1285 19.1861 21.1489 18.3906 20.437L17.0569 21.9274ZM13.5222 21.8122C13.5212 21.4495 13.3766 21.102 13.1202 20.8455L11.706 22.2597C11.5888 22.1425 11.5227 21.9837 11.5222 21.818L13.5222 21.8122ZM13.1202 20.8455C12.8637 20.589 12.5161 20.4445 12.1534 20.4434L12.1477 22.4434C11.9819 22.4429 11.8231 22.3769 11.706 22.2597L13.1202 20.8455ZM12.1505 20.4434H9.92035V22.4434H12.1505V20.4434ZM9.92035 20.4434C9.55655 20.4434 9.20765 20.5879 8.95041 20.8452L10.3646 22.2594C10.2468 22.3772 10.087 22.4434 9.92035 22.4434V20.4434ZM8.95041 20.8452C8.69316 21.1024 8.54865 21.4513 8.54865 21.8151H10.5486C10.5486 21.9817 10.4825 22.1416 10.3646 22.2594L8.95041 20.8452ZM8.54865 21.8151C8.54865 22.1789 8.69316 22.5278 8.95041 22.785L10.3646 21.3708C10.4825 21.4887 10.5486 21.6485 10.5486 21.8151H8.54865ZM8.95041 22.785C9.20765 23.0423 9.55655 23.1868 9.92035 23.1868V21.1868C10.087 21.1868 10.2468 21.253 10.3646 21.3708L8.95041 22.785ZM9.92035 23.1868H12.1505V21.1868H9.92035V23.1868ZM12.1534 23.1868C12.5161 23.1858 12.8637 23.0412 13.1202 22.7847L11.706 21.3705C11.8231 21.2533 11.9819 21.1873 12.1477 21.1868L12.1534 23.1868ZM13.1202 22.7847C13.3766 22.5283 13.5212 22.1807 13.5222 21.818L11.5222 21.8122C11.5227 21.6465 11.5888 21.4877 11.706 21.3705L13.1202 22.7847Z" fill="#CBD3E0" mask="url(#path-1-outside-1)"/>
</svg>
