<svg width="30" height="30" viewBox="0 0 30 30" fill="none" xmlns="http://www.w3.org/2000/svg">
<path d="M7.55552 13.9139V12.7058L6.70175 13.5606L4.38256 15.8826L4.02965 16.2359L4.38256 16.5893L6.70175 18.9113L7.55552 19.7661V18.558V13.9139Z" stroke="#CBD3E0"/>
<path d="M3.5293 26.9156V28.1237L4.38307 27.2689L6.67963 24.9695L7.03253 24.6162L6.67963 24.2628L4.38307 21.9634L3.5293 21.1086V22.3168V26.9156Z" stroke="#CBD3E0"/>
<path d="M7.55552 19.4998V18.2917L6.70175 19.1465L4.38256 21.4685L4.02965 21.8219L4.38256 22.1752L6.70175 24.4972L7.55552 25.352V24.1439V19.4998Z" stroke="#CBD3E0"/>
<path d="M4.38307 10.7917L3.5293 9.93689V11.1451V15.7438V16.952L4.38307 16.0972L6.67963 13.7978L7.03253 13.4444L6.67963 13.0911L4.38307 10.7917Z" stroke="#CBD3E0"/>
<path d="M4.38307 16.3776L3.5293 15.5227V16.7309V21.3297V22.5378L4.38307 21.683L6.67963 19.3836L7.03253 19.0303L6.67963 18.677L4.38307 16.3776Z" stroke="#CBD3E0"/>
<path d="M6.70162 7.74246L7.55535 8.59709V7.38909V5.17677H18.3182V6.43939H17.404H16.904V6.93939V8.11111V8.61111H17.404H22.4949H22.9949V8.11111V6.93939V6.43939H22.4949H21.5808V5.17677H22.7184H23.2184V4.67677V3.82828V3.32828H22.7184H7.55535V1.84848V1V0.5H7.05535H4.02909H3.52909V1V1.84848V3.32828H1H0.5V3.82828V4.67677V5.17677H1H4.1386L6.70162 7.74246Z" stroke="#CBD3E0"/>
<path d="M7.55552 8.33087V7.12272L6.70175 7.97753L4.38256 10.2996L4.02944 10.6531L4.38277 11.0064L6.70197 13.3256L7.55552 14.1792V12.9721V8.33087Z" stroke="#CBD3E0"/>
<path d="M4.38307 5.20584L3.5293 4.35102V5.55917V10.158V11.3661L4.38307 10.5113L6.67963 8.2119L7.03253 7.85857L6.67963 7.50523L4.38307 5.20584Z" stroke="#CBD3E0"/>
<path d="M28.9999 15.6415H29.4999V15.1415V14.293V13.793H28.9999H24.9746V9.49905V8.99905H24.4746H23.6261H23.1261V9.49905V13.793H18.4696V12.8789V12.3789H17.9696H17.1211H16.6211V12.8789V14.556V20.298H11.9645V16.5782V16.0782H11.4645H10.616H10.116V16.5782V21.1318V26.8031H7.55524V25.0857V23.8775L6.70146 24.7324L4.6334 26.8031H1.28271H0.782715V27.3031V28.798V29.298H1.28271H26.1716H26.6716V28.798V27.3031V26.8031H26.1716H24.9746V22.1465H28.9999H29.4999V21.6465V20.798V20.298H28.9999H24.9746V15.6415H28.9999ZM19.6009 16.7728H21.9948V19.1667H19.6009V16.7728ZM13.0958 23.2778H15.4898V25.6718H13.0958V23.2778ZM19.6009 25.6718V23.2778H21.9948V25.6718H19.6009Z" stroke="#CBD3E0"/>
<path d="M29.2172 27.303V26.803H28.7172H27.04H26.54V27.303V28.798V29.298H27.04H28.7172H29.2172V28.798V27.303Z" stroke="#CBD3E0"/>
</svg>
