<svg width="21" height="21" viewBox="0 0 21 21" fill="none" xmlns="http://www.w3.org/2000/svg">
<path d="M10.4722 8.38889V7.88889H9.97217H5.22217H4.72217V8.38889V20V20.5H5.22217H9.97217H10.4722V20V8.38889Z" stroke="#CBD3E0"/>
<path d="M16.2778 8.38889V7.88889H15.7778H11.0278H10.5278V8.38889V20V20.5H11.0278H15.7778H16.2778V20V8.38889Z" stroke="#CBD3E0"/>
<path d="M4.16667 20.5H4.66667V20V7.86111C4.66667 7.85374 4.66959 7.84668 4.6748 7.84147C4.68001 7.83626 4.68708 7.83333 4.69444 7.83333H16.3056C16.3129 7.83333 16.32 7.83626 16.3252 7.84147C16.3304 7.84668 16.3333 7.85374 16.3333 7.86111V20V20.5H16.8333H19.4722C19.7448 20.5 20.0062 20.3917 20.199 20.199L19.8454 19.8454L20.199 20.199C20.3917 20.0062 20.5 19.7448 20.5 19.4722V1.52778C20.5 1.25519 20.3917 0.993777 20.199 0.801032L19.8454 1.15458L20.199 0.801028C20.0062 0.608284 19.7448 0.5 19.4722 0.5H1.52778C1.25519 0.5 0.993775 0.608284 0.801029 0.801029C0.608284 0.993775 0.5 1.25519 0.5 1.52778V19.4722C0.5 19.7448 0.608284 20.0062 0.801028 20.199L1.15422 19.8458L0.801032 20.199C0.993777 20.3917 1.25519 20.5 1.52778 20.5H4.16667ZM8.67743 4.70119L8.67741 4.70118L8.67584 4.70501C8.67375 4.71008 8.67022 4.71442 8.66567 4.71749L8.93029 5.11015L8.66567 4.71749C8.66125 4.72046 8.65607 4.72211 8.65075 4.72222H6.5437C6.53838 4.72211 6.5332 4.72046 6.52878 4.71749L6.26416 5.11015L6.52878 4.71749C6.52423 4.71442 6.52069 4.71008 6.51861 4.70501L6.51862 4.705L6.51702 4.70118C6.51489 4.69612 6.51431 4.69055 6.51535 4.68516C6.51635 4.67998 6.5188 4.67519 6.52242 4.67136L7.57605 3.61772L7.57606 3.61772L7.5775 3.61627C7.58008 3.61366 7.58316 3.6116 7.58654 3.61019L7.39425 3.14864L7.58654 3.61019C7.58993 3.60878 7.59356 3.60805 7.59722 3.60805C7.60089 3.60805 7.60452 3.60878 7.6079 3.61019L7.80019 3.14864L7.60791 3.61019C7.61129 3.6116 7.61436 3.61366 7.61695 3.61627L7.61694 3.61627L7.61839 3.61772L8.67202 4.67135C8.67564 4.67519 8.6781 4.67998 8.6791 4.68516C8.68013 4.69055 8.67955 4.69613 8.67743 4.70119ZM13.4239 4.71561L13.4225 4.71707C13.4199 4.71967 13.4168 4.72174 13.4135 4.72315C13.4101 4.72456 13.4064 4.72528 13.4028 4.72528C13.3991 4.72528 13.3955 4.72456 13.3921 4.72315C13.3887 4.72174 13.3856 4.71967 13.3831 4.71706L13.3816 4.71561L12.3284 3.66243C12.3283 3.66228 12.3281 3.66213 12.328 3.66197C12.3244 3.65814 12.3219 3.65335 12.3209 3.64817L11.8299 3.74276L12.3209 3.64817C12.3199 3.64278 12.3204 3.63721 12.3226 3.63215L12.3226 3.63215L12.3242 3.62833C12.3262 3.62326 12.3298 3.61891 12.3343 3.61585C12.3388 3.61287 12.3439 3.61123 12.3493 3.61111H14.4563C14.4616 3.61123 14.4668 3.61287 14.4712 3.61585C14.4758 3.61891 14.4793 3.62325 14.4814 3.62833L14.4814 3.62834L14.483 3.63215C14.4851 3.63721 14.4857 3.64279 14.4847 3.64817C14.4837 3.65335 14.4812 3.65814 14.4776 3.66197C14.4774 3.66213 14.4773 3.66228 14.4771 3.66243L13.4239 4.71561Z" stroke="#CBD3E0"/>
</svg>
