<svg width="30" height="21" viewBox="0 0 30 21" fill="none" xmlns="http://www.w3.org/2000/svg">
<path d="M26.2386 14.0864H26.3113L26.051 13.4074L23.8526 7.67309H23.9553L23.71 7.00151L21.4547 0.828419L21.3347 0.49994L20.9849 0.5L17.2014 0.500654L17.2014 0.5H16.7585H13.2237H13.0354H12.6591H12.5926H8.94293H8.5933L8.4733 0.828397L6.21766 7.00148L5.97225 7.67309H6.01806L3.87507 13.4115L3.62302 14.0864H3.68901L1.53198 19.8241L1.27786 20.5H2H10.1562L10.1562 20.5L10.3452 20.5H10.7209H10.7881L19.0059 20.4997L19.0059 20.5H19.4487H27.928H28.6501L28.396 19.824L26.2386 14.0864Z" stroke="#CBD3E0"/>
</svg>
