<svg width="22" height="19" viewBox="0 0 22 19" fill="none" xmlns="http://www.w3.org/2000/svg">
<path d="M2.68765 2.97994L1.57461 3.87037H3H3.38889V4.25926C3.38889 4.62762 3.53522 4.98088 3.79569 5.24135C4.05615 5.50182 4.40942 5.64815 4.77778 5.64815C5.10387 5.64815 5.41814 5.53347 5.66667 5.32645C5.9152 5.53347 6.22946 5.64815 6.55556 5.64815C6.88165 5.64815 7.19592 5.53347 7.44444 5.32645C7.69297 5.53347 8.00724 5.64815 8.33333 5.64815C8.65943 5.64815 8.97369 5.53347 9.22222 5.32645C9.47075 5.53347 9.78502 5.64815 10.1111 5.64815C10.4372 5.64815 10.7515 5.53347 11 5.32645C11.2485 5.53347 11.5628 5.64815 11.8889 5.64815C12.215 5.64815 12.5292 5.53347 12.7778 5.32645C13.0263 5.53347 13.3406 5.64815 13.6667 5.64815C13.9928 5.64815 14.307 5.53347 14.5556 5.32645C14.8041 5.53347 15.1184 5.64815 15.4444 5.64815C15.7705 5.64815 16.0848 5.53347 16.3333 5.32645C16.5819 5.53347 16.8961 5.64815 17.2222 5.64815C17.5906 5.64815 17.9438 5.50182 18.2043 5.24135C18.4648 4.98089 18.6111 4.62762 18.6111 4.25926V3.87037H19H20.4254L19.3123 2.97994L16.3494 0.609566L16.2124 0.5H16.037H5.96296H5.78757L5.65062 0.609566L2.68765 2.97994Z" stroke="#362140"/>
<path d="M13.5 11.6666V12.1666H14H18.1114H18.6114V11.6666V11V10.5H18.1114H16.2037V7.5H18.1114H18.6114V7V5.92383V4.56959L17.7313 5.59891C17.6685 5.67242 17.5905 5.73144 17.5026 5.77191C17.4148 5.81238 17.3192 5.83333 17.2225 5.83333C17.1258 5.83333 17.0302 5.81238 16.9424 5.77191C16.8545 5.73144 16.7765 5.67242 16.7136 5.59891L16.3336 5.15441L15.9536 5.59891C15.8907 5.67242 15.8127 5.73144 15.7248 5.77191C15.637 5.81238 15.5414 5.83333 15.4447 5.83333C15.348 5.83333 15.2524 5.81238 15.1646 5.77191C15.0767 5.73144 14.9987 5.67242 14.9359 5.59891L14.5558 5.15441L14.1758 5.59891C14.1129 5.67242 14.0349 5.73144 13.9471 5.77191C13.8592 5.81238 13.7637 5.83333 13.6669 5.83333C13.5702 5.83333 13.4747 5.81238 13.3868 5.77191C13.299 5.73144 13.2209 5.67242 13.1581 5.59891L12.778 5.15441L12.398 5.59891C12.3352 5.67242 12.2571 5.73144 12.1693 5.77191C12.0814 5.81238 11.9859 5.83333 11.8892 5.83333C11.7924 5.83333 11.6969 5.81238 11.609 5.77191C11.5212 5.73144 11.4432 5.67242 11.3803 5.59891L11.0003 5.15441L10.6202 5.59891C10.5574 5.67242 10.4794 5.73144 10.3915 5.77191C10.3037 5.81238 10.2081 5.83333 10.1114 5.83333C10.0147 5.83333 9.9191 5.81238 9.83125 5.77191C9.74341 5.73144 9.66538 5.67242 9.60253 5.59891L9.22249 5.15441L8.84246 5.59891C8.77961 5.67242 8.70158 5.73144 8.61373 5.77191C8.52589 5.81238 8.43032 5.83333 8.3336 5.83333C8.23689 5.83333 8.14132 5.81238 8.05348 5.77191C7.96563 5.73144 7.8876 5.67242 7.82475 5.59891L7.44472 5.15441L7.06468 5.59891C7.00183 5.67242 6.9238 5.73144 6.83596 5.77191C6.74811 5.81238 6.65254 5.83333 6.55583 5.83333C6.45911 5.83333 6.36354 5.81238 6.2757 5.77191C6.18786 5.73144 6.10982 5.67242 6.04697 5.59891L5.66694 5.15441L5.2869 5.59891C5.22405 5.67242 5.14602 5.73144 5.05818 5.77191C4.97033 5.81238 4.87477 5.83333 4.77805 5.83333C4.68133 5.83333 4.58576 5.81238 4.49792 5.77191C4.41008 5.73144 4.33205 5.67242 4.2692 5.59891L3.38916 4.56959V5.92383V6.7037V7.2037H3.88916H6L6 10.5H3.88916H3.38916V11V11.6666V12.1666H3.88916H8H8.5V11.6666V8.50004L13.5 8.50109V11.6666Z" stroke="#362140"/>
<path d="M12 10.5V10H11.5H10.5H10V10.5V11.5V12H10.5H11.5H12V11.5V10.5Z" stroke="#362140"/>
<path d="M17.2222 9H18.5" stroke="#362140"/>
<path d="M3.5 9H4.77765" stroke="#362140"/>
<path d="M14 18.5H14.9547L14.411 17.7153L11.6398 13.7153L11.4907 13.5H11.2288H10.7712H10.5093L10.3602 13.7153L7.589 17.7153L7.04533 18.5H8H14Z" stroke="#362140"/>
</svg>
