<svg width="17" height="18" viewBox="0 0 17 18" fill="none" xmlns="http://www.w3.org/2000/svg">
<path d="M13.8733 1.66652L14.2625 1.36477C14.4632 1.62368 14.6044 1.92374 14.6758 2.24351C14.7472 2.56328 14.7471 2.89487 14.6755 3.2146C14.6039 3.53433 14.4626 3.8343 14.2616 4.09309L13.8667 3.78644L14.2616 4.09309C14.1375 4.25295 13.9925 4.39465 13.831 4.51465C13.8552 4.71438 13.8673 4.9155 13.8672 5.1169L13.8733 1.66652ZM13.8733 1.66652L14.2625 1.36476C14.0617 1.10585 13.8062 0.894472 13.5143 0.745727C13.2223 0.596982 12.9011 0.514541 12.5737 0.504294C12.2462 0.494047 11.9205 0.556245 11.6198 0.686447L11.8185 1.14527M13.8733 1.66652L11.8185 1.14527M11.8185 1.14527L11.6198 0.686447C11.4354 0.766281 11.2633 0.870474 11.1078 0.995814M11.8185 1.14527L11.1078 0.995814M11.1078 0.995814C10.2825 0.654949 9.39489 0.486376 8.49973 0.501926C7.60575 0.486893 6.71941 0.655357 5.89512 0.995539C5.7396 0.869666 5.56736 0.764975 5.38283 0.684704C5.08182 0.553759 4.75556 0.491036 4.42745 0.501032C4.09934 0.511027 3.7775 0.593494 3.48502 0.742519C3.19253 0.891543 2.93664 1.10344 2.73569 1.363C2.53473 1.62257 2.3937 1.92338 2.3227 2.24387C2.25169 2.56437 2.25248 2.8966 2.32499 3.21675C2.39751 3.53691 2.53996 3.83705 2.74214 4.09566C2.86696 4.25534 3.01265 4.39674 3.17485 4.51631C3.15105 4.71565 3.13925 4.91636 3.13958 5.11733M11.1078 0.995814L13.8672 5.11709C13.8671 6.53959 13.302 7.90382 12.2962 8.90969C11.2903 9.9156 9.92595 10.4807 8.50338 10.4807C7.08081 10.4807 5.71651 9.9156 4.7106 8.90969C3.70479 7.90388 3.13969 6.53974 3.13958 5.11733M3.13958 5.11733C3.13958 5.11719 3.13958 5.11704 3.13958 5.1169H3.63958L3.13958 5.11775C3.13958 5.11761 3.13958 5.11747 3.13958 5.11733Z" stroke="#362140"/>
<path d="M2.58324 10.4896L2.58324 10.4896C3.34497 10.3145 4.10592 10.1835 4.72304 10.5995C5.0306 10.8067 5.25413 11.1167 5.43256 11.4986C5.61016 11.8788 5.75786 12.3625 5.89656 12.9578L5.89659 12.9579C6.26569 14.5435 5.60437 16.1191 4.2158 16.4447C3.55725 16.5991 2.78282 16.4426 2.13732 16.0655C1.48242 15.683 0.908338 15.0434 0.704711 14.1719L2.58324 10.4896ZM2.58324 10.4896L2.58105 10.4901M2.58324 10.4896L2.58105 10.4901M2.58105 10.4901C1.76754 10.6809 1.07188 10.9769 0.72517 11.6517M2.58105 10.4901L0.72517 11.6517M0.72517 11.6517C0.395892 12.2925 0.461804 13.1332 0.704683 14.1718L0.72517 11.6517Z" stroke="#362140"/>
<path d="M14.4187 10.489L14.4191 10.4891C15.2327 10.6799 15.9284 10.976 16.2751 11.6513C16.6042 12.2924 16.5384 13.1339 16.2955 14.1743C16.0921 15.0456 15.5208 15.6851 14.8675 16.0678C14.2236 16.4449 13.4512 16.6009 12.7931 16.4473C11.407 16.1239 10.7312 14.5497 11.1025 12.9602L14.4187 10.489ZM14.4187 10.489C13.6559 10.3108 12.8943 10.179 12.2763 10.5972M14.4187 10.489L12.2763 10.5972M12.2763 10.5972C11.9688 10.8052 11.7454 11.116 11.567 11.4986M12.2763 10.5972L11.567 11.4986M11.567 11.4986C11.3894 11.8795 11.2415 12.364 11.1025 12.96L11.567 11.4986Z" stroke="#362140"/>
<path d="M6.35441 12.8478C6.29776 12.6141 6.23944 12.3893 6.17701 12.1764C6.3388 11.9108 6.44493 11.775 6.63384 11.6075L7.00796 11.2758L6.67624 10.9017L6.36449 10.5501L6.35353 10.5377C7.03954 10.8104 7.77681 10.9523 8.52719 10.9492C9.25876 10.9461 9.97673 10.8053 10.6458 10.5404L10.6383 10.5489L10.3265 10.9005L9.99547 11.2739L10.3682 11.6057C10.558 11.7747 10.6678 11.9096 10.8242 12.1693C10.7599 12.3845 10.7024 12.6108 10.6476 12.8448C10.4376 13.6596 10.5004 14.52 10.8252 15.2947C10.6874 15.3609 10.5224 15.4073 10.308 15.4394C9.88871 15.5021 9.33575 15.5034 8.49963 15.5034C7.66343 15.5034 7.11067 15.5021 6.69175 15.4391C6.47659 15.4068 6.31132 15.36 6.17345 15.2931C6.48461 14.5813 6.55831 13.7247 6.35549 12.8524L6.35552 12.8524L6.35441 12.8478ZM4.88298 9.68628C5.19205 9.93183 5.52359 10.144 5.87198 10.3205L5.66065 10.5059C5.59891 10.5601 5.53918 10.6164 5.48157 10.6747C5.36013 10.5194 5.22207 10.38 5.06334 10.2614C4.85127 10.103 4.61575 9.99194 4.35717 9.92561C4.52606 9.83356 4.70175 9.75352 4.88298 9.68628ZM11.1338 10.3207C11.4967 10.1368 11.8412 9.91435 12.1611 9.65585C12.3501 9.72457 12.5326 9.80842 12.7069 9.90629C12.4229 9.96997 12.1658 10.0859 11.9361 10.2575C11.7774 10.3761 11.6393 10.5156 11.5179 10.671C11.4617 10.6141 11.4035 10.559 11.3435 10.5059L11.1338 10.3207Z" stroke="#362140"/>
</svg>
