<svg width="53" height="64" viewBox="0 0 53 64" fill="none" xmlns="http://www.w3.org/2000/svg">
<path d="M26.4667 0.700195C12.2414 0.700195 0.66695 12.0175 0.66695 25.9111C0.573426 46.2343 25.4863 63.0857 26.4667 63.7669C26.4667 63.7669 52.36 46.2343 52.2664 25.9269C52.2664 12.0175 40.692 0.700195 26.4667 0.700195Z" fill="white"/>
<path d="M32.317 21.1712L32.317 21.1711C32.2819 20.4772 31.7169 19.906 31 19.906H29.9572C29.8857 17.6164 28.0415 15.7501 25.7495 15.7501C23.4575 15.7501 21.6135 17.6164 21.5421 19.906H20.4993C19.7824 19.906 19.2172 20.477 19.1821 21.1711L19.1821 21.1712L18.585 32.982L18.585 32.9822C18.567 33.3414 18.6932 33.6959 18.9401 33.9621C19.1873 34.2287 19.5347 34.3834 19.9022 34.3834H31.5971C32.3403 34.3834 32.9167 33.7715 32.9167 33.0502L32.9167 33.0487C32.9166 33.0123 32.9151 32.9741 32.9118 32.9345L32.317 21.1712ZM24.7733 19.906C24.839 19.3937 25.2655 19.0179 25.7495 19.0179C26.2337 19.0179 26.6602 19.3937 26.7258 19.906H24.7733Z" stroke="#362140" stroke-width="1.43333"/>
</svg>
