<svg width="36" height="44" viewBox="0 0 36 44" fill="none" xmlns="http://www.w3.org/2000/svg">
<path d="M0.500183 17.5913V17.589C0.500183 8.18267 8.34064 0.5 18 0.5C27.6592 0.5 35.4998 8.18247 35.4998 17.6L35.4998 17.6023C35.5315 24.4863 31.147 30.9642 26.6589 35.7718C24.4248 38.1649 22.1871 40.1208 20.5073 41.4785C19.6678 42.1571 18.9687 42.6855 18.4804 43.0435C18.2845 43.1872 18.1226 43.3034 17.9992 43.3909C16.8911 42.6148 12.9515 39.7637 9.08581 35.5935C4.687 30.8482 0.468454 24.485 0.500183 17.5913Z" fill="white" stroke="#CAC4CD"/>
<path d="M11.792 14.3748C11.9788 15.9046 12.5272 17.2022 13.4805 18.3117C12.039 18.5476 10.853 19.118 9.65924 20.2297L9.19032 20.6663L9.72791 21.015C11.0155 21.8502 12.6542 22.381 14.2425 22.2423L14.2427 22.2423C14.7668 22.1963 15.5655 22.0776 16.324 21.8503C16.7036 21.7366 17.0859 21.592 17.4231 21.4082C17.5837 21.3206 17.7412 21.2204 17.8857 21.1052C18.0302 21.2203 18.1876 21.3206 18.3481 21.4081C18.6852 21.5919 19.0673 21.7366 19.4468 21.8503C20.2051 22.0776 21.0039 22.1963 21.5289 22.2423L21.5291 22.2423C23.1175 22.381 24.7543 21.8501 26.0434 21.0152L26.5816 20.6667L26.1123 20.2297C24.9167 19.1161 23.7301 18.5467 22.2874 18.3114C23.2402 17.2018 23.7874 15.9044 23.9757 14.3753L24.0541 13.7392L23.4181 13.818C22.1463 13.9754 20.8755 14.4316 19.8268 15.2168C19.6395 13.9221 19.0791 12.7178 18.2779 11.6922L17.8839 11.1878L17.4899 11.6922C16.6887 12.7178 16.1283 13.9221 15.941 15.2168C14.8923 14.4316 13.6215 13.9754 12.3498 13.818L11.7144 13.7393L11.792 14.3748Z" stroke="#362140"/>
</svg>
