<svg width="36" height="44" viewBox="0 0 36 44" fill="none" xmlns="http://www.w3.org/2000/svg">
<path d="M0.500183 17.5913V17.589C0.500183 8.18267 8.34064 0.5 18 0.5C27.6592 0.5 35.4998 8.18247 35.4998 17.6L35.4998 17.6023C35.5315 24.4863 31.147 30.9642 26.6589 35.7718C24.4248 38.1649 22.1871 40.1208 20.5073 41.4785C19.6678 42.1571 18.9687 42.6855 18.4804 43.0435C18.2845 43.1872 18.1226 43.3034 17.9992 43.3909C16.8911 42.6148 12.9515 39.7637 9.08581 35.5935C4.687 30.8482 0.468454 24.485 0.500183 17.5913Z" fill="white" stroke="#CAC4CD"/>
<mask id="path-2-outside-1" maskUnits="userSpaceOnUse" x="9" y="8" width="10" height="8" fill="black">
<rect fill="white" x="9" y="8" width="10" height="8"/>
<path d="M13.6625 10.7063C14.2027 10.272 15.9266 9.02293 15.9266 9.02293C15.9634 9.00565 16.0039 8.99792 16.0444 9.00048C16.0849 9.00303 16.1242 9.01578 16.1584 9.03754C16.1927 9.05931 16.221 9.08937 16.2405 9.12496C16.2601 9.16055 16.2703 9.2005 16.2703 9.2411L17.1757 14.5168H12.1795C11.6285 14.5431 11.0895 14.3495 10.6812 13.9786C10.2729 13.6076 10.0288 13.0896 10.0024 12.5385C10.0005 12.4991 9.99972 12.4595 10.0001 12.42C10.0001 11.7582 12.7117 11.4707 13.6625 10.7063Z"/>
</mask>
<path d="M13.6625 10.7063L13.0359 9.927L13.0359 9.927L13.6625 10.7063ZM15.9266 9.02293L15.501 8.11804L15.416 8.15802L15.3399 8.21315L15.9266 9.02293ZM16.2703 9.2411L15.2703 9.2411L15.2703 9.32629L15.2847 9.41024L16.2703 9.2411ZM17.1757 14.5168V15.5168H18.3619L18.1613 14.3476L17.1757 14.5168ZM12.1795 14.5168V13.5168H12.1556L12.1317 13.5179L12.1795 14.5168ZM10.0024 12.5385L11.0012 12.4907L11.0012 12.4906L10.0024 12.5385ZM10.0001 12.42L11.0001 12.4293L11.0001 12.42L10.0001 12.42ZM14.2891 11.4857C14.5389 11.2848 15.0859 10.8777 15.5895 10.5074C15.8373 10.3252 16.0684 10.1564 16.2376 10.0331C16.3222 9.97152 16.3913 9.92132 16.4391 9.88656C16.4631 9.86919 16.4817 9.85568 16.4943 9.84653C16.5006 9.84196 16.5054 9.83848 16.5086 9.83616C16.5102 9.835 16.5114 9.83412 16.5122 9.83355C16.5126 9.83326 16.5129 9.83304 16.5131 9.83291C16.5132 9.83284 16.5132 9.83279 16.5133 9.83275C16.5133 9.83274 16.5133 9.83273 16.5133 9.83272C16.5133 9.83272 16.5133 9.83272 15.9266 9.02293C15.3399 8.21315 15.3399 8.21315 15.3399 8.21317C15.3398 8.21318 15.3398 8.2132 15.3398 8.21322C15.3397 8.21327 15.3396 8.21333 15.3395 8.21341C15.3393 8.21357 15.339 8.21381 15.3385 8.21413C15.3377 8.21476 15.3364 8.21568 15.3347 8.2169C15.3314 8.21932 15.3264 8.22291 15.32 8.22759C15.307 8.23696 15.2881 8.25071 15.2638 8.26833C15.2153 8.30358 15.1455 8.35435 15.06 8.41661C14.8891 8.54108 14.6555 8.7117 14.4047 8.8961C13.9113 9.2589 13.3263 9.69351 13.0359 9.927L14.2891 11.4857ZM16.3523 9.92782C16.2366 9.98223 16.1091 10.0065 15.9815 9.9985L16.1073 8.00246C15.8987 7.98931 15.6901 8.02906 15.501 8.11804L16.3523 9.92782ZM15.9815 9.9985C15.8539 9.99046 15.7305 9.95032 15.6225 9.88183L16.6943 8.19326C16.5179 8.08124 16.3159 8.01561 16.1073 8.00246L15.9815 9.9985ZM15.6225 9.88183C15.5146 9.81333 15.4258 9.71869 15.3642 9.60668L17.1168 8.64324C17.0162 8.46006 16.8708 8.30528 16.6943 8.19326L15.6225 9.88183ZM15.3642 9.60668C15.3026 9.49466 15.2703 9.36892 15.2703 9.2411L17.2703 9.24111C17.2703 9.03208 17.2175 8.82643 17.1168 8.64324L15.3642 9.60668ZM15.2847 9.41024L16.1901 14.6859L18.1613 14.3476L17.2559 9.07197L15.2847 9.41024ZM17.1757 13.5168H12.1795V15.5168H17.1757V13.5168ZM12.1317 13.5179C11.8456 13.5316 11.5657 13.4311 11.3537 13.2385L10.0087 14.7187C10.6133 15.268 11.4114 15.5547 12.2273 15.5156L12.1317 13.5179ZM11.3537 13.2385C11.1417 13.0458 11.0149 12.7769 11.0012 12.4907L9.00352 12.5864C9.04258 13.4023 9.40417 14.1693 10.0087 14.7187L11.3537 13.2385ZM11.0012 12.4906C11.0003 12.4702 10.9999 12.4498 11 12.4293L9.00013 12.4107C8.99959 12.4693 9.00072 12.5279 9.00353 12.5865L11.0012 12.4906ZM11.0001 12.42C11.0001 12.7101 10.8447 12.8769 10.8096 12.9104C10.7781 12.9406 10.783 12.9255 10.879 12.8784C11.0686 12.7854 11.3643 12.6845 11.7743 12.5557C12.1532 12.4368 12.6186 12.2972 13.0388 12.1404C13.4458 11.9885 13.9202 11.7822 14.2891 11.4857L13.0359 9.927C12.9293 10.0126 12.7083 10.129 12.3395 10.2666C11.9838 10.3994 11.593 10.5164 11.1752 10.6476C10.7885 10.769 10.3468 10.9118 9.99833 11.0827C9.82524 11.1676 9.61085 11.2895 9.4273 11.465C9.24022 11.6439 9.00009 11.9645 9.00009 12.42L11.0001 12.42Z" fill="#362140" mask="url(#path-2-outside-1)"/>
<path d="M26.4797 15.3563L26.4811 15.3639C26.5291 15.6165 26.4846 15.8779 26.3558 16.1005C26.2281 16.321 26.0261 16.4888 25.7861 16.5738C25.5794 16.6515 25.3907 16.7707 25.2317 16.924C25.0729 17.0772 24.9471 17.2611 24.862 17.4646C24.7873 17.6581 24.7511 17.8644 24.7555 18.0718L24.7557 18.0823H24.7556V20.2635C24.7556 20.4631 24.7684 20.6626 24.7941 20.8606L25.2758 24.5748C25.2758 24.5749 25.2758 24.575 25.2758 24.575C25.3211 24.9235 25.2261 25.2757 25.0117 25.5542C24.7972 25.8329 24.4803 26.0146 24.1323 26.06C24.1322 26.06 24.1321 26.06 24.132 26.06L24.0675 25.5642C24.0319 25.5689 23.9961 25.5712 23.9602 25.5712L26.4797 15.3563ZM26.4797 15.3563L26.478 15.3488M26.4797 15.3563L26.478 15.3488M22.8323 16.8968C22.9896 16.4327 23.2375 16.003 23.5629 15.6331C23.9782 15.161 24.5062 14.8017 25.0978 14.5887L22.8323 16.8968ZM22.8323 16.8968H13.4365H12.8564L12.942 17.4706L13.3464 20.1811C13.4301 20.7978 13.6615 21.384 14.0196 21.8904L13.7011 24.5901C13.7011 24.5901 13.7011 24.5901 13.7011 24.5901C13.6807 24.763 13.6946 24.9383 13.7419 25.1058C13.7892 25.2733 13.8691 25.4299 13.9769 25.5666C14.0847 25.7033 14.2184 25.8174 14.3703 25.9024C14.5223 25.9874 14.6895 26.0417 14.8623 26.0621L14.8637 26.0622C14.9151 26.0681 14.9668 26.0711 15.0185 26.0711V26.0712L15.0244 26.0711C15.3465 26.0675 15.6564 25.9475 15.897 25.7334C16.1292 25.5267 16.2818 25.2458 16.3289 24.9392L16.7857 23.138H22.1701L22.6563 24.9685L22.8323 16.8968ZM26.478 15.3488C26.4458 15.2033 26.3828 15.0663 26.2935 14.9469M26.478 15.3488L26.2935 14.9469M26.2935 14.9469C26.2041 14.8276 26.0903 14.7287 25.9597 14.6568M26.2935 14.9469L25.9597 14.6568M25.9597 14.6568C25.8291 14.5849 25.6847 14.5416 25.5361 14.5299M25.9597 14.6568L25.5361 14.5299M25.5361 14.5299C25.3875 14.5181 25.2381 14.5382 25.0979 14.5887L25.5361 14.5299Z" stroke="#362140"/>
<path d="M19.0509 19.4489V19.9489H19.5509H20.5V20.0511H19.5509H19.0509V20.5511V21.5H18.9491V20.5511V20.0511H18.4491H17.5V19.9489H18.4491H18.9491V19.4489V18.5H19.0509V19.4489Z" stroke="#362140"/>
</svg>
