<svg width="36" height="44" viewBox="0 0 36 44" fill="none" xmlns="http://www.w3.org/2000/svg">
<path d="M0.500183 17.5913V17.589C0.500183 8.18267 8.34064 0.5 18 0.5C27.6592 0.5 35.4998 8.18247 35.4998 17.6L35.4998 17.6023C35.5315 24.4863 31.147 30.9642 26.6589 35.7718C24.4248 38.1649 22.1871 40.1208 20.5073 41.4785C19.6678 42.1571 18.9687 42.6855 18.4804 43.0435C18.2845 43.1872 18.1226 43.3034 17.9992 43.3909C16.8911 42.6148 12.9515 39.7637 9.08581 35.5935C4.687 30.8482 0.468454 24.485 0.500183 17.5913Z" fill="white" stroke="#CAC4CD"/>
<path d="M10.8569 13.7727H10.3569V14.2727V15.7213V16.0271L10.6291 16.1664L18.272 20.0778L18.4997 20.1943L18.7275 20.0778L26.3703 16.1689L26.6426 16.0296V15.7237V14.2727V13.7727H26.1426H10.8569ZM11.0846 16.6346L10.3569 16.2624V17.0797V24V24.5H10.8569H26.1426H26.6426V24V17.0797V16.2623L25.9149 16.6346L18.5339 20.4106L18.5336 20.4107C18.5154 20.4201 18.4865 20.4201 18.4683 20.4107L18.4679 20.4105L11.0846 16.6346Z" stroke="#362140"/>
</svg>
