<svg width="36" height="44" viewBox="0 0 36 44" fill="none" xmlns="http://www.w3.org/2000/svg">
<path d="M0.500183 17.5913V17.589C0.500183 8.18267 8.34064 0.5 18 0.5C27.6592 0.5 35.4998 8.18247 35.4998 17.6L35.4998 17.6023C35.5315 24.4863 31.147 30.9642 26.6589 35.7718C24.4248 38.1649 22.1871 40.1208 20.5073 41.4785C19.6678 42.1571 18.9687 42.6855 18.4804 43.0435C18.2845 43.1872 18.1226 43.3034 17.9992 43.3909C16.8911 42.6148 12.9515 39.7637 9.08581 35.5935C4.687 30.8482 0.468454 24.485 0.500183 17.5913Z" fill="white" stroke="#CAC4CD"/>
<path d="M9.68765 11.9799L8.57461 12.8704H10H10.3889V13.2593C10.3889 13.6276 10.5352 13.9809 10.7957 14.2414C11.0562 14.5018 11.4094 14.6481 11.7778 14.6481C12.1039 14.6481 12.4181 14.5335 12.6667 14.3265C12.9152 14.5335 13.2295 14.6481 13.5556 14.6481C13.8816 14.6481 14.1959 14.5335 14.4444 14.3265C14.693 14.5335 15.0072 14.6481 15.3333 14.6481C15.6594 14.6481 15.9737 14.5335 16.2222 14.3265C16.4708 14.5335 16.785 14.6481 17.1111 14.6481C17.4372 14.6481 17.7515 14.5335 18 14.3265C18.2485 14.5335 18.5628 14.6481 18.8889 14.6481C19.215 14.6481 19.5292 14.5335 19.7778 14.3265C20.0263 14.5335 20.3406 14.6481 20.6667 14.6481C20.9928 14.6481 21.307 14.5335 21.5556 14.3265C21.8041 14.5335 22.1184 14.6481 22.4444 14.6481C22.7705 14.6481 23.0848 14.5335 23.3333 14.3265C23.5819 14.5335 23.8961 14.6481 24.2222 14.6481C24.5906 14.6481 24.9438 14.5018 25.2043 14.2414C25.4648 13.9809 25.6111 13.6276 25.6111 13.2593V12.8704H26H27.4254L26.3123 11.9799L23.3494 9.60957L23.2124 9.5H23.037H12.963H12.7876L12.6506 9.60957L9.68765 11.9799Z" stroke="#362140"/>
<path d="M20.5 20.6666V21.1666H21H25.1114H25.6114V20.6666V20V19.5H25.1114H23.2037V16.5H25.1114H25.6114V16V14.9238V13.5696L24.7313 14.5989C24.6685 14.6724 24.5905 14.7314 24.5026 14.7719C24.4148 14.8124 24.3192 14.8333 24.2225 14.8333C24.1258 14.8333 24.0302 14.8124 23.9424 14.7719C23.8545 14.7314 23.7765 14.6724 23.7136 14.5989L23.3336 14.1544L22.9536 14.5989C22.8907 14.6724 22.8127 14.7314 22.7248 14.7719C22.637 14.8124 22.5414 14.8333 22.4447 14.8333C22.348 14.8333 22.2524 14.8124 22.1646 14.7719C22.0767 14.7314 21.9987 14.6724 21.9359 14.5989L21.5558 14.1544L21.1758 14.5989C21.1129 14.6724 21.0349 14.7314 20.9471 14.7719C20.8592 14.8124 20.7637 14.8333 20.6669 14.8333C20.5702 14.8333 20.4747 14.8124 20.3868 14.7719C20.299 14.7314 20.2209 14.6724 20.1581 14.5989L19.778 14.1544L19.398 14.5989C19.3352 14.6724 19.2571 14.7314 19.1693 14.7719C19.0814 14.8124 18.9859 14.8333 18.8892 14.8333C18.7924 14.8333 18.6969 14.8124 18.609 14.7719C18.5212 14.7314 18.4432 14.6724 18.3803 14.5989L18.0003 14.1544L17.6202 14.5989C17.5574 14.6724 17.4794 14.7314 17.3915 14.7719C17.3037 14.8124 17.2081 14.8333 17.1114 14.8333C17.0147 14.8333 16.9191 14.8124 16.8313 14.7719C16.7434 14.7314 16.6654 14.6724 16.6025 14.5989L16.2225 14.1544L15.8425 14.5989C15.7796 14.6724 15.7016 14.7314 15.6137 14.7719C15.5259 14.8124 15.4303 14.8333 15.3336 14.8333C15.2369 14.8333 15.1413 14.8124 15.0535 14.7719C14.9656 14.7314 14.8876 14.6724 14.8248 14.5989L14.4447 14.1544L14.0647 14.5989C14.0018 14.6724 13.9238 14.7314 13.836 14.7719C13.7481 14.8124 13.6525 14.8333 13.5558 14.8333C13.4591 14.8333 13.3635 14.8124 13.2757 14.7719C13.1879 14.7314 13.1098 14.6724 13.047 14.5989L12.6669 14.1544L12.2869 14.5989C12.2241 14.6724 12.146 14.7314 12.0582 14.7719C11.9703 14.8124 11.8748 14.8333 11.778 14.8333C11.6813 14.8333 11.5858 14.8124 11.4979 14.7719C11.4101 14.7314 11.332 14.6724 11.2692 14.5989L10.3892 13.5696V14.9238V15.7037V16.2037H10.8892H13L13 19.5H10.8892H10.3892V20V20.6666V21.1666H10.8892H15H15.5V20.6666V17.5L20.5 17.5011V20.6666Z" stroke="#362140"/>
<path d="M19 19.5V19H18.5H17.5H17V19.5V20.5V21H17.5H18.5H19V20.5V19.5Z" stroke="#362140"/>
<path d="M24.2222 18H25.5" stroke="#362140"/>
<path d="M10.5 18H11.7777" stroke="#362140"/>
<path d="M21 27.5H21.9547L21.411 26.7153L18.6398 22.7153L18.4907 22.5H18.2288H17.7712H17.5093L17.3602 22.7153L14.589 26.7153L14.0453 27.5H15H21Z" stroke="#362140"/>
</svg>
