<svg width="18" height="15" viewBox="0 0 18 15" fill="none" xmlns="http://www.w3.org/2000/svg">
<path d="M13.9673 4.64489C13.5556 4.66954 13.1484 4.74987 12.7614 4.86839C12.6382 4.34535 12.457 3.81723 12.1935 3.36392C11.8274 2.73412 11.2653 2.1925 10.4398 2.09356L10.4398 2.09353L10.434 2.0929C9.84986 2.02981 9.30936 2.24338 9.11998 2.73593C9.02958 2.97107 9.04349 3.23453 9.16827 3.46032C9.29383 3.68753 9.51069 3.8411 9.76379 3.9082L9.76378 3.90822L9.76839 3.90939C10.2336 4.028 10.5674 4.35301 10.8032 4.81403C10.4831 4.73586 10.1562 4.6867 9.82913 4.6616L9.82913 4.66159L9.82613 4.66138C8.78696 4.58792 7.87558 4.88013 7.24722 5.51129L6.98528 5.7744L7.1614 6.10124C7.32358 6.40221 7.45446 6.75804 7.51189 7.12087L7.51369 7.13222L7.516 7.14348C7.60023 7.55287 7.78729 7.93278 8.0309 8.24851L8.03089 8.24852L8.03304 8.25126C8.55349 8.91617 8.81933 9.69162 8.81933 10.5296C8.81933 11.2178 8.62872 11.8509 8.28271 12.4359L8.07971 12.7791L8.36911 13.0533C9.12723 13.7719 10.0933 14.1859 11.1998 13.9508C11.4574 13.9053 11.6869 13.8193 11.8924 13.7244C12.1037 13.8226 12.3412 13.9071 12.5969 13.9516C13.7057 14.1671 14.6743 13.763 15.4387 13.0338C16.1928 12.3145 16.7667 11.2673 17.1529 10.1156L17.1539 10.1123C17.6618 8.56193 17.6053 7.15577 17.0174 6.13438C16.4155 5.08875 15.3116 4.54357 13.9673 4.64489Z" stroke="#362140"/>
<path d="M13.5767 3.88603L13.5767 3.88615L13.5875 3.88265C13.9538 3.76397 14.6203 3.50985 15.0246 2.92039C15.4256 2.33574 15.434 1.63773 15.3966 1.25039C15.3505 0.710016 14.8229 0.379451 14.3234 0.54129C13.9561 0.660303 13.2882 0.915035 12.884 1.52339C12.484 2.10935 12.4773 2.80793 12.5144 3.20644C12.5369 3.46054 12.6747 3.68339 12.8918 3.81232C13.1046 3.93876 13.3534 3.95282 13.5767 3.88603Z" stroke="#362140"/>
<path d="M7.58572 7.10343C7.31184 5.73226 6.35693 4.5724 5.08458 4.37769C5.05407 4.03496 5.01697 3.69625 4.97764 3.39485C4.92325 2.97801 4.86035 2.59771 4.79735 2.38339L4.79746 2.38336L4.79434 2.3735C4.70043 2.07684 4.46867 1.91382 4.26053 1.84095C4.05855 1.77023 3.84302 1.7673 3.65933 1.8017C3.4822 1.83488 3.26621 1.91607 3.10515 2.08542C3.01985 2.1751 2.94336 2.2976 2.91372 2.45165C2.88354 2.60853 2.90921 2.76092 2.96957 2.89428L2.96952 2.8943L2.97283 2.90133C3.11162 3.19568 3.35229 3.88533 3.56412 4.61649C2.67436 5.06667 2.03547 6.00407 1.82366 7.08995C1.73751 7.49174 1.56767 7.8593 1.31785 8.16959L1.31773 8.16949L1.31004 8.17955C0.812103 8.83112 0.5 9.63998 0.5 10.5294C0.5 12.7503 2.40467 14.4999 4.70499 14.4999C6.98694 14.4999 8.90997 12.7518 8.90997 10.5294C8.90997 9.63998 8.59787 8.83112 8.09993 8.17955L8.10006 8.17945L8.09212 8.16959C7.8417 7.85856 7.67167 7.49002 7.58572 7.10343Z" stroke="#362140"/>
<path d="M8.01953 2.94403L8.01959 2.94407L8.02461 2.93676C8.42649 2.35079 8.43367 1.65118 8.39666 1.25165C8.35129 0.71053 7.82328 0.379326 7.32342 0.54129C6.95611 0.660303 6.2882 0.915035 5.88396 1.52339C5.48396 2.10934 5.47733 2.8079 5.51441 3.20641C5.56217 3.74679 6.1041 4.05566 6.58753 3.89902C6.96499 3.77672 7.61912 3.50624 8.01953 2.94403Z" stroke="#362140"/>
</svg>
