<svg width="36" height="44" viewBox="0 0 36 44" fill="none" xmlns="http://www.w3.org/2000/svg">
<path d="M0.500183 17.5913V17.589C0.500183 8.18267 8.34064 0.5 18 0.5C27.6592 0.5 35.4998 8.18247 35.4998 17.6L35.4998 17.6023C35.5315 24.4863 31.147 30.9642 26.6589 35.7718C24.4248 38.1649 22.1871 40.1208 20.5073 41.4785C19.6678 42.1571 18.9687 42.6855 18.4804 43.0435C18.2845 43.1872 18.1226 43.3034 17.9992 43.3909C16.8911 42.6148 12.9515 39.7637 9.08581 35.5935C4.687 30.8482 0.468454 24.485 0.500183 17.5913Z" fill="white" stroke="#CAC4CD"/>
<path d="M24.2491 23.1382V22.6382H23.7491H12H11.5V23.1382V25V25.5H12H23.7491H24.2491V25V23.1382Z" stroke="#362140"/>
<path d="M18.3875 9.57976L18.1226 9.409L17.8543 9.57431L11.7377 13.3427L11.5 13.4892V13.7684V14.8765V15.3765H12H23.9621H24.4621V14.8765V13.7684V13.4958L24.233 13.3482L18.3875 9.57976Z" stroke="#362140"/>
<path d="M13.0558 20.671H12.7207V21.171V21.8247V22.3247H13.2207H13.5558H15.4114H15.7466H16.2466V21.8247V21.171V20.671H15.9114V17.2849H16.2466V16.7849V16.1311V15.6311H15.7466H15.4114H13.5558H13.2207H12.7207V16.1311V16.7849V17.2849H13.0558V20.671Z" stroke="#362140"/>
<path d="M16.5205 20.671H16.1855V21.171V21.8247V22.3247H16.6855H17.0205H18.8763H19.2114H19.7114V21.8247V21.171V20.671H19.3763V17.2849H19.7114V16.7849V16.1311V15.6311H19.2114H18.8763H17.0205H16.6855H16.1855V16.1311V16.7849V17.2849H16.5205V20.671Z" stroke="#362140"/>
<path d="M19.9855 20.671H19.6504V21.171V21.8247V22.3247H20.1504H20.4855H22.3413H22.6764H23.1764V21.8247V21.171V20.671H22.8413V17.2849H23.1764V16.7849V16.1311V15.6311H22.6764H22.3413H20.4855H20.1504H19.6504V16.1311V16.7849V17.2849H19.9855V20.671Z" stroke="#362140"/>
</svg>
