<svg width="19" height="24" viewBox="0 0 19 24" fill="none" xmlns="http://www.w3.org/2000/svg">
<path d="M7.47208 1.16454L7.47211 1.16452L7.70574 0.962174C7.70575 0.962166 7.70576 0.962158 7.70577 0.96215C8.37559 0.381958 9.4343 0.301294 10.0549 0.988756L7.47208 1.16454ZM7.47208 1.16454C6.79931 1.74732 6.58151 2.78379 7.20983 3.48028L7.20998 3.48045L7.21284 3.48362C7.01419 3.58391 6.82963 3.72227 6.67116 3.89581C6.67113 3.89584 6.6711 3.89588 6.67107 3.89591L6.46315 4.12352L7.47208 1.16454ZM13.05 4.30624L10.0549 0.988802L13.7186 5.29598C13.5529 4.90666 13.3201 4.56995 13.05 4.30624ZM17.0213 13.0504L13.7186 5.2961L6.46314 4.12353C5.8624 4.78113 5.7713 5.83541 6.47629 6.45356L6.47633 6.45359L9.515 9.11736L9.99053 9.94664L7.8932 9.14047C7.76729 9.08029 7.63469 9.02876 7.49498 8.98758L7.43674 8.96513C7.12758 8.84045 6.81372 8.81472 6.51254 8.86149C6.09328 8.87496 5.66247 8.96897 5.27817 9.16465L5.27803 9.16472L2.08007 10.7944C1.57121 11.0537 1.19684 11.4656 1.08876 11.9719C0.991607 12.4269 1.12753 12.876 1.44143 13.2375C1.42038 13.2418 1.39943 13.2464 1.37862 13.2513C1.2056 13.292 1.00326 13.3623 0.833738 13.497C0.647021 13.6454 0.509083 13.8675 0.500425 14.1523C0.492596 14.4098 0.592917 14.6554 0.731149 14.8767C0.997779 15.3035 1.52349 15.8243 2.36646 16.4802L3.35818 18.1544L3.36755 18.1703L3.37806 18.1854C3.48035 18.3323 3.60397 18.4558 3.73748 18.5591C3.77194 18.6123 3.81048 18.6653 3.85332 18.7183L3.88485 18.7573L3.92351 18.7893L8.11698 22.2567L8.11692 22.2568L8.12466 22.263C10.0099 23.76 12.1718 23.7658 13.9362 22.9823C15.6785 22.2086 17.0815 20.6456 17.4867 18.9229L17.5034 18.852L17.4991 18.7793L17.2164 13.9361C17.2212 13.6561 17.154 13.3618 17.0213 13.0504C17.0213 13.0504 17.0213 13.0504 17.0213 13.0504ZM5.06186 13.9779C4.9733 13.9015 4.87301 13.8193 4.73267 13.739C4.7413 13.7347 4.74991 13.7304 4.75849 13.726L6.28796 12.9467L9.22469 14.0795L8.37384 16.229C8.1202 16.224 7.85662 16.1553 7.56503 16.0585C7.5045 16.0384 7.43804 16.0154 7.36923 15.9916C7.2374 15.9459 7.09695 15.8973 6.97307 15.8604C6.85333 15.8246 6.72113 15.7905 6.58283 15.7707L5.46561 14.323L5.421 14.2652L5.36171 14.2225C5.25543 14.1461 5.18531 14.0851 5.10852 14.0183C5.09334 14.0051 5.0779 13.9917 5.06186 13.9779Z" stroke="#CBD3E0"/>
</svg>
