<svg width="24" height="24" viewBox="0 0 24 24" fill="none" xmlns="http://www.w3.org/2000/svg">
<path d="M20.3991 3.75195V3.02595C20.3991 1.9125 19.4932 1.00659 18.3798 1.00659H17.5389H3.01936C1.90591 1.00659 1 1.9125 1 3.02595V6.09764C1 7.13408 1.7854 7.98988 2.79227 8.10306V15.6911C2.79227 16.7992 3.62973 17.7217 4.69869 17.7909C4.74269 17.7936 4.78669 17.795 4.8302 17.795C5.51293 17.795 6.15827 17.4521 6.53764 16.8791C6.57382 16.8243 6.62833 16.8185 6.65009 16.8185C6.67624 16.8185 6.72489 16.8261 6.75838 16.8767C7.138 17.4516 7.77551 17.795 8.46362 17.795C8.73544 17.795 8.9992 17.7373 9.24584 17.6347V21.7149C9.24584 22.3488 9.76162 22.8643 10.3952 22.8643H12.0687C12.7025 22.8643 13.2181 22.3488 13.2181 21.7149V17.51C13.4918 17.3387 13.6485 17.1045 13.7986 16.8769C13.8321 16.8263 13.881 16.8187 13.9072 16.8187C13.9289 16.8187 13.9834 16.8246 14.0196 16.8796C14.399 17.4523 15.0443 17.7953 15.727 17.7953C15.7708 17.7953 15.8148 17.7938 15.8588 17.7911C16.9278 17.7217 17.7652 16.7994 17.7652 15.6913V10.9019H19.6511C21.4979 10.9019 23 9.39984 23 7.55355V7.0143C23 5.4237 21.9147 4.07804 20.3991 3.75195ZM18.3798 8.11675C19.4932 8.11675 20.3991 7.21108 20.3991 6.09764V5.65201C20.8922 5.92115 21.2087 6.43497 21.2087 7.0143V7.55355C21.2087 8.41204 20.5103 9.11041 19.6518 9.11041H17.766V8.1165H18.3798V8.11675ZM17.3035 1.46077C17.1866 3.06506 15.8441 4.3347 14.2108 4.3347H6.34747C4.71409 4.3347 3.3716 3.06506 3.25476 1.46077H17.3035ZM1.45418 6.09764V3.02595C1.45418 2.2359 2.04304 1.5825 2.80473 1.47739C2.93087 3.32393 4.4694 4.78888 6.34747 4.78888H14.211C16.0947 4.78888 17.6364 3.31513 17.7545 1.46077H18.38C19.2431 1.46077 19.9452 2.16281 19.9452 3.02595V6.09764C19.9452 6.96053 19.2431 7.66257 18.38 7.66257H3.01936C2.15622 7.66257 1.45418 6.96053 1.45418 6.09764ZM8.46411 17.3409C7.92902 17.3409 7.43329 17.0739 7.13776 16.6266C7.02947 16.4626 6.8476 16.3645 6.65082 16.3643C6.65058 16.3643 6.65058 16.3643 6.65033 16.3643C6.45233 16.3643 6.26876 16.4631 6.15924 16.6283C5.84513 17.1025 5.29807 17.3756 4.72802 17.3374C3.89716 17.2837 3.24644 16.5603 3.24644 15.6909V8.11675H17.3118V9.11066H13.1191C11.5849 9.11066 10.3368 10.3588 10.3368 11.8927V12.4512C9.73082 12.4828 9.24633 12.9812 9.24633 13.5947V17.1304C9.00824 17.2661 8.74131 17.3409 8.46411 17.3409ZM12.7646 21.7149C12.7646 22.0982 12.4527 22.4101 12.0694 22.4101H10.396C10.0124 22.4101 9.70076 22.0982 9.70076 21.7149V13.5947C9.70076 13.2115 10.0127 12.8993 10.396 12.8993H12.0694C12.4527 12.8993 12.7646 13.2112 12.7646 13.5947V21.7149ZM17.3118 15.6911C17.3118 16.5606 16.6608 17.2839 15.8302 17.3377C15.2604 17.3743 14.7131 17.1028 14.3992 16.6288C14.2897 16.4633 14.1061 16.3645 13.9081 16.3645H13.9079C13.7111 16.3645 13.529 16.4626 13.4207 16.6268C13.3476 16.7376 13.2843 16.8283 13.219 16.9072V13.595C13.219 12.9814 12.7343 12.4828 12.1286 12.4515V11.8929C12.1286 11.3466 12.573 10.9022 13.1193 10.9022H17.3118V15.6911ZM22.5458 7.55355C22.5458 9.14953 21.2476 10.4478 19.6516 10.4478H17.5394C17.5391 10.4478 17.5391 10.4478 17.5389 10.4478C17.5386 10.4478 17.5386 10.4478 17.5384 10.4478H13.1191C12.3222 10.4478 11.6742 11.096 11.6742 11.8927V12.4454H10.791V11.8927C10.791 10.6091 11.8352 9.56484 13.1191 9.56484H17.5384C17.5386 9.56484 17.5386 9.56484 17.5389 9.56484C17.5391 9.56484 17.5391 9.56484 17.5394 9.56484H19.6516C20.7604 9.56484 21.6626 8.66259 21.6626 7.55379V7.01455C21.6626 6.18417 21.1591 5.45915 20.3991 5.15433V4.2159C21.6558 4.53221 22.5458 5.67304 22.5458 7.01455V7.55355Z" fill="#CBD3E0" stroke="#CBD3E0" stroke-width="0.4"/>
</svg>
