<svg width="53" height="64" viewBox="0 0 53 64" fill="none" xmlns="http://www.w3.org/2000/svg">
<path d="M26.7334 0.600098C12.508 0.600098 0.933612 11.9174 0.933612 25.811C0.840088 46.1342 25.753 62.9856 26.7334 63.6668C26.7334 63.6668 52.6266 46.1342 52.5331 25.8268C52.5331 11.9174 40.9587 0.600098 26.7334 0.600098Z" fill="white"/>
<path d="M33.9903 30.7056C34.0434 30.7596 34.0932 30.8079 34.1389 30.8506V39.5986C34.1389 40.6185 34.9704 41.45 35.9903 41.45C37.0102 41.45 37.8417 40.6185 37.8417 39.5986V14.2801C37.8417 13.9605 37.7596 13.6619 37.5799 13.4114C37.4035 13.1654 37.1716 13.0196 36.961 12.9338C36.5884 12.782 36.1836 12.7829 36.0125 12.7833C36.0046 12.7833 35.9972 12.7833 35.9903 12.7833C35.1671 12.7833 34.5475 13.406 34.1191 14.0522C33.6631 14.7398 33.2679 15.6827 32.9422 16.7682C32.2881 18.9484 31.8694 21.8558 31.8694 24.8472C31.8694 27.0107 32.4789 28.5591 33.1121 29.5782C33.4271 30.0851 33.745 30.4565 33.9903 30.7056Z" stroke="#362140" stroke-width="1.43333"/>
<path d="M29.182 12.7833H29.0075H28.3931H28.331H27.7636H27.7014H27.0871H26.9125H26.3452H25.7712L25.6458 13.3434L26.1958 13.4666C25.6458 13.3434 25.6458 13.3435 25.6458 13.3435L25.6457 13.3438L25.6455 13.3449L25.6445 13.3492L25.6408 13.3657L25.6265 13.4301L25.5722 13.675C25.5255 13.8865 25.4589 14.1902 25.3789 14.5591C25.2189 15.2967 25.0055 16.2961 24.792 17.3424C24.5786 18.3878 24.3643 19.4843 24.2029 20.4146C24.0461 21.3191 23.9264 22.1353 23.9264 22.5778C23.9264 24.1834 24.8537 25.5765 26.1959 26.2546V39.5986C26.1959 40.6185 27.0274 41.45 28.0473 41.45C29.0672 41.45 29.8987 40.6185 29.8987 39.5986V26.255C31.2397 25.5796 32.1681 24.1975 32.1681 22.5778C32.1681 22.132 32.0486 21.3143 31.8916 20.4087C31.7303 19.4776 31.5159 18.3815 31.3026 17.337C31.089 16.2915 30.8756 15.2934 30.7156 14.5569C30.6356 14.1885 30.569 13.8854 30.5222 13.6742L30.468 13.4297L30.4536 13.3654L30.4499 13.3489L30.449 13.3446L30.4487 13.3436L30.4487 13.3433C30.4487 13.3432 30.4486 13.3432 29.8987 13.4665L30.4486 13.3431L30.3231 12.7833H29.7494H29.182Z" stroke="#362140" stroke-width="1.43333"/>
<path d="M20.1042 12.7838C19.3264 12.7838 18.6957 13.2526 18.2253 13.8261C17.7474 14.4087 17.3466 15.2006 17.0234 16.0934C16.3749 17.8851 15.9833 20.2388 15.9833 22.5783C15.9833 24.1839 16.9106 25.577 18.2528 26.2551V39.5991C18.2528 40.619 19.0843 41.4505 20.1042 41.4505C21.1241 41.4505 21.9556 40.619 21.9556 39.5991V26.2555C23.2966 25.5801 24.225 24.198 24.225 22.5783C24.225 20.2388 23.8335 17.8851 23.1849 16.0934C22.8617 15.2006 22.461 14.4087 21.983 13.8261C21.5126 13.2526 20.8819 12.7838 20.1042 12.7838Z" stroke="#362140" stroke-width="1.43333"/>
</svg>
