<svg width="39" height="16" viewBox="0 0 39 16" fill="none" xmlns="http://www.w3.org/2000/svg">
<path d="M37.5884 1.00034C37.5753 1.00381 37.5624 1.00808 37.5499 1.01314C37.5227 1.02252 37.4968 1.03545 37.473 1.05158C37.4508 1.05785 37.4293 1.06645 37.4089 1.07723C37.4089 1.07723 37.3855 1.08834 37.3832 1.09002C37.3649 1.10114 37.3477 1.11404 37.3319 1.12849C37.3229 1.13656 37.3143 1.14513 37.3063 1.15414C37.2074 1.22528 37.044 1.33577 36.8062 1.47472C36.4641 1.67461 36.02 1.85733 35.8316 1.85941C35.6369 1.86147 35.4145 1.71976 35.1263 1.51319C34.8382 1.30662 34.4935 1.03583 34.0235 1.03873C33.5525 1.04119 33.2082 1.31551 32.9207 1.52601C32.6333 1.73652 32.4003 1.88385 32.2027 1.88506C31.9954 1.88629 31.7543 1.73603 31.4589 1.52601C31.1635 1.31599 30.8179 1.0464 30.3433 1.03873C29.8667 1.03118 29.5085 1.28582 29.202 1.48754C28.8956 1.68927 28.6355 1.83696 28.4198 1.83377C28.2277 1.8309 28.0081 1.68505 27.7274 1.48754C27.4466 1.29004 27.1053 1.04179 26.6502 1.03873C26.1733 1.03545 25.823 1.29374 25.5218 1.50037C25.2206 1.70699 24.9759 1.86146 24.7652 1.85941C24.5736 1.85736 24.345 1.7074 24.0599 1.50037C23.7749 1.29333 23.4255 1.02835 22.9571 1.03873C22.5134 1.04858 22.1981 1.31028 21.9441 1.51319C21.6901 1.71609 21.493 1.86464 21.3286 1.87224C21.0917 1.88315 20.8258 1.72713 20.4951 1.51319C20.1644 1.29925 19.768 1.02455 19.2641 1.03873C18.8106 1.05162 18.4884 1.31234 18.2126 1.51319C17.9368 1.71404 17.7093 1.85582 17.5201 1.85941C17.3039 1.86356 17.0603 1.70962 16.7507 1.50037C16.4412 1.29111 16.0698 1.02509 15.5838 1.03873C15.1206 1.05182 14.795 1.32737 14.5195 1.53884C14.244 1.7503 14.0148 1.89448 13.8271 1.89788C13.613 1.90199 13.364 1.74389 13.0577 1.52601C12.7514 1.30814 12.3939 1.03354 11.9036 1.03873C11.4346 1.04374 11.0904 1.31473 10.8008 1.52601C10.5111 1.73729 10.2642 1.88713 10.057 1.89788C9.83562 1.90937 9.35309 1.75887 8.96708 1.59013C8.58107 1.42138 8.28745 1.25673 8.28745 1.25673C8.23384 1.22261 8.17147 1.2048 8.10793 1.20543C8.07053 1.19434 8.03145 1.18999 7.99252 1.19261C7.93945 1.19749 7.88837 1.21523 7.84369 1.24428C7.79901 1.27332 7.76207 1.3128 7.73606 1.35931L1.23471 11.9C1.19344 11.9126 1.15505 11.9332 1.12175 11.9606C1.08845 11.9881 1.06089 12.0218 1.04064 12.0599C1.02039 12.098 1.00786 12.1398 1.00376 12.1827C0.999651 12.2257 1.00406 12.269 1.01672 12.3103C1.00832 12.3395 1.004 12.3697 1.0039 12.4V13.9773C0.995878 14.0289 1.00027 14.0816 1.01672 14.1312C1.00363 14.1932 1.00877 14.2577 1.03152 14.3168C1.05428 14.376 1.09367 14.4273 1.14495 14.4646C1.14495 14.4646 1.45198 14.687 1.85023 14.9134C2.24847 15.1397 2.72855 15.3897 3.20948 15.3879C3.68384 15.3837 4.024 15.1148 4.31227 14.9006C4.60055 14.6864 4.83129 14.5308 5.03037 14.5287C5.24513 14.5246 5.49294 14.6823 5.79976 14.9006C6.10658 15.1188 6.4758 15.3969 6.96667 15.3879C7.43074 15.3792 7.76764 15.1126 8.04381 14.9006C8.31998 14.6886 8.53494 14.534 8.72344 14.5287C8.93891 14.5225 9.1967 14.6789 9.50565 14.8877C9.81461 15.0966 10.1744 15.3587 10.6597 15.3494C11.1141 15.3407 11.4476 15.0762 11.7241 14.8749C12.0005 14.6736 12.2266 14.5341 12.4165 14.5287C12.655 14.5221 12.9309 14.6858 13.2628 14.9006C13.5948 15.1153 13.976 15.3854 14.481 15.3622C14.9226 15.3417 15.2288 15.0638 15.4812 14.8621C15.7337 14.6604 15.9341 14.5323 16.0968 14.5287C16.2859 14.5246 16.5063 14.6695 16.7892 14.8749C17.0721 15.0804 17.4133 15.3447 17.8792 15.3494C18.3563 15.3539 18.7191 15.0945 19.0204 14.8877C19.3218 14.681 19.566 14.5272 19.777 14.5287C19.9685 14.5287 20.1893 14.6649 20.4695 14.8621C20.7497 15.0592 21.0794 15.317 21.5338 15.3237C22.0103 15.3307 22.3815 15.0766 22.6879 14.8749C22.9942 14.6732 23.2416 14.5253 23.4573 14.5287C23.6662 14.5328 23.9042 14.6895 24.201 14.9006C24.4978 15.1116 24.853 15.3774 25.3294 15.375C25.8004 15.3709 26.1448 15.0982 26.4322 14.8877C26.7196 14.6773 26.9527 14.5298 27.1503 14.5287C27.3472 14.5287 27.5805 14.6698 27.8684 14.8749C28.1563 15.08 28.5039 15.3471 28.9712 15.3494C29.4452 15.3535 29.9176 15.1161 30.3176 14.9006C30.7177 14.6851 31.0229 14.4774 31.0229 14.4774C31.0319 14.4694 31.0405 14.4609 31.0486 14.4519C31.053 14.4478 31.0572 14.4436 31.0614 14.4392C31.0699 14.4396 31.0785 14.4396 31.087 14.4392C31.1522 14.41 31.2062 14.3605 31.2409 14.2982L38.0115 3.3472C38.0372 3.31025 38.055 3.26842 38.0638 3.2243C38.0727 3.18019 38.0723 3.13472 38.0628 3.09074C38.0739 3.05333 38.0783 3.01425 38.0756 2.97533L37.8961 1.50067C37.9262 1.45167 37.943 1.39562 37.9446 1.33812C37.9463 1.28063 37.9328 1.22369 37.9055 1.17305C37.8782 1.12241 37.8381 1.07982 37.7892 1.04955C37.7403 1.01928 37.6843 1.00238 37.6268 1.00056C37.614 0.999812 37.6012 0.999812 37.5884 1.00056L37.5884 1.00034ZM11.9036 1.69279C12.1183 1.69033 12.379 1.84641 12.6858 2.06466C12.9926 2.28291 13.349 2.56097 13.8399 2.55194C14.0456 2.54825 14.2169 2.48892 14.3784 2.41089C13.9085 3.1315 13.12 4.3394 11.8394 6.32195C11.0312 7.57332 10.2226 8.8419 9.5954 9.8355C9.2818 10.3323 9.00937 10.7685 8.81318 11.0922C8.71509 11.254 8.64328 11.3825 8.58237 11.4897C8.52146 11.5968 8.47468 11.6571 8.44131 11.7461C8.42042 11.8036 8.41598 11.8658 8.42849 11.9256C8.10659 12.0133 7.84886 12.222 7.63345 12.3873C7.35794 12.5987 7.14157 12.7429 6.95382 12.7463C6.73972 12.7504 6.49072 12.5924 6.18443 12.3745C5.92219 12.1879 5.62407 11.9585 5.23552 11.9C5.29068 11.8042 5.36274 11.6907 5.45351 11.541C5.64742 11.2212 5.90809 10.7829 6.2229 10.2843C6.85253 9.28711 7.67887 8.01747 8.4926 6.75794C10.1201 4.23884 11.7112 1.78255 11.7112 1.78255C11.7212 1.76623 11.7298 1.74907 11.7369 1.73126C11.7413 1.72711 11.7455 1.72284 11.7497 1.71846C11.8042 1.70106 11.8525 1.69335 11.9036 1.69281V1.69279ZM15.6223 1.69279C15.8327 1.69763 16.0815 1.83802 16.3788 2.03901C16.6878 2.24785 17.0476 2.5228 17.5329 2.51347C17.8625 2.50723 18.1269 2.35944 18.3536 2.20572C17.9748 2.78224 17.0084 4.25357 15.6479 6.36042C14.8457 7.60274 14.0392 8.86188 13.4167 9.84829C13.1054 10.3415 12.842 10.7709 12.6473 11.0922C12.5499 11.2528 12.477 11.3833 12.4165 11.4897C12.356 11.5961 12.3087 11.6573 12.2754 11.7461C12.259 11.7957 12.2546 11.8484 12.2626 11.9C11.875 11.9521 11.5886 12.1801 11.3393 12.3616C11.0636 12.5625 10.836 12.7042 10.6469 12.7079C10.4307 12.712 10.1743 12.5581 9.86468 12.3488C9.63955 12.1966 9.38957 12.0213 9.08247 11.9385C9.09342 11.9176 9.10439 11.8845 9.14658 11.8103C9.20232 11.7122 9.28118 11.5843 9.3774 11.4256C9.56984 11.1081 9.83435 10.6895 10.1468 10.1945C10.7717 9.2046 11.5832 7.93138 12.3908 6.681C14.0061 4.18024 15.5966 1.74408 15.5966 1.74408C15.6067 1.72776 15.6152 1.7106 15.6223 1.69279ZM30.3433 1.69279C30.5494 1.70165 30.7829 1.85757 31.0742 2.06466C31.371 2.27572 31.7262 2.54156 32.2026 2.53912C32.5307 2.53707 32.7945 2.40902 33.0233 2.25701C32.5926 2.91574 31.711 4.2514 30.3817 6.30913C29.5705 7.56495 28.7544 8.83837 28.1249 9.8355C27.8101 10.3341 27.5396 10.7546 27.3426 11.0793C27.2442 11.2417 27.1601 11.3821 27.099 11.4897C27.0379 11.5972 27.0042 11.657 26.9708 11.7461C26.9543 11.7957 26.95 11.8484 26.958 11.9C26.9571 11.9002 26.9589 11.9127 26.958 11.9127C26.5856 11.977 26.2932 12.1945 26.0475 12.3744C25.7601 12.5849 25.527 12.7322 25.3294 12.7334C25.1222 12.7334 24.8811 12.5844 24.5857 12.3744C24.3669 12.2188 24.1221 12.0287 23.8163 11.9384C23.8243 11.924 23.8201 11.9285 23.8291 11.9129C23.885 11.8147 23.9635 11.6745 24.0599 11.5154C24.2527 11.1974 24.5163 10.7675 24.8293 10.2716C25.4554 9.27976 26.277 8.01078 27.0862 6.75804C28.7046 4.25256 30.292 1.82112 30.292 1.82112C30.318 1.7825 30.3355 1.73879 30.3433 1.69289V1.69279ZM19.4308 1.70559C19.6374 1.7477 19.8646 1.88903 20.136 2.06464C20.468 2.27939 20.8492 2.5495 21.3542 2.52627C21.575 2.51605 21.768 2.44401 21.9313 2.34674C21.514 2.98812 20.6334 4.35104 19.3025 6.41169C18.4958 7.66076 17.6845 8.92063 17.0585 9.91238C16.7455 10.4083 16.4721 10.846 16.2763 11.1691C16.1784 11.3306 16.1062 11.4596 16.0454 11.5666C15.9846 11.6736 15.9377 11.7341 15.9044 11.8231C15.8916 11.8516 15.883 11.8818 15.8787 11.9128C15.5388 11.982 15.2843 12.1911 15.0709 12.3616C14.8169 12.5645 14.6198 12.7002 14.4554 12.7078C14.2185 12.7189 13.9397 12.5756 13.609 12.3616C13.3975 12.2247 13.1635 12.072 12.8909 11.9769C12.8843 11.9946 12.9254 11.9075 12.9807 11.8102C13.036 11.7129 13.116 11.5831 13.2115 11.4255C13.4025 11.1104 13.6708 10.6987 13.9809 10.2073C14.6011 9.22458 15.3978 7.96076 16.1993 6.71944C17.8025 4.23677 19.3795 1.821 19.3795 1.821C19.4039 1.78621 19.4213 1.74701 19.4308 1.70559ZM26.7015 1.70559C26.8815 1.72697 27.0861 1.84571 27.3426 2.02617C27.6228 2.22327 27.9654 2.48107 28.4198 2.4878C28.7418 2.49256 29.006 2.38114 29.2405 2.24416C28.8521 2.84243 27.8995 4.29896 26.5348 6.41169C25.725 7.66544 24.9063 8.92975 24.2779 9.92523C23.9637 10.423 23.6923 10.8577 23.4957 11.1819C23.3974 11.344 23.3131 11.4721 23.2521 11.5794C23.191 11.6868 23.1572 11.7467 23.1238 11.8359C23.1098 11.8684 23.1011 11.9031 23.0982 11.9384C22.8004 12.0213 22.5487 12.1912 22.3288 12.336C22.0223 12.5377 21.7623 12.6854 21.5466 12.6822C21.3545 12.6781 21.1349 12.5335 20.8541 12.336C20.6529 12.1944 20.4191 12.0232 20.136 11.9384C20.1929 11.8408 20.2752 11.7178 20.3669 11.5666C20.5622 11.2445 20.8319 10.8121 21.1491 10.3099C21.7833 9.30566 22.5991 8.02637 23.4188 6.75791C25.0581 4.221 26.6758 1.74406 26.6758 1.74406C26.6853 1.73186 26.6939 1.71901 26.7015 1.70561V1.70559ZM23.0982 1.71838C23.2591 1.75802 23.4388 1.86371 23.6624 2.02614C23.9453 2.23161 24.2865 2.50873 24.7524 2.51342C25.069 2.5167 25.3289 2.39392 25.5602 2.25696C25.1359 2.90732 24.223 4.30096 22.8674 6.39884C22.047 7.6683 21.2214 8.95572 20.5848 9.96368C20.2666 10.4677 20.0017 10.8921 19.8026 11.2203C19.7031 11.3845 19.6208 11.522 19.559 11.6307C19.4972 11.7393 19.4643 11.8104 19.4308 11.9C19.4257 11.9125 19.4214 11.9254 19.4179 11.9385C19.117 12.0228 18.8676 12.1986 18.6485 12.3489C18.3474 12.5555 18.1027 12.7099 17.892 12.7079C17.7004 12.7079 17.4589 12.5559 17.1739 12.3489C16.9952 12.219 16.7974 12.0702 16.5584 11.977C16.5746 11.9454 16.5793 11.9405 16.6097 11.8872C16.6653 11.7893 16.7444 11.661 16.8405 11.5025C17.0326 11.1857 17.298 10.7656 17.6099 10.2715C18.2336 9.28341 19.0478 8.0189 19.8539 6.77081C21.4661 4.27464 23.0469 1.84672 23.0469 1.84672C23.0729 1.80809 23.0904 1.76438 23.0982 1.71849V1.71838ZM34.1517 1.71838C34.3196 1.76177 34.5136 1.87548 34.7416 2.03896C35.0301 2.24577 35.374 2.5186 35.8444 2.51342C36.152 2.51014 36.4507 2.39481 36.7292 2.25696L30.6767 11.9256C30.6679 11.9295 30.6594 11.9337 30.651 11.9383C30.651 11.9383 30.3609 12.1398 29.997 12.3359C29.6332 12.5319 29.1775 12.7089 28.9712 12.7077C28.7734 12.7077 28.5418 12.5543 28.2531 12.3487C28.0625 12.2129 27.8455 12.0555 27.5863 11.964C27.5853 11.9693 27.6234 11.9027 27.6761 11.8101C27.732 11.7117 27.8103 11.5847 27.9069 11.4254C28.1 11.1068 28.3627 10.6783 28.6763 10.1816C29.3034 9.1881 30.1226 7.91004 30.9331 6.6552C32.5543 4.14553 34.1517 1.71828 34.1517 1.71828V1.71838ZM8.14638 1.93638C8.28459 2.0081 8.47613 2.09035 8.7106 2.19284C9.13188 2.37701 9.62525 2.57629 10.0955 2.55189C10.2476 2.54401 10.3783 2.4986 10.5058 2.44931C10.0343 3.17224 9.23407 4.39767 7.94121 6.39884C7.12682 7.6594 6.30345 8.93717 5.67151 9.93803C5.35554 10.4385 5.08695 10.8687 4.88929 11.1947C4.79047 11.3577 4.70701 11.4971 4.64565 11.605C4.5843 11.713 4.5509 11.7722 4.51742 11.8615C4.50099 11.9111 4.49659 11.9638 4.5046 12.0154C4.2863 12.1141 4.0946 12.2503 3.92756 12.3744C3.6436 12.5855 3.40634 12.741 3.20946 12.7463C3.20725 12.7463 3.19892 12.7463 3.19664 12.7463C2.99055 12.7422 2.54086 12.5646 2.18361 12.3616C2.04927 12.2853 1.93902 12.2221 1.83738 12.1564L8.14638 1.93638ZM37.3575 2.5006L37.4217 3.03917L31.1896 13.1182V12.4642C31.1895 12.4338 31.1852 12.4036 31.1768 12.3744L37.3575 2.5006ZM5.03035 12.5411C5.24511 12.537 5.49292 12.6947 5.79974 12.913C6.02986 13.0766 6.29511 13.2772 6.62042 13.3618V14.6313C6.49 14.5648 6.3422 14.4742 6.18443 14.362C5.87815 14.1441 5.52065 13.8696 5.03035 13.8747C4.55637 13.8796 4.21553 14.1608 3.92756 14.3748C3.70312 14.5416 3.50693 14.6609 3.33769 14.7082V13.3874C3.74369 13.3403 4.05174 13.1066 4.31225 12.913C4.60053 12.6988 4.83127 12.5432 5.03035 12.5411ZM8.72342 12.5411C8.93889 12.535 9.19668 12.6785 9.50563 12.8874C9.75492 13.0559 10.0357 13.2656 10.3904 13.3361V14.6441C10.2334 14.5821 10.0613 14.4692 9.86468 14.3364C9.55511 14.1271 9.19652 13.8611 8.7106 13.8747C8.24742 13.8878 7.90896 14.1633 7.63345 14.3748C7.50114 14.4764 7.38282 14.5561 7.2744 14.6185V13.349C7.5835 13.2584 7.83396 13.0612 8.04379 12.9002C8.31996 12.6882 8.53492 12.5464 8.72342 12.5411ZM12.4165 12.5411C12.655 12.5345 12.9309 12.6982 13.2628 12.913C13.5205 13.0797 13.8085 13.2787 14.1604 13.349V14.6569C13.9948 14.5943 13.8112 14.4799 13.609 14.3491C13.2784 14.1352 12.8947 13.8605 12.3908 13.8747C11.9374 13.8874 11.6151 14.1483 11.3393 14.3491C11.2343 14.4256 11.136 14.4865 11.0444 14.5415V13.2977C11.3122 13.2037 11.5324 13.0269 11.724 12.8874C12.0005 12.6861 12.2266 12.5465 12.4165 12.5411ZM16.0967 12.5411C16.2857 12.537 16.5063 12.669 16.7892 12.8745C16.9921 13.0219 17.2198 13.2164 17.5073 13.3105V14.5543C17.4032 14.4939 17.2939 14.4235 17.1739 14.3364C16.8889 14.1293 16.5522 13.8645 16.0839 13.8747C15.6402 13.8846 15.3249 14.1462 15.0709 14.3491C14.9764 14.4247 14.8944 14.4856 14.8144 14.5415V13.3105C15.0856 13.2114 15.298 13.0209 15.4812 12.8745C15.7337 12.6728 15.9341 12.5447 16.0967 12.5411ZM19.777 12.5411C19.9685 12.5411 20.1892 12.6774 20.4694 12.8745C20.6914 13.0306 20.943 13.2332 21.2645 13.3105V14.5928C21.1427 14.5343 21.0065 14.4436 20.8541 14.3364C20.5734 14.1389 20.2321 13.8779 19.777 13.8747C19.3001 13.8706 18.9497 14.1425 18.6485 14.3491C18.4713 14.4707 18.3168 14.5707 18.1741 14.6313V13.3361C18.5101 13.2614 18.7848 13.0618 19.0204 12.9002C19.3218 12.6934 19.566 12.5397 19.777 12.5411ZM23.4572 12.5411C23.6662 12.5452 23.9041 12.7019 24.201 12.913C24.4378 13.0814 24.7171 13.2877 25.0601 13.3618V14.6569C24.9182 14.5938 24.7619 14.4873 24.5857 14.362C24.2903 14.152 23.9447 13.8824 23.4701 13.8747C22.9934 13.8673 22.6352 14.1218 22.3288 14.3235C22.181 14.4208 22.0449 14.5059 21.9185 14.5672V13.2849C22.2155 13.2009 22.4705 13.0304 22.6878 12.8874C22.9942 12.6857 23.2416 12.5377 23.4572 12.5411ZM27.1503 12.5411C27.3472 12.5411 27.5805 12.6823 27.8684 12.8874C28.101 13.0531 28.3726 13.2618 28.7147 13.3361V14.6185C28.5787 14.5544 28.4245 14.4585 28.2531 14.3364C27.9644 14.1307 27.6186 13.8718 27.1503 13.8747C26.6793 13.8788 26.3349 14.1515 26.0475 14.362C25.9315 14.447 25.8265 14.521 25.7269 14.58V13.3233C26.0047 13.2279 26.2326 13.0463 26.4322 12.9002C26.7196 12.6897 26.9527 12.5422 27.1503 12.5411ZM30.5356 12.7848V14.0157C30.4274 14.0836 30.2518 14.1863 29.997 14.3235C29.7972 14.4312 29.5674 14.5358 29.3687 14.6056V13.3105C29.7063 13.2312 30.0288 13.0686 30.3176 12.913C30.4048 12.8661 30.4597 12.8298 30.5356 12.7848ZM1.65786 12.8102C1.72576 12.8516 1.77415 12.8824 1.85021 12.9256C2.09742 13.0661 2.37999 13.2175 2.67089 13.3103V14.5926C2.50861 14.5262 2.33852 14.437 2.18361 14.3489C1.93588 14.2082 1.76505 14.0901 1.65786 14.0155C1.65861 14.0027 1.65861 13.9898 1.65786 13.977V12.8101V12.8102Z" fill="#CBD3E0" stroke="#CBD3E0" stroke-width="0.2"/>
</svg>
