<svg width="20" height="13" viewBox="0 0 20 13" fill="none" xmlns="http://www.w3.org/2000/svg">
<path d="M3.79202 4.37478C3.9788 5.90457 4.52721 7.20215 5.48055 8.3117C4.03902 8.54756 2.85297 9.11796 1.65924 10.2297L1.19032 10.6663L1.72791 11.015C3.01547 11.8502 4.65425 12.381 6.24252 12.2423L6.24274 12.2423C6.76682 12.1963 7.56554 12.0776 8.32402 11.8503C8.70361 11.7366 9.08589 11.592 9.42309 11.4082C9.58373 11.3206 9.74119 11.2204 9.88574 11.1052C10.0302 11.2203 10.1876 11.3206 10.3481 11.4081C10.6852 11.5919 11.0673 11.7366 11.4468 11.8503C12.2051 12.0776 13.0039 12.1963 13.5289 12.2423L13.5291 12.2423C15.1175 12.381 16.7543 11.8501 18.0434 11.0152L18.5816 10.6667L18.1123 10.2297C16.9167 9.11611 15.7301 8.54674 14.2874 8.31141C15.2402 7.2018 15.7874 5.9044 15.9757 4.3753L16.0541 3.73923L15.4181 3.81798C14.1463 3.97543 12.8755 4.43155 11.8268 5.21675C11.6395 3.92213 11.0791 2.71776 10.2779 1.69218L9.88391 1.18783L9.4899 1.69218C8.68869 2.71776 8.1283 3.92213 7.94101 5.21675C6.89231 4.43155 5.62148 3.97543 4.34977 3.81798L3.71443 3.73932L3.79202 4.37478Z" stroke="#362140"/>
</svg>
