<svg width="52" height="64" viewBox="0 0 52 64" fill="none" xmlns="http://www.w3.org/2000/svg">
<path d="M25.8 0.866699C11.5747 0.866699 0.000262656 12.184 0.000262656 26.0776C-0.0932614 46.4008 24.8196 63.2522 25.8 63.9334C25.8 63.9334 51.6933 46.4008 51.5998 26.0934C51.5998 12.184 40.0253 0.866699 25.8 0.866699Z" fill="white"/>
<path d="M34.1342 19.2318H21.6798V18.4432C21.6798 17.8404 21.1887 17.3502 20.5878 17.3502H17.5754V17.3502L17.5718 17.3502C17.2831 17.3517 17.0067 17.4672 16.8028 17.6716C16.5989 17.876 16.4841 18.1527 16.4833 18.4414H16.4833V18.4432V19.9485V20.6651H17.2H18.5016L20.169 28.4842L20.2465 29.2964V30.8136C20.2465 30.9089 20.2588 31.0014 20.2819 31.0897C20.207 31.1496 20.1352 31.2138 20.0667 31.2823L20.5735 31.789L20.0667 31.2823C19.5795 31.7695 19.3057 32.4304 19.3057 33.1195C19.3057 33.8086 19.5795 34.4695 20.0667 34.9567C20.554 35.444 21.2149 35.7177 21.904 35.7177C22.593 35.7177 23.2539 35.444 23.7412 34.9567C24.2285 34.4695 24.5022 33.8086 24.5022 33.1195C24.5022 32.6929 24.3973 32.2771 24.2017 31.9066H29.0365C28.8358 32.2704 28.7233 32.6805 28.7138 33.1033C28.7059 33.4493 28.7673 33.7934 28.8943 34.1153C29.0213 34.4373 29.2113 34.7306 29.4532 34.9782L29.9658 34.4772L29.4532 34.9782C29.6951 35.2257 29.9841 35.4223 30.303 35.5567C30.622 35.691 30.9646 35.7602 31.3107 35.7603C31.6568 35.7604 31.9994 35.6913 32.3185 35.5572C32.6375 35.423 32.9265 35.2265 33.1686 34.9791C33.4106 34.7317 33.6008 34.4384 33.7279 34.1166C33.8551 33.7947 33.9166 33.4506 33.909 33.1046C33.8996 32.6813 33.7872 32.2708 33.5862 31.9066H33.7579C34.363 31.9066 34.8509 31.4122 34.8509 30.8136V29.3563V28.6397H34.1342H25.7502L33.9689 26.2917L33.9839 26.2874L33.9987 26.2825C34.2381 26.2026 34.4476 26.0521 34.5996 25.8507L34.0276 25.4189L34.5996 25.8507C34.7516 25.6494 34.839 25.4067 34.8502 25.1546L34.8509 25.1387V25.1228V19.9485V19.2318H34.1342Z" stroke="#362140" stroke-width="1.43333"/>
</svg>
