<svg width="22" height="20" viewBox="0 0 22 20" fill="none" xmlns="http://www.w3.org/2000/svg">
<path d="M18.3099 9.17883C18.5927 9.10853 18.895 9.07143 19.2143 9.07143C20.5906 9.07143 21.5 10.1628 21.5 11.3936V11.4123L21.4986 11.431L21.4786 11.6974L21.4772 11.7157L21.4745 11.7338C21.4236 12.0751 21.3313 12.4178 21.1403 12.7199C20.9451 13.0287 20.6656 13.2657 20.2914 13.4245L20.0943 13.5195C20.0943 13.5248 20.0943 13.5304 20.0943 13.5364V14.9286C20.0943 15.73 19.8736 16.4767 19.4137 17.0329C19.0414 17.4832 18.5323 17.7833 17.9221 17.8876C17.8697 18.3139 17.5033 18.6429 17.0714 18.6429C16.6497 18.6429 16.2947 18.3422 16.2262 17.9286H5.77323C5.70312 18.3347 5.34648 18.6429 4.92857 18.6429C4.49299 18.6429 4.12861 18.3222 4.07755 17.8875C3.46906 17.7831 2.96448 17.4834 2.59685 17.0364C2.14316 16.4848 1.92857 15.7476 1.92857 14.965V13.5364C1.92857 13.5268 1.92857 13.5179 1.92856 13.5095L1.64387 13.373L1.6221 13.3626L1.60144 13.3501C1.02997 13.0048 0.642298 12.4282 0.533345 11.7729C0.513166 11.6541 0.5 11.5268 0.5 11.3936C0.5 10.1628 1.40938 9.07143 2.78571 9.07143C3.10822 9.07143 3.41062 9.111 3.69151 9.18427L3.0151 6.47053C3.01505 6.47034 3.01501 6.47015 3.01496 6.46996C2.60821 4.85176 3.2329 3.21931 4.19217 2.10274L4.57143 2.42857M18.3099 9.17883L18.9852 6.4695C19.3917 4.85118 18.7653 3.21906 17.8081 2.10305L17.808 2.10289C16.7969 0.925155 15.3002 0.5 13.8571 0.5H8.14286C6.70019 0.5 5.20229 0.924265 4.1918 2.10318L4.57143 2.42857M18.3099 9.17883L18.9849 6.47053L18.3099 9.17883ZM4.57143 2.42857C3.68714 3.45786 3.14286 4.92857 3.5 6.34857L4.57143 2.42857Z" stroke="#CBD3E0"/>
</svg>
