<svg width="22" height="22" viewBox="0 0 22 22" fill="none" xmlns="http://www.w3.org/2000/svg">
<path d="M11.4333 10.6V10.8071L11.5798 10.9536L14.6909 14.0647C14.8734 14.2472 14.8734 14.575 14.6909 14.7576C14.5928 14.8557 14.4793 14.9 14.3333 14.9C14.1874 14.9 14.0739 14.8557 13.9758 14.7576L10.4333 11.2151V5.42222C10.4333 5.14281 10.6539 4.92222 10.9333 4.92222C11.2127 4.92222 11.4333 5.14281 11.4333 5.42222V10.6ZM11 0.5C5.19052 0.5 0.5 5.19052 0.5 11C0.5 16.8095 5.19052 21.5 11 21.5C16.8095 21.5 21.5 16.8095 21.5 11C21.5 5.19052 16.8095 0.5 11 0.5Z" stroke="#CBD3E0"/>
</svg>
