<svg width="25" height="21" viewBox="0 0 25 21" fill="none" xmlns="http://www.w3.org/2000/svg">
<path d="M11.5358 7.52359V9.65014L10.1493 8.35141L10.144 8.34647L10.1386 8.34168C9.6371 7.89843 8.8535 7.87693 8.36536 8.44972L8.36535 8.4497L8.36231 8.45334L0.84791 17.442C0.593679 17.7077 0.452225 18.0859 0.51457 18.4865C0.612355 19.159 1.2378 19.6338 1.9203 19.5213L16.7028 17.2325L16.7139 17.2308L16.7249 17.2286C16.9752 17.1782 17.1996 17.0492 17.3883 16.8729L17.4012 16.8609L17.4132 16.8481C17.881 16.3451 17.8448 15.5688 17.3514 15.1045L17.3507 15.1039L13.999 11.9624V8.33387L14.4527 8.1389C14.6528 8.29878 14.8739 8.42874 15.1067 8.53022L15.1163 8.53441L15.1261 8.53819C15.7373 8.77462 16.4455 8.78772 17.0975 8.51352L17.0975 8.51354L17.1025 8.51135L22.9348 5.98226C22.9351 5.98213 22.9354 5.982 22.9357 5.98187C24.2417 5.42004 24.8546 3.87539 24.287 2.56479C23.7593 1.32852 22.3631 0.645873 21.0532 1.12936L21.0403 1.13411L21.0277 1.13957L15.0553 3.72498C15.0544 3.72534 15.0536 3.72569 15.0528 3.72605C14.3979 4.00231 13.914 4.53741 13.6761 5.15282C13.5786 5.3843 13.5213 5.62768 13.4979 5.87152L12.2982 6.38647C12.0329 6.48855 11.8448 6.68203 11.7264 6.87548C11.6075 7.06978 11.5358 7.30093 11.5358 7.52359Z" stroke="#CBD3E0"/>
</svg>
