<svg width="18" height="19" viewBox="0 0 18 19" fill="none" xmlns="http://www.w3.org/2000/svg">
<mask id="path-1-outside-1" maskUnits="userSpaceOnUse" x="0" y="0.0776367" width="10" height="8" fill="black">
<rect fill="white" y="0.0776367" width="10" height="8"/>
<path d="M4.66246 2.78398C5.20272 2.34961 6.92661 1.10057 6.92661 1.10057C6.96336 1.08328 7.00388 1.07556 7.0444 1.07811C7.08493 1.08067 7.12416 1.09342 7.15844 1.11518C7.19273 1.13694 7.22096 1.16701 7.24052 1.2026C7.26008 1.23818 7.27034 1.27813 7.27034 1.31874L8.17571 6.59441H3.17949C2.62846 6.62079 2.08952 6.42718 1.68123 6.05619C1.27295 5.6852 1.02876 5.16721 1.00238 4.61618C1.00049 4.57669 0.999721 4.53718 1.00009 4.49763C1.00009 3.83588 3.71175 3.54836 4.66246 2.78398Z"/>
</mask>
<path d="M4.66246 2.78398L4.03586 2.00464L4.03586 2.00464L4.66246 2.78398ZM6.92661 1.10057L6.50098 0.195673L6.41597 0.23566L6.33989 0.290782L6.92661 1.10057ZM7.27034 1.31874L6.27034 1.31874L6.27034 1.40392L6.28475 1.48788L7.27034 1.31874ZM8.17571 6.59441V7.59441H9.36194L9.1613 6.42527L8.17571 6.59441ZM3.17949 6.59441V5.59441H3.15558L3.13169 5.59556L3.17949 6.59441ZM1.00238 4.61618L2.00124 4.56837L2.00123 4.56821L1.00238 4.61618ZM1.00009 4.49763L2.00009 4.50695L2.00009 4.49764L1.00009 4.49763ZM5.28906 3.56332C5.53891 3.36244 6.08591 2.95535 6.58953 2.58503C6.83726 2.40288 7.06838 2.23408 7.23763 2.11078C7.32222 2.04916 7.39128 1.99896 7.43914 1.9642C7.46306 1.94682 7.48168 1.93331 7.49429 1.92417C7.50059 1.9196 7.50539 1.91612 7.50859 1.91379C7.51019 1.91263 7.5114 1.91176 7.51219 1.91118C7.51259 1.9109 7.51289 1.91068 7.51308 1.91054C7.51317 1.91047 7.51324 1.91042 7.51329 1.91039C7.51331 1.91037 7.51332 1.91037 7.51333 1.91036C7.51334 1.91035 7.51334 1.91035 6.92661 1.10057C6.33989 0.290782 6.33988 0.290791 6.33986 0.290806C6.33984 0.290817 6.33981 0.290836 6.33978 0.290858C6.33972 0.290902 6.33964 0.290965 6.33952 0.291047C6.3393 0.291211 6.33896 0.291451 6.33853 0.291765C6.33767 0.292392 6.33639 0.293317 6.33471 0.294532C6.33136 0.296961 6.32642 0.300549 6.31996 0.305231C6.30705 0.314597 6.2881 0.328344 6.26384 0.345969C6.2153 0.381218 6.14546 0.43199 6.06 0.494249C5.88914 0.618719 5.65552 0.789337 5.40474 0.97374C4.91134 1.33654 4.32627 1.77115 4.03586 2.00464L5.28906 3.56332ZM7.35225 2.00546C7.23659 2.05986 7.10906 2.08417 6.98149 2.07613L7.10731 0.0800952C6.89869 0.0669446 6.69013 0.106701 6.50098 0.195673L7.35225 2.00546ZM6.98149 2.07613C6.85393 2.06809 6.73046 2.02796 6.62255 1.95946L7.69434 0.270896C7.51786 0.158876 7.31594 0.0932456 7.10731 0.0800952L6.98149 2.07613ZM6.62255 1.95946C6.51463 1.89097 6.42577 1.79633 6.36419 1.68431L8.11685 0.72088C8.01615 0.537696 7.87082 0.382915 7.69434 0.270896L6.62255 1.95946ZM6.36419 1.68431C6.30262 1.5723 6.27034 1.44655 6.27034 1.31874L8.27034 1.31874C8.27034 1.10971 8.21755 0.904064 8.11685 0.72088L6.36419 1.68431ZM6.28475 1.48788L7.19011 6.76355L9.1613 6.42527L8.25593 1.1496L6.28475 1.48788ZM8.17571 5.59441H3.17949V7.59441H8.17571V5.59441ZM3.13169 5.59556C2.84557 5.60925 2.56573 5.50872 2.35373 5.31609L1.00874 6.79629C1.61331 7.34564 2.41135 7.63232 3.2273 7.59327L3.13169 5.59556ZM2.35373 5.31609C2.14173 5.12345 2.01493 4.85449 2.00124 4.56837L0.00352496 4.66399C0.0425787 5.47994 0.404165 6.24695 1.00874 6.79629L2.35373 5.31609ZM2.00123 4.56821C2.00025 4.54782 1.99986 4.5274 2.00005 4.50695L0.000133395 4.48831C-0.000413179 4.54695 0.000719607 4.60557 0.00353253 4.66415L2.00123 4.56821ZM2.00009 4.49764C2.00009 4.78773 1.8447 4.95451 1.80962 4.98806C1.77809 5.01822 1.78298 5.0031 1.87896 4.95603C2.0686 4.86303 2.36428 4.7621 2.7743 4.63337C3.15324 4.51441 3.61862 4.37486 4.03881 4.21802C4.44576 4.06613 4.92022 3.85987 5.28906 3.56332L4.03586 2.00464C3.92934 2.09028 3.70833 2.2066 3.33945 2.34428C2.98383 2.47702 2.59303 2.59403 2.17522 2.72521C1.78849 2.84663 1.34684 2.98943 0.998327 3.16034C0.825237 3.24523 0.61085 3.36712 0.427305 3.54265C0.240224 3.72157 9.24468e-05 4.0421 9.0003e-05 4.49763L2.00009 4.49764Z" fill="#362140" mask="url(#path-1-outside-1)"/>
<path d="M17.4797 7.43396L17.4811 7.44151C17.5291 7.69412 17.4846 7.95556 17.3558 8.1781C17.2281 8.39863 17.0261 8.56641 16.7861 8.65145C16.5794 8.72913 16.3907 8.84831 16.2317 9.00164C16.0729 9.15479 15.9471 9.33877 15.862 9.54226C15.7873 9.73576 15.7511 9.94201 15.7555 10.1494L15.7557 10.1599H15.7556V12.3411C15.7556 12.5408 15.7684 12.7402 15.7941 12.9382L16.2758 16.6525C16.2758 16.6525 16.2758 16.6526 16.2758 16.6527C16.3211 17.0011 16.2261 17.3533 16.0117 17.6318C15.7972 17.9105 15.4803 18.0923 15.1323 18.1376C15.1322 18.1376 15.1321 18.1376 15.132 18.1377L15.0675 17.6418C15.0319 17.6465 14.9961 17.6489 14.9602 17.6488L17.4797 7.43396ZM17.4797 7.43396L17.478 7.42646M17.4797 7.43396L17.478 7.42646M13.8323 8.97441C13.9896 8.51038 14.2375 8.08064 14.5629 7.71073C14.9782 7.23862 15.5062 6.87934 16.0978 6.66636L13.8323 8.97441ZM13.8323 8.97441H4.43652H3.85639L3.942 9.5482L4.34641 12.2588C4.43012 12.8754 4.6615 13.4616 5.01955 13.9681L4.70113 16.6677C4.70113 16.6678 4.70113 16.6678 4.70113 16.6678C4.68073 16.8406 4.69458 17.0159 4.7419 17.1834C4.78922 17.351 4.86907 17.5076 4.9769 17.6442C5.08473 17.7809 5.21842 17.895 5.37035 17.98C5.52228 18.065 5.68946 18.1193 5.86235 18.1397L5.86374 18.1399C5.91511 18.1458 5.96678 18.1488 6.0185 18.1488V18.1488L6.02443 18.1487C6.34651 18.1451 6.65642 18.0252 6.89702 17.811C7.12921 17.6043 7.28175 17.3234 7.32895 17.0169L7.7857 15.2156H13.1701L13.6563 17.0461L13.8323 8.97441ZM17.478 7.42646C17.4458 7.28091 17.3828 7.14391 17.2935 7.02458M17.478 7.42646L17.2935 7.02458M17.2935 7.02458C17.2041 6.90526 17.0903 6.80634 16.9597 6.73442M17.2935 7.02458L16.9597 6.73442M16.9597 6.73442C16.8291 6.66251 16.6847 6.61924 16.5361 6.6075M16.9597 6.73442L16.5361 6.6075M16.5361 6.6075C16.3875 6.59577 16.2381 6.61582 16.0979 6.66632L16.5361 6.6075Z" stroke="#362140"/>
<path d="M10.0509 11.5266V12.0266H10.5509H11.5V12.1287H10.5509H10.0509V12.6287V13.5776H9.94909V12.6287V12.1287H9.44909H8.5V12.0266H9.44909H9.94909V11.5266V10.5776H10.0509V11.5266Z" stroke="#362140"/>
</svg>
