<svg width="21" height="21" viewBox="0 0 21 21" fill="none" xmlns="http://www.w3.org/2000/svg">
<path d="M20.5 2.45469V1.29688C20.5 1.09419 20.4303 0.88643 20.2719 0.728087C20.1136 0.569744 19.9058 0.5 19.7031 0.5H1.29688C0.810676 0.5 0.5 0.905347 0.5 1.29688V2.45469C0.5 2.94089 0.905347 3.25156 1.29688 3.25156H19.7031C20.1893 3.25156 20.5 2.84622 20.5 2.45469Z" stroke="#CBD3E0"/>
<path d="M19.7853 17.7553L19.7445 17.7485H19.7031H1.29688C0.810676 17.7485 0.5 18.1538 0.5 18.5453V19.7032C0.5 20.1894 0.905347 20.5 1.29688 20.5H19.7031C20.1893 20.5 20.5 20.0947 20.5 19.7032V18.575C20.5 18.3685 20.4283 18.1696 20.2839 18.0149C20.1435 17.8646 19.9621 17.7847 19.7853 17.7553Z" stroke="#CBD3E0"/>
<path d="M1.92041 2.81564H1.42041V3.31564V10.2031V10.7031H1.92041H10.2329H10.7329V10.2031V3.31564V2.81564H10.2329H1.92041Z" stroke="#CBD3E0"/>
<path d="M10.7969 2.81561H10.2969V3.31561V10.2031V10.7031H10.7969H19.1094H19.6094V10.2031V3.31561V2.81561H19.1094H10.7969Z" stroke="#CBD3E0"/>
<path d="M1.92041 10.2968H1.42041V10.7968V17.714V18.214H1.92041H10.2329H10.7329V17.714V10.7968V10.2968H10.2329H1.92041Z" stroke="#CBD3E0"/>
<path d="M10.7969 10.2968H10.2969V10.7968V17.714V18.214H10.7969H19.1094H19.6094V17.714V10.7968V10.2968H19.1094H10.7969Z" stroke="#CBD3E0"/>
</svg>
