<svg width="94" height="92" viewBox="0 0 94 92" fill="none" xmlns="http://www.w3.org/2000/svg">
<path d="M46.7048 49.6061C41.7307 49.6061 37.6855 53.6513 37.6855 58.6254C37.6855 63.5996 41.7307 67.6447 46.7048 67.6447C51.679 67.6447 55.7241 63.5996 55.7241 58.6254C55.7241 53.6513 51.679 49.6061 46.7048 49.6061ZM46.7048 64.6383C43.3887 64.6383 40.692 61.9415 40.692 58.6254C40.692 55.3093 43.3887 52.6126 46.7048 52.6126C50.0209 52.6126 52.7177 55.3093 52.7177 58.6254C52.7177 61.9415 50.0209 64.6383 46.7048 64.6383Z" fill="#CBD3E0"/>
<path d="M56.2714 40.5553L53.3431 43.4835C53.1357 43.3918 52.9267 43.3046 52.7178 43.222V39.0836H40.692V43.222C40.4831 43.3046 40.2756 43.3918 40.0667 43.4835L37.1384 40.5553L28.6347 49.059L31.563 51.9872C31.4713 52.1947 31.3841 52.4036 31.3014 52.6126H27.1631V64.6383H31.3014C31.3841 64.8472 31.4713 65.0547 31.563 65.2636L28.6347 68.1919L37.1384 76.6956L40.0667 73.7673C40.2741 73.859 40.4831 73.9462 40.692 74.0289V78.1672H52.7178V74.0289C52.9267 73.9462 53.1341 73.859 53.3431 73.7673L56.2714 76.6956L64.7751 68.1919L61.8468 65.2636C61.9385 65.0562 62.0257 64.8472 62.1083 64.6383H66.2467V52.6126H62.1083C62.0257 52.4036 61.9385 52.1962 61.8468 51.9872L64.7751 49.059L56.2714 40.5553ZM63.2403 55.619V61.6319H59.9452L59.6145 62.6841C59.3845 63.4147 59.0764 64.1512 58.6975 64.8758L58.1865 65.8544L60.5255 68.1934L56.2729 72.446L53.9339 70.107L52.9553 70.6181C52.2322 70.9969 51.4941 71.3051 50.7636 71.535L49.7113 71.8657V75.1608H43.6985V71.8657L42.6462 71.535C41.9156 71.3051 41.1791 70.9969 40.4545 70.6181L39.4759 70.107L37.1369 72.446L32.8843 68.1934L35.2233 65.8544L34.7122 64.8758C34.3334 64.1528 34.0253 63.4147 33.7953 62.6841L33.4646 61.6319H30.1695V55.619H33.4646L33.7953 54.5667C34.0253 53.8362 34.3334 53.0996 34.7122 52.3751L35.2233 51.3965L32.8843 49.0575L37.1369 44.8049L39.4759 47.1439L40.4545 46.6328C41.1776 46.254 41.9156 45.9458 42.6462 45.7158L43.6985 45.3851V42.09H49.7113V45.3851L50.7636 45.7158C51.4941 45.9458 52.2307 46.254 52.9553 46.6328L53.9339 47.1439L56.2729 44.8049L60.5255 49.0575L58.1865 51.3965L58.6975 52.3751C59.0764 53.0981 59.3845 53.8362 59.6145 54.5667L59.9452 55.619H63.2403Z" fill="#CBD3E0"/>
<path d="M46.7049 31.5675C31.7854 31.5675 19.647 43.706 19.647 58.6254C19.647 73.5448 31.7854 85.6833 46.7049 85.6833C61.6243 85.6833 73.7627 73.5448 73.7627 58.6254C73.7627 43.706 61.6243 31.5675 46.7049 31.5675ZM46.7049 82.6768C33.4435 82.6768 22.6534 71.8868 22.6534 58.6254C22.6534 45.364 33.4435 34.5739 46.7049 34.5739C59.9662 34.5739 70.7563 45.364 70.7563 58.6254C70.7563 71.8868 59.9662 82.6768 46.7049 82.6768Z" fill="#CBD3E0"/>
<path d="M93.2069 58.0903C93.1347 57.8994 88.7544 46.7816 78.3762 37.5954L92.6221 28.3176L90.9806 25.7982L75.9605 35.5811C68.8142 29.9892 59.2102 25.5547 46.7049 25.5547C34.1997 25.5547 24.5956 29.9892 17.4493 35.5811L2.4292 25.7982L0.787685 28.3176L15.0337 37.5954C4.65546 46.7816 0.276592 57.8994 0.202934 58.0903L0 58.6254L0.204437 59.1606C0.327701 59.4853 12.9878 91.6962 46.7049 91.6962C80.422 91.6962 93.0821 59.4853 93.2069 59.1606L93.4098 58.6254L93.2069 58.0903ZM46.7049 88.6898C17.4313 88.6898 5.00872 62.7142 3.23642 58.6254C5.00872 54.5367 17.4313 28.5611 46.7049 28.5611C75.9785 28.5611 88.4011 54.5367 90.1734 58.6254C88.4011 62.7142 75.9785 88.6898 46.7049 88.6898Z" fill="#CBD3E0"/>
<path d="M48.2081 0H45.2017V22.5482H48.2081V0Z" fill="#CBD3E0"/>
<path d="M36.9877 23.8533L30.02 2.40692L27.1604 3.33597L34.1281 24.7823L36.9877 23.8533Z" fill="#CBD3E0"/>
<path d="M26.7186 28.5577L13.4648 10.3163L11.0326 12.0835L24.2864 30.3248L26.7186 28.5577Z" fill="#CBD3E0"/>
<path d="M82.3829 12.0705L79.9507 10.3033L66.6969 28.5447L69.1291 30.3118L82.3829 12.0705Z" fill="#CBD3E0"/>
<path d="M66.245 3.34006L63.3857 2.41113L56.4187 23.8555L59.278 24.7844L66.245 3.34006Z" fill="#CBD3E0"/>
</svg>
