<svg width="60" height="96" viewBox="0 0 60 96" fill="none" xmlns="http://www.w3.org/2000/svg">
<path d="M29.7829 34.4692C23.849 34.4692 19.0112 39.307 19.0112 45.2409C19.0112 51.1748 23.849 56.0125 29.7829 56.0125C35.7167 56.0125 40.5545 51.1748 40.5545 45.2409C40.5545 39.307 35.7167 34.4692 29.7829 34.4692ZM29.7829 52.9322C25.5498 52.9322 22.0915 49.474 22.0915 45.2409C22.0915 41.0078 25.5498 37.5496 29.7829 37.5496C34.016 37.5496 37.4742 41.0078 37.4742 45.2409C37.4742 49.474 34.016 52.9322 29.7829 52.9322Z" fill="#CBD3E0"/>
<path d="M59.5654 68.863C59.5654 60.8126 56.2205 53.0835 50.4189 47.4709C50.1921 29.9528 43.2945 13.5118 30.8598 1.09606L29.7827 0L28.6866 1.09606C15.9685 13.8142 9.33543 30.5764 9.12756 47.5087C3.32598 53.1024 0 60.8315 0 68.863C0 82.6205 8.23937 90.0661 8.23937 90.0661C8.23937 90.0661 6.31181 77.2913 12.8693 70.4126C16.7244 80.7874 21.2976 86.7591 21.2976 86.7591H38.2677C38.2677 86.7591 43.1055 80.0315 46.6961 70.4126C53.6882 77.2913 51.326 90.0661 51.326 90.0661C51.326 90.0661 59.5654 80.6362 59.5654 68.863ZM29.7827 4.38425C34.0158 8.8252 37.5496 13.7764 40.2898 19.1055H19.2945C22.0346 13.8142 25.5118 8.84409 29.7827 4.38425ZM5.34803 79.6346C3.85512 76.2709 3.08031 72.6236 3.08031 68.863C3.08031 62.6646 5.29134 56.6362 9.22205 51.874C9.48661 56.9953 10.3559 62.0598 11.7732 66.9921C8.40945 70.5449 6.19842 74.9102 5.34803 79.6346ZM36.6425 83.6976H22.9228C10.4315 65.0457 8.99528 41.7449 17.8016 22.1669H41.7638C45.4299 30.2929 47.3575 39.1559 47.3575 48.3213C47.3575 61.0205 43.6535 73.2283 36.6425 83.6976ZM47.7921 66.9921C49.2283 62.0598 50.0787 56.9953 50.3433 51.874C54.274 56.6362 56.485 62.6646 56.485 68.863C56.485 72.6047 55.7102 76.252 54.2173 79.6346C53.3669 74.9102 51.1559 70.5449 47.7921 66.9921Z" fill="#CBD3E0"/>
<path d="M31.3323 88.3087H28.252V96.0001H31.3323V88.3087Z" fill="#CBD3E0"/>
<path d="M25.1716 89.8394H22.0913V94.4504H25.1716V89.8394Z" fill="#CBD3E0"/>
<path d="M37.4744 89.8394H34.394V94.4504H37.4744V89.8394Z" fill="#CBD3E0"/>
</svg>
