<svg width="92" height="92" viewBox="0 0 92 92" fill="none" xmlns="http://www.w3.org/2000/svg">
<path d="M64.5232 38.5806H78.6452C81.9186 38.5806 84.5806 35.9186 84.5806 32.6452V17.6729C88.7845 16.9636 92 13.3074 92 8.90323C92 3.9931 88.0069 0 83.0968 0C78.1866 0 74.1936 3.9931 74.1936 8.90323C74.1936 13.3059 77.4091 16.9621 81.6129 17.6729V32.6452C81.6129 34.2819 80.2819 35.6129 78.6452 35.6129H66.5605C68.6083 32.0709 69.7419 27.9977 69.7419 23.7419C69.7419 17.1921 67.1318 11.0934 62.3938 6.5691C57.6603 2.04774 51.4458 -0.270065 44.8767 0.0267097C32.6897 0.587613 22.7626 10.5815 22.2774 22.7759C22.0934 27.3982 23.2255 31.8112 25.4202 35.6129H13.3548C11.7181 35.6129 10.3871 34.2819 10.3871 32.6452V17.6729C14.5909 16.9636 17.8065 13.3074 17.8065 8.90323C17.8065 3.9931 13.8134 0 8.90323 0C3.9931 0 0 3.9931 0 8.90323C0 13.3059 3.21555 16.9621 7.41935 17.6729V32.6452C7.41935 35.9186 10.0814 38.5806 13.3548 38.5806H27.459C29.3302 40.9059 31.651 42.9046 34.3694 44.4315L35.2939 47.4839H34.129C32.4923 47.4839 31.1613 48.8149 31.1613 50.4516C25.435 50.4516 20.7742 55.111 20.7742 60.8387V81.6129C20.7742 85.7039 17.4459 89.0323 13.3548 89.0323H5.93548V92H13.3548C19.0811 92 23.7419 87.3406 23.7419 81.6129V60.8387C23.7419 56.7477 27.0703 53.4194 31.1613 53.4194C31.1613 55.0561 32.4923 56.3871 34.129 56.3871H37.996L38.6044 58.3888C39.7485 61.4619 42.7192 63.5275 46 63.5275C49.2808 63.5275 52.253 61.4619 53.4253 58.3028L54.0055 56.3871H57.871C59.5077 56.3871 60.8387 55.0561 60.8387 53.4194C64.9297 53.4194 68.2581 56.7477 68.2581 60.8387V81.6129C68.2581 87.3406 72.9189 92 78.6452 92H86.0645V89.0323H78.6452C74.5541 89.0323 71.2258 85.7039 71.2258 81.6129V60.8387C71.2258 55.111 66.565 50.4516 60.8387 50.4516C60.8387 48.8149 59.5077 47.4839 57.871 47.4839H56.7046L57.6306 44.4315C60.3297 42.9136 62.6505 40.9133 64.5232 38.5806ZM77.1613 8.90323C77.1613 5.62981 79.8234 2.96774 83.0968 2.96774C86.3702 2.96774 89.0323 5.62981 89.0323 8.90323C89.0323 12.1766 86.3702 14.8387 83.0968 14.8387C79.8234 14.8387 77.1613 12.1766 77.1613 8.90323ZM8.90323 14.8387C5.62981 14.8387 2.96774 12.1766 2.96774 8.90323C2.96774 5.62981 5.62981 2.96774 8.90323 2.96774C12.1766 2.96774 14.8387 5.62981 14.8387 8.90323C14.8387 12.1766 12.1766 14.8387 8.90323 14.8387ZM57.871 50.4516V53.4194H50.4516V56.3871H50.9057L50.6134 57.3531C49.9011 59.2703 48.0463 60.5583 46 60.5583C43.9537 60.5583 42.0989 59.2703 41.4148 57.4392L41.0958 56.3871H47.4839V53.4194H34.129V50.4516H57.871ZM55.6926 42.1093L55.1466 42.3986L53.6048 47.4839H47.4839V32.5116C51.6877 31.8023 54.9032 28.1461 54.9032 23.7419C54.9032 18.8318 50.9101 14.8387 46 14.8387C41.0899 14.8387 37.0968 18.8318 37.0968 23.7419C37.0968 28.1446 40.3123 31.8008 44.5161 32.5116V47.4839H38.3952L36.8534 42.3986L36.3074 42.1093C29.1625 38.3299 24.9216 30.9669 25.2421 22.8932C25.6665 12.2256 34.3531 3.48265 45.0132 2.99C50.7588 2.72587 56.2001 4.75729 60.3446 8.71477C64.4905 12.6752 66.7742 18.0112 66.7742 23.7419C66.7742 31.4551 62.5288 38.4931 55.6926 42.1093ZM46 29.6774C42.7266 29.6774 40.0645 27.0154 40.0645 23.7419C40.0645 20.4685 42.7266 17.8065 46 17.8065C49.2734 17.8065 51.9355 20.4685 51.9355 23.7419C51.9355 27.0154 49.2734 29.6774 46 29.6774Z" fill="#CBD3E0"/>
<path d="M10.3867 7.41937H7.41895V10.3871H10.3867V7.41937Z" fill="#CBD3E0"/>
<path d="M84.5805 7.41937H81.6128V10.3871H84.5805V7.41937Z" fill="#CBD3E0"/>
</svg>
