<svg width="90" height="90" viewBox="0 0 90 90" fill="none" xmlns="http://www.w3.org/2000/svg">
<path d="M45 0C20.1437 0 0 20.1437 0 45C0 69.8563 20.1437 90 45 90C69.8563 90 90 69.8563 90 45C90 20.1437 69.8563 0 45 0ZM45 87.0945C21.7559 87.0945 2.90551 68.2441 2.90551 45C2.90551 21.7559 21.7559 2.90551 45 2.90551C68.2441 2.90551 87.0945 21.7559 87.0945 45C87.0945 68.2441 68.2441 87.0945 45 87.0945Z" fill="#CBD3E0"/>
<path d="M44.9999 26.1319C34.5826 26.1319 26.1318 34.5827 26.1318 45C26.1318 55.4173 34.5826 63.8681 44.9999 63.8681C55.4173 63.8681 63.8681 55.4173 63.8681 45C63.8681 34.5827 55.4173 26.1319 44.9999 26.1319ZM44.9999 60.9626C36.1771 60.9626 29.0373 53.8051 29.0373 45C29.0373 36.1772 36.1948 29.0374 44.9999 29.0374C53.8051 29.0374 60.9625 36.1949 60.9625 45C60.9625 53.8228 53.8228 60.9626 44.9999 60.9626Z" fill="#CBD3E0"/>
<path d="M44.9999 34.8307C39.3837 34.8307 34.8306 39.3838 34.8306 45C34.8306 50.6161 39.3837 55.1693 44.9999 55.1693C50.616 55.1693 55.1691 50.6161 55.1691 45C55.1691 39.3838 50.616 34.8307 44.9999 34.8307ZM44.9999 52.2638C40.9959 52.2638 37.7361 49.0216 37.7361 45C37.7361 40.9783 40.9782 37.7362 44.9999 37.7362C49.0215 37.7362 52.2636 40.9783 52.2636 45C52.2636 49.0216 49.0038 52.2638 44.9999 52.2638Z" fill="#CBD3E0"/>
<path d="M44.9999 7.26379C34.9192 7.26379 25.4408 11.1969 18.3188 18.3189C11.179 25.441 7.26367 34.9193 7.26367 45H10.1692C10.1692 35.6988 13.8011 26.9469 20.3739 20.3563C26.9467 13.7835 35.6987 10.1516 45.0176 10.1516V7.26379H44.9999Z" fill="#CBD3E0"/>
</svg>
