<svg width="94" height="92" fill="none" xmlns="http://www.w3.org/2000/svg"><path d="M46.705 49.606c-4.974 0-9.02 4.045-9.02 9.02 0 4.974 4.046 9.019 9.02 9.019 4.974 0 9.02-4.045 9.02-9.02 0-4.974-4.046-9.019-9.02-9.019zm0 15.032a6.019 6.019 0 01-6.013-6.013 6.019 6.019 0 016.013-6.012 6.019 6.019 0 016.013 6.012 6.019 6.019 0 01-6.013 6.013z" fill="#CBD3E0"/><path d="M56.271 40.555l-2.928 2.928a17.065 17.065 0 00-.625-.261v-4.138H40.692v4.138c-.209.083-.416.17-.625.261l-2.929-2.928-8.503 8.504 2.928 2.928a17.67 17.67 0 00-.262.626h-4.138v12.025h4.138c.083.21.17.417.262.626l-2.928 2.928 8.503 8.504 2.929-2.929c.207.092.416.18.625.262v4.138h12.026V74.03c.209-.083.416-.17.625-.262l2.928 2.929 8.504-8.504-2.928-2.928c.091-.208.179-.417.261-.626h4.139V52.613h-4.139c-.082-.21-.17-.417-.261-.626l2.928-2.928-8.504-8.504zm6.97 15.064v6.013h-3.296l-.33 1.052a13.53 13.53 0 01-.918 2.192l-.51.978 2.339 2.34-4.253 4.252-2.34-2.339-.978.511a13.44 13.44 0 01-2.191.917l-1.053.33v3.296H43.7v-3.295l-1.053-.331c-.73-.23-1.467-.538-2.191-.917l-.98-.511-2.338 2.339-4.253-4.253 2.34-2.339-.512-.978a13.442 13.442 0 01-.917-2.192l-.33-1.052H30.17v-6.013h3.296l.33-1.052a13.5 13.5 0 01.917-2.192l.511-.978-2.339-2.34 4.253-4.252 2.339 2.339.979-.511a13.446 13.446 0 012.191-.917l1.053-.33V42.09h6.012v3.295l1.053.33c.73.23 1.467.539 2.191.918l.979.51 2.339-2.338 4.252 4.252-2.338 2.34.51.978c.38.723.688 1.461.917 2.192l.331 1.052h3.295z" fill="#CBD3E0"/><path d="M46.705 31.567c-14.92 0-27.058 12.139-27.058 27.058 0 14.92 12.138 27.058 27.058 27.058s27.058-12.138 27.058-27.058c0-14.919-12.139-27.058-27.058-27.058zm0 51.11c-13.261 0-24.052-10.79-24.052-24.052 0-13.261 10.79-24.051 24.052-24.051 13.261 0 24.051 10.79 24.051 24.051 0 13.262-10.79 24.052-24.051 24.052z" fill="#CBD3E0"/><path d="M93.207 58.09c-.072-.19-4.453-11.308-14.83-20.495l14.245-9.277-1.641-2.52-15.02 9.783c-7.147-5.592-16.75-10.026-29.256-10.026-12.505 0-22.11 4.434-29.256 10.026L2.43 25.798l-1.641 2.52 14.246 9.277C4.655 46.782.277 57.9.203 58.09L0 58.625l.204.536c.124.324 12.784 32.535 46.5 32.535 33.718 0 46.378-32.21 46.503-32.535l.203-.536-.203-.535zm-46.502 30.6c-29.274 0-41.696-25.976-43.469-30.065 1.773-4.088 14.195-30.064 43.469-30.064 29.273 0 41.696 25.976 43.468 30.064-1.772 4.09-14.195 30.065-43.468 30.065zM48.208 0h-3.006v22.548h3.006V0zm-11.22 23.853L30.02 2.407l-2.86.929 6.968 21.446 2.86-.929z" fill="#CBD3E0"/><path d="M26.719 28.558L13.465 10.316l-2.432 1.768 13.253 18.24 2.433-1.766zM82.383 12.07l-2.432-1.767-13.254 18.242 2.432 1.767L82.383 12.07zM66.245 3.34l-2.86-.929-6.966 21.444 2.859.93L66.245 3.34z" fill="#CBD3E0"/></svg>