<svg width="90" height="90" fill="none" xmlns="http://www.w3.org/2000/svg"><path d="M45 0C20.144 0 0 20.144 0 45s20.144 45 45 45 45-20.144 45-45S69.856 0 45 0zm0 87.094C21.756 87.094 2.906 68.244 2.906 45S21.756 2.906 45 2.906 87.094 21.756 87.094 45 68.244 87.094 45 87.094z" fill="#CBD3E0"/><path d="M45 26.132c-10.417 0-18.868 8.45-18.868 18.868 0 10.417 8.45 18.868 18.868 18.868 10.417 0 18.868-8.45 18.868-18.868 0-10.417-8.45-18.868-18.868-18.868zm0 34.83c-8.823 0-15.963-7.157-15.963-15.962 0-8.823 7.158-15.963 15.963-15.963S60.962 36.195 60.962 45c0 8.823-7.14 15.963-15.962 15.963z" fill="#CBD3E0"/><path d="M45 34.83c-5.616 0-10.17 4.554-10.17 10.17S39.385 55.17 45 55.17 55.17 50.615 55.17 45 50.615 34.83 45 34.83zm0 17.434A7.262 7.262 0 0137.736 45 7.251 7.251 0 0145 37.736 7.251 7.251 0 0152.264 45 7.262 7.262 0 0145 52.264zm0-45c-10.08 0-19.56 3.933-26.681 11.055C11.179 25.44 7.264 34.919 7.264 45h2.905c0-9.301 3.632-18.053 10.205-24.644 6.573-6.573 15.325-10.204 24.644-10.204V7.264H45z" fill="#CBD3E0"/></svg>