<svg width="92" height="92" fill="none" xmlns="http://www.w3.org/2000/svg"><path d="M64.523 38.58h14.122a5.941 5.941 0 005.936-5.935V17.673c4.203-.71 7.419-4.366 7.419-8.77C92 3.993 88.007 0 83.097 0s-8.903 3.993-8.903 8.903c0 4.403 3.215 8.06 7.419 8.77v14.972a2.97 2.97 0 01-2.968 2.968H66.561a23.682 23.682 0 003.18-11.871c0-6.55-2.61-12.649-7.347-17.173C57.66 2.048 51.446-.27 44.877.027c-12.187.56-22.114 10.555-22.6 22.749-.184 4.622.948 9.035 3.143 12.837H13.355a2.97 2.97 0 01-2.968-2.968V17.673c4.204-.71 7.42-4.366 7.42-8.77C17.806 3.993 13.813 0 8.902 0S0 3.993 0 8.903c0 4.403 3.216 8.06 7.42 8.77v14.972a5.941 5.941 0 005.935 5.936h14.104a23.84 23.84 0 006.91 5.85l.925 3.053h-1.165a2.97 2.97 0 00-2.968 2.968c-5.726 0-10.387 4.659-10.387 10.387v20.774c0 4.09-3.328 7.42-7.42 7.42H5.936V92h7.42c5.726 0 10.387-4.66 10.387-10.387V60.839c0-4.091 3.328-7.42 7.42-7.42a2.97 2.97 0 002.967 2.968h3.867l.608 2.002A7.924 7.924 0 0046 63.528c3.28 0 6.253-2.066 7.425-5.225l.58-1.916h3.866a2.97 2.97 0 002.968-2.968c4.09 0 7.42 3.329 7.42 7.42v20.774C68.258 87.34 72.918 92 78.644 92h7.42v-2.968h-7.42c-4.09 0-7.42-3.328-7.42-7.42V60.84c0-5.728-4.66-10.387-10.386-10.387a2.97 2.97 0 00-2.968-2.968h-1.166l.926-3.053a23.786 23.786 0 006.892-5.85zM77.161 8.904a5.941 5.941 0 015.936-5.935 5.941 5.941 0 015.935 5.935 5.942 5.942 0 01-5.935 5.936 5.942 5.942 0 01-5.936-5.936zM8.903 14.84a5.941 5.941 0 01-5.935-5.936 5.941 5.941 0 015.935-5.935 5.941 5.941 0 015.936 5.935 5.941 5.941 0 01-5.936 5.936zm48.968 35.613v2.967h-7.42v2.968h.455l-.293.966A4.942 4.942 0 0146 60.558c-2.046 0-3.901-1.288-4.585-3.119l-.32-1.052h6.389V53.42H34.129v-2.967h23.742zm-2.178-8.343l-.546.29-1.542 5.085h-6.121V32.512c4.204-.71 7.42-4.366 7.42-8.77 0-4.91-3.994-8.903-8.904-8.903s-8.903 3.993-8.903 8.903c0 4.403 3.215 8.059 7.42 8.77v14.972h-6.122l-1.542-5.085-.546-.29c-7.145-3.78-11.385-11.142-11.065-19.216.424-10.667 9.111-19.41 19.771-19.903C50.76 2.726 56.2 4.757 60.345 8.715c4.145 3.96 6.43 9.296 6.43 15.027 0 7.713-4.246 14.751-11.082 18.367zM46 29.677a5.941 5.941 0 01-5.935-5.935A5.941 5.941 0 0146 17.806a5.941 5.941 0 015.935 5.936A5.941 5.941 0 0146 29.677z" fill="#CBD3E0"/><path d="M10.387 7.42H7.419v2.967h2.968V7.42zm74.193 0h-2.967v2.967h2.968V7.42z" fill="#CBD3E0"/></svg>