<svg width="60" height="96" fill="none" xmlns="http://www.w3.org/2000/svg"><path d="M29.783 34.47c-5.934 0-10.772 4.837-10.772 10.77 0 5.935 4.838 10.773 10.772 10.773s10.771-4.838 10.771-10.772-4.837-10.772-10.771-10.772zm0 18.462c-4.233 0-7.692-3.458-7.692-7.691s3.459-7.691 7.692-7.691c4.233 0 7.691 3.458 7.691 7.69 0 4.234-3.458 7.692-7.691 7.692z" fill="#CBD3E0"/><path d="M59.565 68.863c0-8.05-3.344-15.78-9.146-21.392-.227-17.518-7.124-33.96-19.56-46.375L29.784 0l-1.096 1.096C15.968 13.814 9.335 30.576 9.127 47.51 3.327 53.102 0 60.83 0 68.863c0 13.758 8.24 21.203 8.24 21.203s-1.928-12.775 4.63-19.653c3.854 10.374 8.428 16.346 8.428 16.346h16.97s4.837-6.728 8.428-16.346c6.992 6.878 4.63 19.653 4.63 19.653s8.24-9.43 8.24-21.203zM29.783 4.384c4.233 4.441 7.767 9.392 10.507 14.721H19.295c2.74-5.29 6.217-10.26 10.488-14.72zM5.348 79.634a26.47 26.47 0 01-2.268-10.77c0-6.198 2.211-12.227 6.142-16.989a67.297 67.297 0 002.551 15.118C8.41 70.545 6.198 74.91 5.348 79.635zm31.294 4.064h-13.72c-12.49-18.652-13.927-41.953-5.12-61.531h23.962c3.666 8.126 5.593 16.989 5.593 26.154 0 12.7-3.703 24.907-10.715 35.377zm11.15-16.706a66.25 66.25 0 002.551-15.118c3.931 4.762 6.142 10.79 6.142 16.989 0 3.742-.775 7.389-2.268 10.772-.85-4.725-3.061-9.09-6.425-12.643z" fill="#CBD3E0"/><path d="M31.332 88.309h-3.08V96h3.08v-7.69zm-6.16 1.531h-3.08v4.61h3.08v-4.61zm12.302 0h-3.08v4.61h3.08v-4.61z" fill="#CBD3E0"/></svg>