<svg width="70" height="28" viewBox="0 0 70 28" fill="none" xmlns="http://www.w3.org/2000/svg">
<path d="M27.5933 12.9603H27.8716C27.9026 13.5653 28.1603 14.0642 28.655 14.4463C29.1498 14.8284 29.7683 15.03 30.5104 15.03C31.232 15.03 31.8298 14.839 32.2937 14.4569C32.7576 14.0748 32.9843 13.5865 32.9843 12.9921C32.9843 12.5251 32.8297 12.1536 32.5102 11.867C32.1906 11.5805 31.6752 11.347 30.9537 11.1665L30.0157 10.9224C29.2529 10.7313 28.6963 10.466 28.3458 10.1476C27.9953 9.82914 27.8201 9.40458 27.8201 8.8951C27.8201 8.26887 28.0778 7.73817 28.5829 7.3136C29.088 6.88904 29.7064 6.67676 30.4177 6.67676C31.1701 6.67676 31.7989 6.87843 32.3143 7.28176C32.8297 7.6851 33.0977 8.18396 33.1183 8.77835H32.84C32.8091 8.25826 32.572 7.82308 32.1082 7.47281C31.6546 7.12255 31.0877 6.95272 30.4177 6.95272C29.7683 6.95272 29.222 7.13317 28.7787 7.50466C28.3252 7.87615 28.1087 8.33255 28.1087 8.8951C28.1087 9.34089 28.2633 9.69116 28.5829 9.96712C28.9024 10.2431 29.4075 10.466 30.1084 10.6464L31.0361 10.8799C31.8092 11.0816 32.3865 11.347 32.7369 11.676C33.0977 12.005 33.2729 12.4402 33.2729 12.9709C33.2729 13.6502 33.0152 14.2021 32.4999 14.6373C31.9845 15.0725 31.3248 15.2848 30.5001 15.2848C29.6755 15.2848 28.9952 15.0619 28.4489 14.6267C27.9129 14.2021 27.6139 13.6396 27.5933 12.9603Z" fill="white"/>
<path d="M42.0347 6.80371V15.1782H41.7564V7.4724H41.7358L38.4476 15.1782H38.1486L34.8604 7.4724H34.8398V15.1782H34.5615V6.80371H34.8604L38.293 14.8173H38.3136L41.7255 6.80371H42.0347Z" fill="white"/>
<path d="M49.3841 15.1782L48.3224 12.27H44.5394L43.4571 15.1782H43.1479L46.2815 6.80371H46.5701L49.7037 15.1782H49.3841ZM46.4155 7.19643L44.6425 11.994H48.2193L46.4464 7.19643H46.4155Z" fill="white"/>
<path d="M51.0851 11.5164V15.1782H50.7965V6.80371H53.3219C54.1363 6.80371 54.7753 7.01599 55.2392 7.42994C55.7031 7.85451 55.9401 8.42766 55.9401 9.16004C55.9401 9.77565 55.7649 10.2851 55.4247 10.6885C55.0846 11.0918 54.6001 11.3572 53.9919 11.4633L56.136 15.1782H55.8164L53.693 11.5058C53.559 11.5164 53.4353 11.5164 53.3219 11.5164H51.0851ZM51.0851 7.06906V11.251H53.3219C54.0435 11.251 54.6207 11.06 55.033 10.6885C55.4454 10.317 55.6515 9.8075 55.6515 9.16004C55.6515 8.50196 55.4454 7.99249 55.033 7.62099C54.6207 7.2495 54.0435 7.06906 53.3116 7.06906H51.0851Z" fill="white"/>
<path d="M59.8985 15.1782H59.6202V7.07968H56.6824V6.80371H62.8259V7.07968H59.8882L59.8985 15.1782Z" fill="white"/>
<path d="M31.2426 16.0283C32.3352 16.0283 33.2114 16.421 33.8505 17.1959C34.4999 17.9707 34.8194 19.0215 34.8194 20.3376C34.8194 21.6538 34.4999 22.7046 33.8505 23.4794C33.2011 24.2542 32.3352 24.647 31.2323 24.647C30.1293 24.647 29.2635 24.2542 28.6141 23.4794C27.9647 22.7046 27.6451 21.6538 27.6451 20.3376C27.6451 19.0215 27.9647 17.9813 28.6141 17.1959C29.2635 16.4104 30.1293 16.0283 31.2426 16.0283ZM31.2426 16.2937C30.2324 16.2937 29.4284 16.6546 28.8305 17.3869C28.2327 18.1087 27.9338 19.0958 27.9338 20.327C27.9338 21.5583 28.2327 22.5348 28.8305 23.2671C29.4284 23.9995 30.2324 24.3604 31.2426 24.3604C32.2424 24.3604 33.0465 23.9995 33.6443 23.2671C34.2422 22.5348 34.5411 21.5583 34.5411 20.327C34.5411 19.0958 34.2422 18.1193 33.6443 17.3869C33.0465 16.6652 32.2424 16.2937 31.2426 16.2937Z" fill="white"/>
<path d="M36.4482 20.8572V24.519H36.1596V16.1445H38.685C39.4994 16.1445 40.1384 16.3568 40.6023 16.7708C41.0661 17.1953 41.3032 17.7685 41.3032 18.5009C41.3032 19.1165 41.128 19.626 40.7878 20.0293C40.4374 20.4326 39.9632 20.698 39.355 20.8041L41.4991 24.519H41.1795L39.0561 20.8466C38.9221 20.8572 38.7984 20.8572 38.685 20.8572H36.4482ZM36.4482 16.4099V20.5918H38.685C39.4066 20.5918 39.9838 20.4008 40.3961 20.0293C40.8085 19.6578 41.0146 19.1483 41.0146 18.5009C41.0146 17.8428 40.8085 17.3333 40.3961 16.9618C39.9838 16.5903 39.4066 16.4099 38.6747 16.4099H36.4482Z" fill="white"/>
<path d="M48.4263 24.519L47.3646 21.6108H43.5816L42.5096 24.519H42.2004L45.334 16.1445H45.6226L48.7562 24.519H48.4263ZM45.468 16.5373L43.6847 21.3348H47.2615L45.4886 16.5373H45.468Z" fill="white"/>
<path d="M50.1267 24.519H49.8381V16.1445H50.1473L55.5486 23.9671H55.5692V16.1445H55.8476V24.519H55.5899L50.1473 16.6328H50.1267V24.519Z" fill="white"/>
<path d="M63.939 21.2397C63.939 22.2905 63.6504 23.1184 63.0731 23.7234C62.4959 24.3284 61.7022 24.6256 60.7023 24.6256C60.022 24.6256 59.4138 24.4452 58.8778 24.0737C58.3418 23.7128 57.9295 23.1927 57.6409 22.5346C57.3419 21.8766 57.1976 21.1123 57.1976 20.2632C57.1976 18.9895 57.5172 17.96 58.1666 17.1851C58.8057 16.4103 59.6612 16.0176 60.7126 16.0176C61.5166 16.0176 62.2072 16.2511 62.7948 16.7075C63.3823 17.1639 63.7431 17.7583 63.8977 18.5013H63.6194C63.4648 17.8326 63.1143 17.3019 62.5886 16.8985C62.0629 16.4952 61.4342 16.2935 60.7126 16.2935C59.7437 16.2935 58.9603 16.6544 58.3727 17.3868C57.7852 18.1192 57.4966 19.0744 57.4966 20.2738C57.4966 21.4838 57.7955 22.4709 58.3933 23.2245C58.9912 23.9781 59.7643 24.3603 60.7229 24.3603C61.6403 24.3603 62.3619 24.0843 62.8876 23.5324C63.4133 22.9804 63.6813 22.2162 63.6813 21.2609V20.6772H60.692V20.4118H63.9596V21.2397H63.939Z" fill="white"/>
<path d="M70.0005 24.2431V24.519H65.3414V16.1445H70.0005V16.4205H65.63V20.093H69.8047V20.3583H65.63V24.2537H70.0005V24.2431Z" fill="white"/>
<path d="M23.8004 18.0652L23.6974 17.4708L24.924 15.1676L23.7386 13.2146L24.2024 12.0152L23.0686 11.113L22.914 8.67177L20.6875 7.6422L20.2751 6.65509L19.6154 6.4322L18.6362 4.82947L16.5643 4.92499L14.812 3.32227L13.2143 3.88481L12.6989 3.59823L11.431 4.23508L8.98806 3.69376L8.00882 4.75517L7.33881 4.65964L6.38018 6.17746L3.65891 7.05843L3.08167 9.57397L2.5972 9.94546L2.56628 10.508L2.31889 10.7521L2.3395 11.0918L0.690247 12.9492L1.4118 14.9129L0.813942 16.0592L1.44272 17.2055L1.0201 19.1266L2.66935 20.8567L2.85489 22.3746L3.9166 22.9159L4.65877 25.2404L7.16357 25.6862L8.00882 26.8112L9.21483 26.7688L10.6889 27.8833L12.5958 27.1403L14.7295 28L15.6469 27.1934L16.4716 27.3632L17.8219 25.8135L20.2339 25.5163L20.8627 23.8924L21.3162 23.6907L21.7286 22.3215L23.9035 20.8249L23.6355 18.3306L23.8004 18.0652Z" fill="#727376"/>
<path d="M21.2441 20.3581L20.7081 21.462L21.7802 19.042L21.2441 20.3581Z" fill="#898A8D"/>
<path d="M17.4504 25.1346L16.6979 25.4424L18.842 23.8291L17.4504 25.1346Z" fill="#A0A1A3"/>
<path d="M23.2024 13.8943L22.2953 10.9648L23.12 12.5145L23.2024 13.8943Z" fill="#8D8E91"/>
<path d="M7.51367 25.2084L6.71997 24.752L9.34847 25.7178L7.51367 25.2084Z" fill="#6C6E70"/>
<path d="M23.8007 18.0655L23.0173 19.2436L23.574 16.6113L23.8007 18.0655Z" fill="#F2F2F2"/>
<path d="M2.33952 11.9511L2.31891 10.7517L3.628 9.43555L2.33952 11.9511Z" fill="#E5E5E5"/>
<path d="M18.482 24.9429L20.1931 23.9664L21.3167 23.6904L18.482 24.9429Z" fill="#A0A0A0"/>
<path d="M21.3164 23.6912L20.1929 23.9672L21.8834 21.8125L21.3164 23.6912Z" fill="#CCCCCC"/>
<path d="M18.8942 6.30469L20.2754 6.65495L20.9351 8.23645L18.8942 6.30469Z" fill="#D8D8D8"/>
<path d="M17.368 5.66797L20.2749 6.65508L18.8936 6.30481L17.368 5.66797Z" fill="#F2F2F2"/>
<path d="M2.77252 20.4746L4.40116 23.1494L2.85498 22.3745L2.77252 20.4746Z" fill="#999999"/>
<path d="M2.77185 20.4741L2.85432 22.3741L2.42139 18.9775L2.77185 20.4741Z" fill="#A5A5A5"/>
<path d="M16.472 27.3637L13.5858 26.748L15.4412 26.833L16.472 27.3637Z" fill="#BFBFBF"/>
<path d="M16.4719 27.3632L15.4412 26.8325L17.9666 25.6543L16.4719 27.3632Z" fill="#D8D8D8"/>
<path d="M1.79382 17.4182L2.4226 18.9784L0.814575 16.0596L1.79382 17.4182Z" fill="#BFBFBF"/>
<path d="M1.56705 14.584L1.79382 17.4179L0.814575 16.0593L1.56705 14.584Z" fill="#D8D8D8"/>
<path d="M13.5853 26.748L10.6888 27.8838L12.6473 27.0134L13.5853 26.748Z" fill="#CCCCCC"/>
<path d="M14.8119 3.32227L17.3682 5.66798L16.3581 4.93561L14.8119 3.32227Z" fill="#E5E5E5"/>
<path d="M24.9242 15.1676L23.5636 13.6711L23.1307 12.2275L24.9242 15.1676Z" fill="#E5E5E5"/>
<path d="M23.5636 13.6705L22.6978 10.8047L23.1307 12.227L23.5636 13.6705Z" fill="#808183"/>
<path d="M23.1307 12.2276L22.6978 10.8053L22.9142 8.67188L23.1307 12.2276Z" fill="#D8D8D8"/>
<path d="M10.6889 27.8836L9.60657 26.4932L12.6474 27.0133L10.6889 27.8836Z" fill="#999999"/>
<path d="M10.6884 27.8835L7.98773 25.835L9.60606 26.493L10.6884 27.8835Z" fill="#999999"/>
<path d="M8.49314 5.03074L6.85419 6.02846L8.98791 3.69336L8.49314 5.03074Z" fill="#F2F2F2"/>
<path d="M8.98767 3.69336L11.8945 4.34082L10.9771 4.44696L8.98767 3.69336Z" fill="#F2F2F2"/>
<path d="M8.49377 5.03074L8.98855 3.69336L10.978 4.44696L8.49377 5.03074Z" fill="#E5E5E5"/>
<path d="M13.6369 4.3306L14.812 3.32227L16.3582 4.93561L13.6369 4.3306Z" fill="#F2F2F2"/>
<path d="M11.8948 4.34069L13.6368 4.33008L10.9774 4.44683L11.8948 4.34069Z" fill="#9C9EA0"/>
<path d="M11.8949 4.34122L14.812 3.32227L13.6369 4.3306L11.8949 4.34122Z" fill="#E5E5E5"/>
<path d="M6.08112 6.63398L6.8542 6.02897L8.49315 5.03125L6.08112 6.63398Z" fill="#B9B9BA"/>
<path d="M6.08091 6.6343L3.65857 7.05887L6.854 6.0293L6.08091 6.6343Z" fill="#E5E5E5"/>
<path d="M24.924 15.1675L23.5221 16.2183L23.5633 13.6709L24.924 15.1675Z" fill="#F2F2F2"/>
<path d="M23.5633 17.7472L23.5221 16.2188L24.924 15.168L23.5633 17.7472Z" fill="#E5E5E5"/>
<path d="M15.4412 26.8325L17.1007 25.8984L17.9666 25.6543L15.4412 26.8325Z" fill="#BFBFBF"/>
<path d="M1.74164 15.8577L1.79318 17.4179L1.56641 14.584L1.74164 15.8577Z" fill="#A5A5A5"/>
<path d="M7.98846 25.8351L6.82367 25.1982L9.60679 26.4932L7.98846 25.8351Z" fill="#6E6F72"/>
<path d="M7.98794 25.8351L4.65851 25.2407L6.82315 25.1982L7.98794 25.8351Z" fill="#999999"/>
<path d="M3.86473 9.10687L3.65857 7.05835L6.08091 6.63379L3.86473 9.10687Z" fill="#F2F2F2"/>
<path d="M3.86503 9.10711L2.85486 10.4976L3.65887 7.05859L3.86503 9.10711Z" fill="#E5E5E5"/>
<path d="M20.2337 7.44043L22.9137 8.67166L21.2233 8.93701L20.2337 7.44043Z" fill="#E5E5E5"/>
<path d="M21.2234 8.93723L22.9139 8.67188L22.6974 10.8053L21.2234 8.93723Z" fill="#F2F2F2"/>
<path d="M9.60657 26.4932L11.4311 26.6842L12.6474 27.0133L9.60657 26.4932Z" fill="#CCCCCC"/>
<path d="M23.9039 20.8252L22.9246 18.4158L23.5637 17.7471L23.9039 20.8252Z" fill="#D8D8D8"/>
<path d="M22.9246 18.4159L23.5225 16.2188L23.5637 17.7472L22.9246 18.4159Z" fill="#CCCCCC"/>
<path d="M2.5152 11.7397L2.85536 10.4979L3.86552 9.10742L2.5152 11.7397Z" fill="#B9BABA"/>
<path d="M2.51474 11.7389L0.690247 12.9489L2.85489 10.4971L2.51474 11.7389Z" fill="#F2F2F2"/>
<path d="M13.6369 4.33008L16.3582 4.93508L15.4408 5.08368L13.6369 4.33008Z" fill="#CCCCCC"/>
<path d="M15.4412 5.08384L16.3586 4.93524L18.6366 4.8291L15.4412 5.08384Z" fill="#F2F2F2"/>
<path d="M8.49377 5.03104L10.978 4.44727L10.2255 5.05227L8.49377 5.03104Z" fill="#CCCCCC"/>
<path d="M3.86462 9.10687L6.08081 6.63379L5.35926 7.81195L3.86462 9.10687Z" fill="#E5E5E5"/>
<path d="M4.84405 22.8945L6.82315 25.1978L4.65851 25.2402L4.84405 22.8945Z" fill="#A5A5A5"/>
<path d="M4.84404 22.8943L4.6585 25.24L3.57617 21.8223L4.84404 22.8943Z" fill="#B2B2B2"/>
<path d="M23.9038 20.8254L21.8423 20.645L22.9246 18.416L23.9038 20.8254Z" fill="#E5E5E5"/>
<path d="M21.3679 22.5763L21.8421 20.6445L23.9036 20.825L21.3679 22.5763Z" fill="#F2F2F2"/>
<path d="M23.5635 13.6714L22.9965 14.1491L24.2025 12.0156L23.5635 13.6714Z" fill="#CCCCCC"/>
<path d="M23.5222 16.2183L22.9965 14.1485L23.5635 13.6709L23.5222 16.2183Z" fill="#D8D8D8"/>
<path d="M22.0892 11.1656L22.6973 10.8047L24.2023 12.0147L22.0892 11.1656Z" fill="#E5E5E5"/>
<path d="M22.0892 11.166L24.2023 12.0151L22.9963 14.1486L22.0892 11.166Z" fill="#F2F2F2"/>
<path d="M21.2234 8.9375L22.6974 10.8056L22.0893 11.1665L21.2234 8.9375Z" fill="#CCCCCC"/>
<path d="M2.51474 11.7393L2.28796 14.2866L0.690247 12.9493L2.51474 11.7393Z" fill="#D8D8D8"/>
<path d="M2.28796 14.2866L1.74165 15.8575L0.690247 12.9492L2.28796 14.2866Z" fill="#B2B2B2"/>
<path d="M20.234 7.44043L21.2235 8.93701L19.4918 7.65271L20.234 7.44043Z" fill="#CCCCCC"/>
<path d="M18.6363 4.8291L20.234 7.44017L19.4918 7.65245L18.6363 4.8291Z" fill="#E5E5E5"/>
<path d="M10.2249 5.05276L10.9773 4.44776L12.6987 3.59863L10.2249 5.05276Z" fill="#D8D8D8"/>
<path d="M20.2337 25.5163L20.3162 22.5868L21.3676 22.5762L20.2337 25.5163Z" fill="#D8D8D8"/>
<path d="M20.3161 22.5869L21.8417 20.6445L21.3675 22.5763L20.3161 22.5869Z" fill="#E5E5E5"/>
<path d="M14.7294 28.0002L11.4308 26.6841L13.4512 26.2383L14.7294 28.0002Z" fill="#A5A5A5"/>
<path d="M14.7292 27.9999L13.451 26.238L16.1517 25.4844L14.7292 27.9999Z" fill="#CCCCCC"/>
<path d="M14.7296 27.9999L16.152 25.4844L17.1004 25.8983L14.7296 27.9999Z" fill="#E5E5E5"/>
<path d="M17.1002 25.898L18.3269 24.2422L20.2338 25.5159L17.1002 25.898Z" fill="#CCCCCC"/>
<path d="M20.234 25.5164L18.3271 24.2427L20.3165 22.5869L20.234 25.5164Z" fill="#E5E5E5"/>
<path d="M16.1522 25.484L18.3271 24.2422L17.1005 25.898L16.1522 25.484Z" fill="#D8D8D8"/>
<path d="M3.39095 19.9867L3.57649 21.8229L1.02014 19.127L3.39095 19.9867Z" fill="#B2B2B2"/>
<path d="M4.84421 22.8946L3.57635 21.8226L3.39081 19.9863L4.84421 22.8946Z" fill="#999999"/>
<path d="M2.5457 17.0146L3.39094 19.9866L1.02014 19.1269L2.5457 17.0146Z" fill="#999999"/>
<path d="M2.54607 17.014L1.74207 15.857L2.28838 14.2861L2.54607 17.014Z" fill="#D8D8D8"/>
<path d="M2.5457 17.0144L1.02014 19.1266L1.74169 15.8574L2.5457 17.0144Z" fill="#F2F2F2"/>
<path d="M17.2551 6.6335L18.6364 4.8291L19.4919 7.65245L17.2551 6.6335Z" fill="#F2F2F2"/>
<path d="M15.4412 5.08384L18.6366 4.8291L17.2553 6.6335L15.4412 5.08384Z" fill="#E5E5E5"/>
<path d="M7.41094 7.03673L5.35968 7.81156L7.33879 4.65918L7.41094 7.03673Z" fill="#D8D8D8"/>
<path d="M11.4312 26.6839L8.00903 26.8113L10.5035 25.7393L11.4312 26.6839Z" fill="#A5A5A5"/>
<path d="M11.4311 26.6839L10.5034 25.7393L13.4515 26.2381L11.4311 26.6839Z" fill="#999999"/>
<path d="M6.64775 23.68L6.82298 25.1978L4.84387 22.8945L6.64775 23.68Z" fill="#999999"/>
<path d="M6.64807 23.6797L8.00871 26.8108L6.8233 25.1975L6.64807 23.6797Z" fill="#BFBFBF"/>
<path d="M7.41108 7.03673L7.33893 4.65918L9.93651 6.1027L7.41108 7.03673Z" fill="#E5E5E5"/>
<path d="M7.33893 4.65918L10.2251 5.0519L9.93651 6.1027L7.33893 4.65918Z" fill="#D8D8D8"/>
<path d="M2.59766 9.94531L3.35013 12.8323L2.5152 11.7391L2.59766 9.94531Z" fill="#D8D8D8"/>
<path d="M3.34949 12.8325L2.28778 14.2866L2.51455 11.7393L3.34949 12.8325Z" fill="#BFBFBF"/>
<path d="M15.4414 5.08398L17.2556 6.63364L14.8333 6.13478L15.4414 5.08398Z" fill="#CCCCCC"/>
<path d="M12.6986 3.59863L15.4405 5.0846L14.8323 6.1354L12.6986 3.59863Z" fill="#D8D8D8"/>
<path d="M5.2981 9.42528L5.35994 7.81194L7.4112 7.03711L5.2981 9.42528Z" fill="#F2F2F2"/>
<path d="M5.29819 9.42486L2.59753 9.94495L5.36003 7.81152L5.29819 9.42486Z" fill="#D8D8D8"/>
<path d="M10.2249 5.05276L12.6987 3.59863L12.2864 5.9868L10.2249 5.05276Z" fill="#F2F2F2"/>
<path d="M12.2864 5.9868L12.6987 3.59863L14.8324 6.1354L12.2864 5.9868Z" fill="#E5E5E5"/>
<path d="M10.2256 5.05273L12.2872 5.98677L9.93701 6.10353L10.2256 5.05273Z" fill="#E5E5E5"/>
<path d="M22.0897 11.166L22.9968 14.1486L21.5228 12.9916L22.0897 11.166Z" fill="#E5E5E5"/>
<path d="M21.5228 12.9912L22.9968 14.1481L23.6462 16.2922L21.5228 12.9912Z" fill="#CCCCCC"/>
<path d="M21.8419 20.6448L21.6563 18.2354L22.9242 18.4158L21.8419 20.6448Z" fill="#D8D8D8"/>
<path d="M22.9242 18.4158L21.6563 18.2353L23.6457 16.293L22.9242 18.4158Z" fill="#F2F2F2"/>
<path d="M19.4918 7.65234L21.2235 8.93665L21.4503 9.15954L19.4918 7.65234Z" fill="#E5E5E5"/>
<path d="M21.4503 9.16016L22.0893 11.1662L21.5224 12.9918L21.4503 9.16016Z" fill="#D8D8D8"/>
<path d="M8.73026 24.0193L8.00871 26.8108L6.64807 23.6797L8.73026 24.0193Z" fill="#A5A5A5"/>
<path d="M8.73058 24.0195L10.5035 25.739L8.00903 26.811L8.73058 24.0195Z" fill="#BFBFBF"/>
<path d="M17.2551 6.63379L19.4919 7.65274L18.6879 8.73538L17.2551 6.63379Z" fill="#E5E5E5"/>
<path d="M18.6875 8.73498L19.4915 7.65234L21.45 9.15954L18.6875 8.73498Z" fill="#F2F2F2"/>
<path d="M13.451 26.2383L14.5128 24.6992L16.1517 25.4847L13.451 26.2383Z" fill="#D8D8D8"/>
<path d="M13.4514 26.2383L12.4412 26.5885L14.5131 24.6992L13.4514 26.2383Z" fill="#E5E5E5"/>
<path d="M4.11251 18.2034L3.39096 19.9866L2.54572 17.0146L4.11251 18.2034Z" fill="#BFBFBF"/>
<path d="M4.86526 11.8346L3.35001 12.8323L2.59753 9.94531L4.86526 11.8346Z" fill="#CCCCCC"/>
<path d="M5.29819 9.42578L4.86526 11.8352L2.59753 9.94587L5.29819 9.42578Z" fill="#E5E5E5"/>
<path d="M18.3271 24.2428L18.6363 22.0244L20.3165 22.587L18.3271 24.2428Z" fill="#D8D8D8"/>
<path d="M21.522 12.9912L23.6455 16.2922L20.7283 15.0291L21.522 12.9912Z" fill="#F2F2F2"/>
<path d="M20.7283 15.0293L23.6455 16.2924L21.656 18.2348L20.7283 15.0293Z" fill="#D8D8D8"/>
<path d="M7.41144 7.03755L9.93686 6.10352L9.26685 7.98221L7.41144 7.03755Z" fill="#D8D8D8"/>
<path d="M21.5223 12.9913L20.7286 15.0292L19.6978 11.6221L21.5223 12.9913Z" fill="#CCCCCC"/>
<path d="M21.4502 9.16016L21.5223 12.9918L19.6978 11.6226L21.4502 9.16016Z" fill="#F2F2F2"/>
<path d="M18.6875 8.73535L21.45 9.15992L19.6977 11.6224L18.6875 8.73535Z" fill="#D8D8D8"/>
<path d="M4.21576 21.7588L6.64841 23.6799L4.84454 22.8945L4.21576 21.7588Z" fill="#A5A5A5"/>
<path d="M4.11236 18.2031L4.21544 21.7588L3.39081 19.9863L4.11236 18.2031Z" fill="#A5A5A5"/>
<path d="M11.462 24.168L12.4413 26.588L10.5034 25.7389L11.462 24.168Z" fill="#B2B2B2"/>
<path d="M11.4619 24.1681L10.5033 25.739L8.73035 24.0195L11.4619 24.1681Z" fill="#999999"/>
<path d="M11.462 24.168L14.5132 24.6987L12.4413 26.588L11.462 24.168Z" fill="#D8D8D8"/>
<path d="M2.46332 15.2207L4.11257 18.2033L2.54578 17.0145L2.46332 15.2207Z" fill="#B2B2B2"/>
<path d="M3.34949 12.832L2.46302 15.2202L2.28778 14.2862L3.34949 12.832Z" fill="#F2F2F2"/>
<path d="M2.46302 15.2202L2.54548 17.014L2.28778 14.2861L2.46302 15.2202Z" fill="#A5A5A5"/>
<path d="M6.4115 7.65273L7.41136 7.03711L9.26677 7.98177L6.4115 7.65273Z" fill="#E5E5E5"/>
<path d="M20.3165 22.5872L18.6363 22.0247L21.1926 20.751L20.3165 22.5872Z" fill="#CCCCCC"/>
<path d="M21.8423 20.6447L21.1929 20.7509L21.6568 18.2354L21.8423 20.6447Z" fill="#CCCCCC"/>
<path d="M20.3161 22.5869L21.1923 20.7507L21.8417 20.6445L20.3161 22.5869Z" fill="#D8D8D8"/>
<path d="M12.2864 5.98633L14.8324 6.13492L14.0387 7.6209L12.2864 5.98633Z" fill="#D8D8D8"/>
<path d="M7.54519 21.8862L6.64841 23.6799L4.21576 21.7588L7.54519 21.8862Z" fill="#BFBFBF"/>
<path d="M8.73026 24.0201L6.64807 23.6805L7.54485 21.8867L8.73026 24.0201Z" fill="#999999"/>
<path d="M7.08075 10.4553L4.86456 11.8352L5.29749 9.42578L7.08075 10.4553Z" fill="#D8D8D8"/>
<path d="M6.4115 7.65234L9.26677 7.98138L7.08151 10.4545L6.4115 7.65234Z" fill="#D8D8D8"/>
<path d="M6.41134 7.65234L7.08135 10.4545L5.2981 9.42489L6.41134 7.65234Z" fill="#E5E5E5"/>
<path d="M16.1521 25.4845L14.5132 24.6991L17.1623 24.4443L16.1521 25.4845Z" fill="#BFBFBF"/>
<path d="M18.3267 24.2428L17.1619 24.4444L18.636 22.0244L18.3267 24.2428Z" fill="#BFBFBF"/>
<path d="M16.1522 25.484L17.1623 24.4439L18.3271 24.2422L16.1522 25.484Z" fill="#E5E5E5"/>
<path d="M5.22539 14.0745L3.34937 12.8327L4.86462 11.835L5.22539 14.0745Z" fill="#BFBFBF"/>
<path d="M5.22582 14.0739L2.46332 15.2202L3.34979 12.832L5.22582 14.0739Z" fill="#E5E5E5"/>
<path d="M14.0388 7.62074L14.8325 6.13477L16.9559 7.19618L14.0388 7.62074Z" fill="#F2F2F2"/>
<path d="M14.8333 6.13477L17.2556 6.63363L16.9567 7.19617L14.8333 6.13477Z" fill="#D8D8D8"/>
<path d="M16.9558 7.19633L17.2547 6.63379L18.6875 8.73538L16.9558 7.19633Z" fill="#CCCCCC"/>
<path d="M20.7288 15.0293L21.6565 18.2348L19.4094 17.1627L20.7288 15.0293Z" fill="#E5E5E5"/>
<path d="M19.4094 17.1631L21.6565 18.2351L21.1927 20.7506L19.4094 17.1631Z" fill="#F2F2F2"/>
<path d="M6.432 19.3601L4.21581 21.7588L4.11273 18.2031L6.432 19.3601Z" fill="#BFBFBF"/>
<path d="M6.43194 19.3604L7.54519 21.8865L4.21576 21.7591L6.43194 19.3604Z" fill="#A5A5A5"/>
<path d="M18.688 8.73535L19.6982 11.6224L17.3583 10.6459L18.688 8.73535Z" fill="#E5E5E5"/>
<path d="M16.9558 7.19629L18.6875 8.73533L17.3578 10.6459L16.9558 7.19629Z" fill="#F2F2F2"/>
<path d="M13.6369 22.6826L17.1622 24.4445L14.5131 24.6993L13.6369 22.6826Z" fill="#A5A5A5"/>
<path d="M13.637 22.6826L14.5132 24.6993L11.462 24.1686L13.637 22.6826Z" fill="#BFBFBF"/>
<path d="M6.432 19.3607L4.11273 18.2037L5.71045 16.7178L6.432 19.3607Z" fill="#999999"/>
<path d="M5.22582 14.0742L5.71029 16.7171L2.46332 15.2205L5.22582 14.0742Z" fill="#B2B2B2"/>
<path d="M5.71029 16.7173L4.11257 18.2033L2.46332 15.2207L5.71029 16.7173Z" fill="#A5A5A5"/>
<path d="M11.5651 6.6444L12.2866 5.98633L14.0389 7.6209L11.5651 6.6444Z" fill="#CCCCCC"/>
<path d="M9.93701 6.10308L12.2872 5.98633L11.5657 6.6444L9.93701 6.10308Z" fill="#D8D8D8"/>
<path d="M9.26691 7.98221L9.93692 6.10352L11.5656 6.64483L9.26691 7.98221Z" fill="#F2F2F2"/>
<path d="M19.4093 17.1631L21.1925 20.7506L17.76 19.201L19.4093 17.1631Z" fill="#E5E5E5"/>
<path d="M17.76 19.2012L21.1925 20.7508L18.6362 22.0245L17.76 19.2012Z" fill="#CCCCCC"/>
<path d="M15.7607 21.1436L18.6366 22.0245L17.1625 24.4445L15.7607 21.1436Z" fill="#CCCCCC"/>
<path d="M15.7603 21.1436L17.1622 24.4445L13.6369 22.6826L15.7603 21.1436Z" fill="#B2B2B2"/>
<path d="M17.7604 19.2012L18.6366 22.0245L15.7607 21.1436L17.7604 19.2012Z" fill="#BFBFBF"/>
<path d="M9.26691 7.98191L11.5656 6.64453L9.65861 10.1578L9.26691 7.98191Z" fill="#E5E5E5"/>
<path d="M9.26686 7.98145L9.65856 10.1573L7.0816 10.4545L9.26686 7.98145Z" fill="#CCCCCC"/>
<path d="M14.0388 7.62085L16.9559 7.19629L14.8222 9.99841L14.0388 7.62085Z" fill="#D8D8D8"/>
<path d="M16.956 7.19629L17.358 10.6459L14.8223 9.99841L16.956 7.19629Z" fill="#E5E5E5"/>
<path d="M11.5647 6.64453L12.1523 9.76507L9.65778 10.1578L11.5647 6.64453Z" fill="#BFBFBF"/>
<path d="M11.5651 6.64453L14.0389 7.62103L12.1526 9.76507L11.5651 6.64453Z" fill="#E5E5E5"/>
<path d="M14.0392 7.62109L14.8226 9.99865L12.1528 9.76514L14.0392 7.62109Z" fill="#CCCCCC"/>
<path d="M9.16316 20.0927L7.54483 21.8865L6.43158 19.3604L9.16316 20.0927Z" fill="#999999"/>
<path d="M15.7605 21.1437L13.6371 22.6827L12.3589 20.5068L15.7605 21.1437Z" fill="#A5A5A5"/>
<path d="M7.61755 15.0719L5.7106 16.7171L5.22614 14.0742L7.61755 15.0719Z" fill="#999999"/>
<path d="M9.94667 23.0645L11.4619 24.1683L8.73035 24.0197L9.94667 23.0645Z" fill="#BFBFBF"/>
<path d="M9.16388 20.0928L12.3593 20.5067L9.94728 23.0647L9.16388 20.0928Z" fill="#BFBFBF"/>
<path d="M12.3582 20.5068L13.6364 22.6827L9.94617 23.0648L12.3582 20.5068Z" fill="#999999"/>
<path d="M9.94617 23.0647L13.6364 22.6826L11.4614 24.1686L9.94617 23.0647Z" fill="#B2B2B2"/>
<path d="M9.16332 20.0928L9.94671 23.0647L7.54498 21.8866L9.16332 20.0928Z" fill="#A5A5A5"/>
<path d="M9.94671 23.0649L8.73039 24.0201L7.54498 21.8867L9.94671 23.0649Z" fill="#B2B2B2"/>
<path d="M19.4097 17.1634L17.7604 19.2013L16.5235 15.9746L19.4097 17.1634Z" fill="#CCCCCC"/>
<path d="M12.1523 9.76465L9.74024 12.5455L9.65778 10.1574L12.1523 9.76465Z" fill="#B2B2B2"/>
<path d="M17.358 10.6465L15.4614 12.8224L14.8223 9.99902L17.358 10.6465Z" fill="#D8D8D8"/>
<path d="M19.6977 11.6221L20.7285 15.0292L19.0277 13.4477L19.6977 11.6221Z" fill="#E5E5E5"/>
<path d="M17.358 10.6455L19.0279 13.4476L15.4614 12.8214L17.358 10.6455Z" fill="#E5E5E5"/>
<path d="M17.3583 10.6455L19.6982 11.622L19.0281 13.4476L17.3583 10.6455Z" fill="#D8D8D8"/>
<path d="M19.0283 13.4482L19.4097 17.1632L16.5235 15.9744L19.0283 13.4482Z" fill="#F2F2F2"/>
<path d="M19.0277 13.4482L20.7285 15.0297L19.4091 17.1632L19.0277 13.4482Z" fill="#D8D8D8"/>
<path d="M15.4614 12.8223L19.0279 13.4485L16.5231 15.9746L15.4614 12.8223Z" fill="#D8D8D8"/>
<path d="M6.53461 12.3867L9.74035 12.5459L7.61693 15.0721L6.53461 12.3867Z" fill="#BFBFBF"/>
<path d="M9.65789 10.1582L9.74035 12.5464L6.53461 12.3872L9.65789 10.1582Z" fill="#D8D8D8"/>
<path d="M6.53523 12.3867L7.61755 15.0721L5.22614 14.0744L6.53523 12.3867Z" fill="#A5A5A5"/>
<path d="M6.53443 12.3869L5.22534 14.0745L4.86456 11.835L6.53443 12.3869Z" fill="#B2B2B2"/>
<path d="M7.08075 10.4551L6.53443 12.3868L4.86456 11.8349L7.08075 10.4551Z" fill="#F2F2F2"/>
<path d="M7.08092 10.4554L9.65788 10.1582L6.53461 12.3872L7.08092 10.4554Z" fill="#E5E5E5"/>
<path d="M11.3079 17.874L12.3593 20.5063L9.16388 20.0924L11.3079 17.874Z" fill="#A5A5A5"/>
<path d="M9.74036 12.5459L10.3794 15.21L7.61694 15.0721L9.74036 12.5459Z" fill="#999999"/>
<path d="M13.4205 15.2736L11.3074 17.8741L10.3797 15.21L13.4205 15.2736Z" fill="#999999"/>
<path d="M15.4615 12.8223L16.5232 15.9746L13.4205 15.2741L15.4615 12.8223Z" fill="#CCCCCC"/>
<path d="M7.80237 17.9589L11.307 17.874L9.163 20.0924L7.80237 17.9589Z" fill="#BFBFBF"/>
<path d="M7.80252 17.959L9.16316 20.0924L6.43158 19.36L7.80252 17.959Z" fill="#A5A5A5"/>
<path d="M7.61728 15.0723L7.80282 17.9593L5.71033 16.7175L7.61728 15.0723Z" fill="#A5A5A5"/>
<path d="M7.80282 17.9596L6.43188 19.3607L5.71033 16.7178L7.80282 17.9596Z" fill="#BFBFBF"/>
<path d="M10.3793 15.21L11.307 17.8741L7.80237 17.959L10.3793 15.21Z" fill="#A5A5A5"/>
<path d="M7.61694 15.0723L10.3794 15.2102L7.80248 17.9593L7.61694 15.0723Z" fill="#B2B2B2"/>
<path d="M12.4206 11.877L15.4614 12.8216L13.4205 15.2735L12.4206 11.877Z" fill="#D8D8D8"/>
<path d="M14.8223 9.99902L15.4614 12.8224L12.4206 11.8777L14.8223 9.99902Z" fill="#F2F2F2"/>
<path d="M12.1528 9.76465L14.8226 9.99816L12.4208 11.8769L12.1528 9.76465Z" fill="#BFBFBF"/>
<path d="M12.4207 11.877L13.4205 15.2735L10.3797 15.2098L12.4207 11.877Z" fill="#A5A5A5"/>
<path d="M12.1522 9.76465L12.4202 11.8769L9.74017 12.5455L12.1522 9.76465Z" fill="#F2F2F2"/>
<path d="M9.74017 12.5456L12.4202 11.877L10.3793 15.2098L9.74017 12.5456Z" fill="#B2B2B2"/>
<path d="M16.5231 15.9746L17.7601 19.2013L14.7296 18.66L16.5231 15.9746Z" fill="#F2F2F2"/>
<path d="M14.7296 18.6592L17.7601 19.2005L15.7603 21.1429L14.7296 18.6592Z" fill="#D8D8D8"/>
<path d="M13.4208 15.2734L14.7299 18.6593L11.3077 17.8739L13.4208 15.2734Z" fill="#B2B2B2"/>
<path d="M13.4205 15.2734L16.5232 15.974L14.7296 18.6593L13.4205 15.2734Z" fill="#D8D8D8"/>
<path d="M14.7297 18.6592L15.7605 21.1429L12.3589 20.506L14.7297 18.6592Z" fill="#BFBFBF"/>
<path d="M11.3077 17.874L14.7299 18.6595L12.3591 20.5063L11.3077 17.874Z" fill="#999999"/>
<path d="M2.59753 3.11035L4.98896 4.16115L5.87543 6.36888L2.59753 3.11035Z" fill="#727272"/>
<path d="M5.35971 3.23762L5.8751 6.36878L4.98863 4.16105L4.164 2.29297L5.35971 3.23762Z" fill="#A5A5A5"/>
<path d="M0.845093 2.29297L2.59743 3.11025L4.98885 4.16105L4.16422 2.29297H0.845093Z" fill="#8C8C8C"/>
<path d="M2.73143 0.955078L4.16422 2.29245H0.845093L2.73143 0.955078Z" fill="#B2B2B2"/>
<path d="M0 0.955078H2.73158L0.845243 2.29245L0 0.955078Z" fill="#BFBFBF"/>
<path d="M2.73158 0.955268L4.57668 1.09325L2.90681 0L0 0.955268H2.73158Z" fill="#8C8C8C"/>
<path d="M5.45326 1.09325H4.5771L2.90723 0L5.45326 1.09325Z" fill="#A5A5A5"/>
<path d="M5.36013 3.23711L4.57673 1.09306L2.73163 0.955078L4.16442 2.29245L5.36013 3.23711Z" fill="#727272"/>
<path d="M6.38077 6.20925L5.36029 3.2373L5.87568 6.36846L6.38077 6.20925Z" fill="#727272"/>
<path d="M5.45289 1.09277L6.38059 6.20877L5.36012 3.23682L4.57672 1.09277H5.45289Z" fill="#8C8C8C"/>
</svg>
