<svg width="16" height="21" viewBox="0 0 16 21" fill="none" xmlns="http://www.w3.org/2000/svg">
<path d="M15.199 17.3184V16.8184H14.699H1H0.5V17.3184V19.4892V19.9892H1H14.699H15.199V19.4892V17.3184Z" stroke="#362140"/>
<path d="M8.40254 1.57976L8.13766 1.409L7.86935 1.57431L0.73773 5.96811L0.5 6.11457V6.3938V7.68575V8.18575H1H14.9472H15.4472V7.68575V6.3938V6.12124L15.2182 5.97356L8.40254 1.57976Z" stroke="#362140"/>
<path d="M2.31391 14.5252H1.92316V15.0252V15.7875V16.2875H2.42316H2.81391H4.97744H5.36819H5.86819V15.7875V15.0252V14.5252H5.47744V10.4112H5.86819V9.91119V9.14893V8.64893H5.36819H4.97744H2.81391H2.42316H1.92316V9.14893V9.91119V10.4112H2.31391V14.5252Z" stroke="#362140"/>
<path d="M6.35378 14.5252H5.9632V15.0252V15.7875V16.2875H6.4632H6.85378H9.01748H9.40823H9.90823V15.7875V15.0252V14.5252H9.51748V10.4112H9.90823V9.91119V9.14893V8.64893H9.40823H9.01748H6.85378H6.4632H5.9632V9.14893V9.91119V10.4112H6.35378V14.5252Z" stroke="#362140"/>
<path d="M10.394 14.5252H10.0033V15.0252V15.7875V16.2875H10.5033H10.894H13.0577H13.4485H13.9485V15.7875V15.0252V14.5252H13.5577V10.4112H13.9485V9.91119V9.14893V8.64893H13.4485H13.0577H10.894H10.5033H10.0033V9.14893V9.91119V10.4112H10.394V14.5252Z" stroke="#362140"/>
</svg>
