<svg width="91" height="64" viewBox="0 0 91 64" fill="none" xmlns="http://www.w3.org/2000/svg">
<path d="M0 22.1875C0 16.3142 2.04444 11.2 6.13332 6.84496C10.2623 2.60978 15.2063 0.492188 20.9789 0.492188C25.8829 0.492188 30.1321 1.90392 33.7399 4.74069C37.3344 7.57746 39.753 11.4131 40.9823 16.2609H34.849C33.7399 13.1178 31.9627 10.7339 29.5174 9.08242C27.0587 7.43096 24.2259 6.60524 20.9922 6.60524C16.89 6.60524 13.3757 8.12351 10.4226 11.1867C7.48291 14.2499 6.01306 17.9124 6.01306 22.1875C6.01306 26.3827 7.48291 30.0186 10.4226 33.0685C13.3623 36.1317 16.8766 37.6499 20.9655 37.6499C24.2393 37.6499 27.1523 36.7576 29.7045 34.9597C32.2567 33.1617 34.0873 30.6579 35.1964 27.4349H41.2629C40.0336 32.3227 37.5883 36.2648 33.9003 39.2614C30.2256 42.258 25.9096 43.7497 20.9655 43.7497C15.1128 43.7497 10.1687 41.6321 6.11995 37.3969C2.04444 33.0552 0 27.9809 0 22.1875Z" fill="white"/>
<path d="M88.6861 15.8886H81.9382C81.3636 13.6911 80.2946 11.8399 78.7178 10.3216C77.1411 8.81664 75.4307 7.7645 73.6 7.1785C71.756 6.5925 69.8319 6.28618 67.8409 6.28618C63.5115 6.28618 59.8903 7.77782 56.9907 10.7744C54.091 13.771 52.6345 17.5534 52.6345 22.1082C52.6345 26.7163 54.091 30.5386 56.9907 33.5751C59.8903 36.6117 63.5115 38.13 67.8409 38.13C70.7806 38.13 73.5065 37.3975 75.9919 35.9325C78.4907 34.4675 80.348 32.2433 81.5774 29.2734H65.3822V22.9739H88.9935C88.6594 26.8495 88.2585 29.3666 87.7641 30.5519V30.4986C86.2943 34.5341 83.6352 37.8236 79.7868 40.3674C75.9385 42.9112 71.9565 44.1897 67.8275 44.1897C61.6541 44.1897 56.523 42.1121 52.4341 37.9568C48.3452 33.8016 46.3008 28.5276 46.3008 22.1215C46.3008 15.7288 48.3586 10.4415 52.5009 6.25955C56.6299 2.07764 61.7477 0 67.8409 0C70.0457 0 72.2104 0.293 74.3483 0.892318C76.473 1.47832 78.5308 2.38396 80.5084 3.58259C82.486 4.78123 84.2098 6.446 85.6662 8.56359C87.096 10.6812 88.1116 13.1184 88.6861 15.8886Z" fill="white"/>
<path d="M0.547852 60.0122C0.547852 59.1732 0.841823 58.4274 1.42977 57.8014C2.01771 57.1888 2.73928 56.8824 3.56774 56.8824C4.27594 56.8824 4.89061 57.0822 5.39838 57.4951C5.91951 57.9079 6.26693 58.454 6.44064 59.1465H5.55873C5.39838 58.6937 5.1445 58.3474 4.79708 58.1077C4.44966 57.868 4.03542 57.7481 3.56774 57.7481C2.9798 57.7481 2.47203 57.9612 2.04443 58.414C1.61684 58.8535 1.40304 59.3863 1.40304 59.9989C1.40304 60.5982 1.61684 61.1176 2.04443 61.5571C2.47203 61.9966 2.9798 62.223 3.56774 62.223C4.03542 62.223 4.46302 62.0899 4.8238 61.8368C5.18458 61.5838 5.45183 61.2242 5.61218 60.758H6.48073C6.30702 61.4639 5.94624 62.0233 5.42511 62.4628C4.89061 62.8889 4.27594 63.1154 3.56774 63.1154C2.72591 63.1154 2.01771 62.809 1.42977 62.1964C0.841823 61.5704 0.547852 60.8379 0.547852 60.0122Z" fill="white"/>
<path d="M8.68555 59.9849C8.68555 59.1193 8.99288 58.3734 9.60755 57.7342C10.2222 57.1082 10.9705 56.7886 11.8524 56.7886C12.7343 56.7886 13.4826 57.1082 14.1107 57.7342C14.7253 58.3734 15.0327 59.1193 15.0327 59.9849C15.0327 60.8506 14.7253 61.5964 14.1107 62.2357C13.496 62.8617 12.7343 63.1813 11.8524 63.1813C10.9705 63.1813 10.2089 62.8617 9.60755 62.2357C8.99288 61.6097 8.68555 60.8506 8.68555 59.9849ZM14.124 59.9849C14.124 59.3457 13.9102 58.8129 13.4693 58.3734C13.0149 57.9206 12.4805 57.6942 11.8524 57.6942C11.2244 57.6942 10.7033 57.9206 10.2623 58.3734C9.82135 58.8129 9.59419 59.3457 9.59419 59.9849C9.59419 60.6242 9.82135 61.1569 10.2623 61.5964C10.7033 62.0492 11.2378 62.2757 11.8524 62.2757C12.4805 62.2757 13.0149 62.0492 13.4693 61.5964C13.9102 61.1569 14.124 60.6242 14.124 59.9849Z" fill="white"/>
<path d="M18.2796 63.0613H17.3843V56.9083H18.0658L21.0723 61.2367V56.9083H21.9542V63.0613H21.246L18.2662 58.7596V63.0613H18.2796Z" fill="white"/>
<path d="M24.2925 60.0112C24.2925 59.1722 24.5865 58.4264 25.1744 57.8004C25.7623 57.1878 26.4839 56.8815 27.3124 56.8815C28.0206 56.8815 28.6352 57.0812 29.143 57.4941C29.6641 57.907 30.0116 58.453 30.1853 59.1456H29.3034C29.143 58.6927 28.8891 58.3465 28.5417 58.1067C28.1943 57.867 27.7801 57.7472 27.3124 57.7472C26.7244 57.7472 26.2167 57.9602 25.7891 58.4131C25.3615 58.8526 25.1477 59.3853 25.1477 59.9979C25.1477 60.5972 25.3615 61.1167 25.7891 61.5562C26.2167 61.9957 26.7244 62.2221 27.3124 62.2221C27.7801 62.2221 28.2076 62.0889 28.5684 61.8358C28.9292 61.5828 29.1965 61.2232 29.3568 60.7571H30.2254C30.0517 61.4629 29.6909 62.0223 29.1697 62.4618C28.6352 62.888 28.0206 63.1144 27.3124 63.1144C26.4705 63.1144 25.7623 62.8081 25.1744 62.1954C24.5865 61.5695 24.2925 60.837 24.2925 60.0112Z" fill="white"/>
<path d="M33.4326 60.4376V62.1823H36.2921V63.0746H32.5239V56.9349H36.2787V57.8273H33.4192V59.5586H36.2119V60.4509H33.4326V60.4376Z" fill="white"/>
<path d="M38.5903 56.9083H40.8486C41.4766 56.9083 41.971 57.1081 42.3184 57.521C42.6659 57.9338 42.8529 58.4133 42.8529 58.9726C42.8529 59.532 42.6792 60.0115 42.3184 60.411C41.971 60.8106 41.4766 61.0236 40.8486 61.0236H39.4856V63.0746H38.5903V56.9083ZM39.499 60.1313H40.8619C41.2094 60.1313 41.49 60.0115 41.6904 59.7851C41.8908 59.5586 41.9844 59.279 41.9844 58.9726C41.9844 58.6663 41.8908 58.3866 41.6904 58.1469C41.49 57.9205 41.2227 57.8006 40.8619 57.8006H39.499V60.1313Z" fill="white"/>
<path d="M47.7035 63.0613H46.8082V57.7474H44.9375V56.9083H49.5609V57.7474H47.7035V63.0613Z" fill="white"/>
<path d="M61.3333 59.1058H60.3578C60.3044 58.866 60.1975 58.6529 60.0505 58.4665C59.9035 58.28 59.7432 58.1335 59.5427 58.0403C59.3557 57.9338 59.1552 57.8672 58.9548 57.8139C58.7544 57.7606 58.5406 57.734 58.3268 57.734C57.7121 57.734 57.191 57.9471 56.7767 58.3866C56.3625 58.8128 56.1487 59.3588 56.1487 60.0114C56.1487 60.6773 56.3625 61.2234 56.7767 61.6495C57.191 62.089 57.7121 62.3021 58.3268 62.3021C58.7544 62.3021 59.1419 62.1956 59.5026 61.9958C59.8634 61.7827 60.1307 61.4764 60.3044 61.0369H57.9927V60.1313H61.3734C61.3199 60.6906 61.2665 61.0502 61.1997 61.21V61.1967C60.9992 61.7827 60.6117 62.2489 60.0639 62.6218C59.516 62.9947 58.9414 63.1678 58.3401 63.1678C57.4582 63.1678 56.7233 62.8748 56.1353 62.2755C55.5474 61.6762 55.2534 60.917 55.2534 60.0114C55.2534 59.0924 55.5474 58.3333 56.1353 57.734C56.7233 57.1347 57.4582 56.8417 58.3401 56.8417C58.6608 56.8417 58.9682 56.8816 59.2755 56.9749C59.5828 57.0548 59.8768 57.188 60.1574 57.3611C60.438 57.5342 60.6919 57.7739 60.8923 58.0669C61.1061 58.3466 61.2531 58.7062 61.3333 59.1058Z" fill="white"/>
<path d="M64.8208 60.3711V59.9449H65.863C66.2105 59.9449 66.4911 59.8383 66.6915 59.6252C66.8919 59.4121 66.9855 59.1591 66.9855 58.8661C66.9855 58.5731 66.8919 58.3334 66.6915 58.1203C66.4911 57.9072 66.2238 57.8006 65.863 57.8006H64.5001V63.0613H63.6182V56.9083H65.863C66.5044 56.9083 66.9855 57.1081 67.3463 57.4943C67.6937 57.8806 67.8808 58.3467 67.8808 58.8661C67.8808 59.3189 67.7471 59.7318 67.4665 60.0781C67.1859 60.4243 66.7984 60.6507 66.2906 60.744L68.2415 63.0613H67.0924L64.8208 60.3711Z" fill="white"/>
<path d="M70.1792 59.9849C70.1792 59.1193 70.4865 58.3734 71.1012 57.7342C71.7159 57.1082 72.4642 56.7886 73.3461 56.7886C74.228 56.7886 74.9763 57.1082 75.6043 57.7342C76.219 58.3734 76.5263 59.1193 76.5263 59.9849C76.5263 60.8506 76.219 61.5964 75.6043 62.2357C74.9896 62.8617 74.228 63.1813 73.3461 63.1813C72.4642 63.1813 71.7025 62.8617 71.1012 62.2357C70.4865 61.6097 70.1792 60.8506 70.1792 59.9849ZM75.631 59.9849C75.631 59.3457 75.4039 58.8129 74.9629 58.3734C74.5086 57.9206 73.9741 57.6942 73.3461 57.6942C72.718 57.6942 72.1969 57.9206 71.756 58.3734C71.315 58.8129 71.0878 59.3457 71.0878 59.9849C71.0878 60.6242 71.315 61.1569 71.756 61.5964C72.1969 62.0492 72.7314 62.2757 73.3461 62.2757C73.9741 62.2757 74.5086 62.0492 74.9629 61.5964C75.4172 61.1569 75.631 60.6242 75.631 59.9849Z" fill="white"/>
<path d="M81.1632 63.1279C80.7891 63.1279 80.4283 63.0613 80.0942 62.9148C79.7602 62.7816 79.4662 62.5552 79.239 62.2622C79.0119 61.9692 78.8916 61.6096 78.8916 61.2101V56.9083H79.7869V61.2101C79.7869 61.5297 79.9339 61.7695 80.2145 61.9559C80.4951 62.1291 80.8158 62.2223 81.1766 62.2223C81.524 62.2223 81.8447 62.1291 82.1253 61.9559C82.4059 61.7695 82.5529 61.5297 82.5529 61.2101V56.9083H83.4482V61.2101C83.4482 61.5963 83.3279 61.9426 83.1007 62.2489C82.8736 62.5552 82.5796 62.7683 82.2455 62.9015C81.8848 63.0613 81.5373 63.1279 81.1632 63.1279Z" fill="white"/>
<path d="M85.853 56.9083H88.1113C88.7393 56.9083 89.2337 57.1081 89.5811 57.521C89.9285 57.9338 90.1156 58.4133 90.1156 58.9726C90.1156 59.532 89.9419 60.0115 89.5811 60.411C89.2337 60.8106 88.7393 61.0236 88.1113 61.0236H86.7483V63.0746H85.853V56.9083ZM86.7483 60.1313H88.1113C88.4587 60.1313 88.7393 60.0115 88.9397 59.7851C89.1401 59.5586 89.2337 59.279 89.2337 58.9726C89.2337 58.6663 89.1401 58.3866 88.9397 58.1469C88.7393 57.9205 88.472 57.8006 88.1113 57.8006H86.7483V60.1313Z" fill="white"/>
</svg>
