<svg width="15" height="18" viewBox="0 0 15 18" fill="none" xmlns="http://www.w3.org/2000/svg">
<path d="M1.53003 2.34642C0.626938 3.1227 0.354431 4.2677 0.570551 5.40065C0.766922 6.43006 1.35037 7.48228 2.21335 8.45338C2.20456 8.62242 2.18891 8.81836 2.17075 9.04562C2.15788 9.20663 2.14375 9.38336 2.12993 9.57739C2.08988 10.1394 2.05634 10.8067 2.08042 11.5374C2.13042 13.0552 2.43918 14.8593 3.50213 16.5874C3.5339 16.6398 3.57169 16.6882 3.61467 16.7316L3.61464 16.7316L3.61928 16.7362C3.75469 16.8696 3.95137 17.0139 4.22614 17.06C4.53118 17.1111 4.82881 16.9974 5.01769 16.8372L5.01773 16.8372C5.32116 16.5798 5.42402 16.2432 5.49648 16.0061C5.49941 15.9965 5.5023 15.9871 5.50514 15.9778C5.6223 15.5965 5.72088 15.092 5.82208 14.574C5.86519 14.3534 5.90877 14.1303 5.95447 13.9133C6.11534 13.1494 6.31215 12.4163 6.57609 11.9006C6.8351 11.3944 7.04798 11.2582 7.24647 11.2395C7.44495 11.2582 7.65783 11.3944 7.91684 11.9006C8.18078 12.4163 8.3776 13.1494 8.53846 13.9133C8.58414 14.1303 8.62772 14.3533 8.67082 14.5738C8.77204 15.0919 8.87063 15.5964 8.98778 15.9778L9.46574 15.831L8.98778 15.9778C8.99061 15.987 8.99348 15.9964 8.9964 16.006C9.06887 16.2431 9.17173 16.5798 9.47518 16.8372L9.47522 16.8372C9.66407 16.9974 9.96175 17.1112 10.2669 17.06C10.5415 17.0139 10.7382 16.8696 10.8737 16.7362L10.8737 16.7362L10.8783 16.7316C10.9211 16.6883 10.9588 16.64 10.9906 16.5878C12.0538 14.8595 12.3626 13.0553 12.4125 11.5374C12.4366 10.8066 12.403 10.1394 12.363 9.57738C12.3492 9.38356 12.335 9.207 12.3222 9.04614C12.304 8.81866 12.2883 8.62255 12.2796 8.4534C13.1426 7.4823 13.726 6.43007 13.9224 5.40066C14.1329 4.29702 13.8704 3.19051 13.0317 2.41872C13.0268 2.41241 13.0216 2.40612 13.0163 2.39987L13.0125 2.39393L13.0065 2.38881C12.9886 2.36912 12.9682 2.34996 12.9454 2.33201C12.9334 2.32265 12.9211 2.31382 12.9083 2.30557C12.2575 1.77061 11.4162 1.52224 10.5404 1.5016L10.5404 1.5016C9.51245 1.47745 8.37338 1.72861 7.24645 2.23805C6.30342 1.81179 5.35201 1.56634 4.46427 1.5117V1.48947L3.95248 1.50154C3.05494 1.52271 2.18892 1.78 1.53003 2.34642ZM1.53003 2.34642L1.85537 2.72489L1.53003 2.34642Z" stroke="#362140"/>
</svg>
