<svg width="20" height="19" viewBox="0 0 20 19" fill="none" xmlns="http://www.w3.org/2000/svg">
<path d="M19.3334 3.13457V6.08618H0.670715V3.13457C0.670715 2.62902 1.08297 2.2168 1.58853 2.2168H2.61904V3.45731C2.61904 4.27012 3.28018 4.93122 4.09295 4.93122C4.90576 4.93122 5.56683 4.27012 5.56683 3.45731V2.2168H8.3163V3.45731C8.3163 4.27012 8.97737 4.93122 9.79014 4.93122C10.6029 4.93122 11.264 4.27012 11.264 3.45731V2.2168H14.0173V3.45731C14.0173 4.27012 14.6784 4.93122 15.4912 4.93122C16.304 4.93122 16.9651 4.27012 16.9651 3.45731V2.2168H18.4117C18.9212 2.2168 19.3334 2.62902 19.3334 3.13457Z" fill="black"/>
<path d="M0.666748 6.86328V17.5577C0.666748 18.0671 1.0829 18.4794 1.58845 18.4794H18.4156C18.9211 18.4794 19.3333 18.0671 19.3333 17.5577V6.86328H0.666748ZM4.94489 15.9481C4.94489 16.2533 4.69511 16.5031 4.38987 16.5031H2.26418C1.95882 16.5031 1.70912 16.2533 1.70912 15.9481V13.8222C1.70912 13.517 1.95882 13.2672 2.26418 13.2672H4.38987C4.69511 13.2672 4.94489 13.517 4.94489 13.8222V15.9481ZM9.3925 15.9481C9.3925 16.2533 9.14268 16.5031 8.83744 16.5031H6.71179C6.40644 16.5031 6.15673 16.2533 6.15673 15.9481V13.8222C6.15673 13.517 6.40644 13.2672 6.71179 13.2672H8.83744C9.14268 13.2672 9.3925 13.517 9.3925 13.8222V15.9481ZM9.3925 11.5219C9.3925 11.8271 9.14268 12.0769 8.83744 12.0769H6.71179C6.40644 12.0769 6.15673 11.8271 6.15673 11.5219V9.39602C6.15673 9.09082 6.40644 8.841 6.71179 8.841H8.83744C9.14268 8.841 9.3925 9.09082 9.3925 9.39602V11.5219ZM13.8401 15.9481C13.8401 16.2533 13.5903 16.5031 13.2851 16.5031H11.1594C10.8541 16.5031 10.6044 16.2533 10.6044 15.9481V13.8222C10.6044 13.517 10.8541 13.2672 11.1594 13.2672H13.2851C13.5903 13.2672 13.8401 13.517 13.8401 13.8222V15.9481ZM13.8401 11.5219C13.8401 11.8271 13.5903 12.0769 13.2851 12.0769H11.1594C10.8541 12.0769 10.6044 11.8271 10.6044 11.5219V9.39602C10.6044 9.09082 10.8541 8.841 11.1594 8.841H13.2851C13.5903 8.841 13.8401 9.09082 13.8401 9.39602V11.5219ZM18.2877 11.5219C18.2877 11.8271 18.0379 12.0769 17.7327 12.0769H15.6069C15.3016 12.0769 15.0519 11.8271 15.0519 11.5219V9.39602C15.0519 9.09082 15.3016 8.841 15.6069 8.841H17.7327C18.0379 8.841 18.2877 9.09082 18.2877 9.39602V11.5219Z" fill="black"/>
<path d="M4.09199 0.666992C3.70746 0.666992 3.39569 0.978685 3.39569 1.36325V3.4543C3.39569 3.83883 3.70746 4.15056 4.09199 4.15056C4.47656 4.15056 4.78833 3.83883 4.78833 3.4543V1.36325C4.78833 0.978685 4.47656 0.666992 4.09199 0.666992Z" fill="black"/>
<path d="M9.79058 0.666992C9.40597 0.666992 9.09424 0.978685 9.09424 1.36325V3.4543C9.09424 3.83883 9.40597 4.15056 9.79058 4.15056C10.1751 4.15056 10.4868 3.83883 10.4868 3.4543V1.36325C10.4868 0.978685 10.1751 0.666992 9.79058 0.666992Z" fill="black"/>
<path d="M15.4894 0.666992C15.1048 0.666992 14.7932 0.978685 14.7932 1.36325V3.4543C14.7932 3.83883 15.1048 4.15056 15.4894 4.15056C15.874 4.15056 16.1857 3.83883 16.1857 3.4543V1.36325C16.1857 0.978685 15.874 0.666992 15.4894 0.666992Z" fill="black"/>
</svg>
