<svg width="16" height="16" viewBox="0 0 16 16" fill="none" xmlns="http://www.w3.org/2000/svg">
<path d="M3.39062 14.6805L3.74417 14.327L3.39062 14.6805C3.77143 15.0613 4.28791 15.2752 4.82646 15.2752C5.365 15.2752 5.88149 15.0613 6.2623 14.6805C6.64311 14.2997 6.85704 13.7832 6.85704 13.2447C6.85704 12.8637 6.74997 12.4937 6.5525 12.1751H10.7749C10.5718 12.4884 10.4575 12.8543 10.4489 13.2334C10.4428 13.5038 10.4908 13.7727 10.59 14.0243C10.6893 14.2759 10.8378 14.5052 11.0268 14.6986C11.2159 14.892 11.4417 15.0457 11.691 15.1507C11.9403 15.2557 12.208 15.3098 12.4785 15.3099C12.749 15.3099 13.0167 15.2559 13.2661 15.1511C13.5154 15.0463 13.7413 14.8927 13.9304 14.6993C14.1196 14.506 14.2682 14.2768 14.3676 14.0252C14.4669 13.7737 14.5151 13.5048 14.5091 13.2344C14.5007 12.855 14.3863 12.4887 14.1831 12.1751H14.4691C14.9153 12.1751 15.2752 11.8103 15.2752 11.3689V10.1835V9.6835H14.7752H7.36269L14.618 7.61075L14.6285 7.60775L14.6388 7.6043C14.8176 7.54468 14.9741 7.43224 15.0876 7.28184L14.6885 6.98059L15.0876 7.28184C15.2011 7.13144 15.2664 6.95014 15.2748 6.76187L15.2752 6.75078V6.73969V2.53058V2.03058H14.7752H4.56117V1.30612C4.56117 0.86161 4.19879 0.5 3.75582 0.5H1.30535V0.499994L1.30286 0.500006C1.08991 0.501068 0.886009 0.586271 0.735616 0.737041C0.585223 0.887811 0.50053 1.09192 0.500002 1.30488H0.5V1.30612V2.53058V3.03058H1H2.12596L3.49729 9.46144L3.56117 10.1308V11.3689C3.56117 11.458 3.57577 11.5439 3.60272 11.6242C3.52826 11.6805 3.45736 11.7421 3.39062 11.8088L3.74417 12.1624L3.39062 11.8088C3.00981 12.1896 2.79587 12.7061 2.79587 13.2447C2.79587 13.7832 3.00981 14.2997 3.39062 14.6805Z" stroke="#362140"/>
</svg>
