<svg width="19" height="25" viewBox="0 0 19 25" fill="none" xmlns="http://www.w3.org/2000/svg">
<path d="M15.124 14.9378C15.1769 14.9916 15.2256 15.0381 15.2688 15.0778V22.2301C15.2688 23.014 15.908 23.6532 16.6918 23.6532C17.4756 23.6532 18.1149 23.014 18.1149 22.2301V1.6346C18.1149 1.38901 18.052 1.16378 17.9175 0.976325C17.7853 0.79196 17.6109 0.681781 17.4502 0.616278C17.1628 0.499191 16.848 0.499738 16.7087 0.49998C16.7028 0.49999 16.6971 0.5 16.6918 0.5C16.0666 0.5 15.5843 0.974117 15.2388 1.49501C14.8742 2.04492 14.5556 2.80326 14.2918 3.68242C13.7624 5.44701 13.4227 7.80388 13.4227 10.2305C13.4227 11.974 13.9136 13.2184 14.421 14.0351C14.6736 14.4416 14.9283 14.739 15.124 14.9378Z" stroke="#362140"/>
<path d="M11.1536 0.5H10.9333H10.6032H10.4613H9.99975H9.85785H9.52776H9.30746H8.84594H8.4455L8.35802 0.890764L8.80602 0.991062L8.80602 0.99107L8.358 0.890854L8.35794 0.891086L8.35775 0.89197L8.35698 0.895411L8.35397 0.908866L8.34232 0.96118L8.29821 1.16027C8.26023 1.33224 8.20601 1.57913 8.14096 1.8791C8.01088 2.47889 7.83736 3.29155 7.66375 4.14223C7.49028 4.99225 7.31609 5.88331 7.18506 6.63892C7.05715 7.37654 6.96136 8.03301 6.96136 8.38439C6.96136 9.67596 7.71796 10.7946 8.80746 11.3238V22.2301C8.80746 23.014 9.44669 23.6532 10.2305 23.6532C11.0143 23.6532 11.6536 23.014 11.6536 22.2301V11.3241C12.7422 10.7969 13.4997 9.68746 13.4997 8.38439C13.4997 8.03024 13.4039 7.37255 13.276 6.63411C13.1449 5.87789 12.9707 4.98715 12.7973 4.13782C12.6236 3.28783 12.4501 2.47623 12.32 1.87732C12.255 1.5778 12.2008 1.33131 12.1628 1.15962L12.1187 0.960867L12.107 0.908643L12.104 0.89521L12.1032 0.891775L12.103 0.890891L12.103 0.89066L11.655 0.991053L11.655 0.991046L12.103 0.890569L12.0154 0.5H11.6151H11.1536Z" stroke="#362140"/>
<path d="M3.76915 0.5C3.17214 0.5 2.68029 0.859904 2.30493 1.31748C1.92432 1.78147 1.60226 2.41603 1.34113 3.13744C0.81729 4.58459 0.5 6.48944 0.5 8.38439C0.5 9.67596 1.25659 10.7946 2.3461 11.3238V22.2301C2.3461 23.014 2.98533 23.6532 3.76915 23.6532C4.55297 23.6532 5.1922 23.014 5.1922 22.2301V11.3241C6.28085 10.7969 7.0383 9.68746 7.0383 8.38439C7.0383 6.48944 6.721 4.58459 6.19717 3.13744C5.93603 2.41603 5.61398 1.78147 5.23336 1.31748C4.85801 0.859904 4.36616 0.5 3.76915 0.5Z" stroke="#362140"/>
</svg>
