<svg width="72" height="39" viewBox="0 0 72 39" fill="none" xmlns="http://www.w3.org/2000/svg">
<path d="M71.2119 0.199562C70.8728 0.0199562 69.8457 0 69.5366 0C66.0862 0 63.0247 1.63641 62.3366 1.97567C59.0657 3.62206 56.812 5.59772 55.5056 6.72525C52.6535 9.19982 50.9184 11.5447 49.8812 12.7421C47.3882 15.6158 44.0176 21.8122 43.7583 22.3011C42.7411 24.177 42.9206 23.8776 41.4746 26.6316C40.5871 28.3179 39.2807 30.8923 38.7622 31.8601C38.2636 32.7981 37.7151 33.8857 37.4259 34.3846C37.2663 34.674 36.7079 35.6219 36.2691 35.9711C36.1395 36.0709 36.0198 36.2006 35.8204 36.2106C35.6508 36.2206 35.5312 36.0509 35.4913 35.9412C35.3018 35.4922 35.7206 34.1751 35.7206 34.1751C35.9201 33.4566 36.7478 31.5009 37.4359 30.2936C38.3134 28.747 39.3306 26.8511 41.3649 23.0594C42.1627 21.5727 45.4237 14.6179 46.2613 12.4926C47.2187 10.0679 47.7272 7.21418 47.3184 5.70748C47.2187 5.33829 46.9694 5.03895 46.6403 4.86932C46.1815 4.63982 45.663 4.82941 45.4635 4.92919C45.1644 5.07886 44.6558 5.50792 44.586 5.58775C43.2996 6.87492 42.063 8.4814 41.2253 9.57899C40.8065 10.1278 38.6525 13.1911 37.4159 15.027C37.0968 15.506 34.3844 19.5372 31.2032 23.8677C28.9196 26.9709 27.7728 28.5274 26.5661 29.8246C24.9606 31.5309 20.0144 37.7472 12.6449 38.0965C11.4382 38.1563 8.59612 38.4257 5.56456 37.1785C4.01886 36.5399 1.25654 35.1928 1.24657 31.4011C1.24657 29.8745 2.05432 28.8268 2.55294 28.1283C4.17841 25.8533 6.53187 25.0251 8.05762 24.4963C9.12465 24.1271 10.8598 23.6581 12.9939 23.6881C14.3003 23.708 16.1252 23.7579 17.8404 24.8754C18.9174 25.5739 20.1939 26.8411 19.7451 28.8068C18.8277 32.828 13.8415 33.307 11.7773 33.1273C11.6177 33.1174 10.2316 32.9777 9.60332 32.2892C9.49362 32.1695 9.27423 31.8701 9.27423 31.5408C9.27423 31.0918 9.65318 30.9022 9.64321 30.7126C9.59335 30.1638 9.04487 30.3534 8.89529 30.4632C8.52632 30.7426 8.46648 31.3113 8.58615 31.7304C8.75568 32.3291 9.82271 33.3369 11.2188 33.5963C16.0055 34.4944 19.2365 31.8701 20.0044 29.8346C20.8121 27.6993 20.503 25.9132 18.1595 24.147C15.6465 22.2512 11.7174 21.9219 8.82548 22.4907C7.1302 22.82 3.37066 23.4785 1.27649 26.6017C-1.04705 30.074 0.458763 33.287 0.728014 33.7859C1.52579 35.3026 2.6726 36.0809 3.46041 36.6696C6.38228 38.8648 12.1861 39.3936 15.7063 38.7251C22.5473 37.4379 25.7783 33.746 26.6359 32.8579C27.703 31.7504 28.3711 30.8424 29.6475 29.0762C31.0935 27.0806 32.0808 25.5041 32.5894 24.6859C38.5428 15.1667 38.0342 16.0548 38.3932 15.4461C39.8891 12.8818 41.5644 10.5269 43.2896 8.11221C43.878 7.28403 44.0076 7.14433 45.0846 6.07667C45.2142 5.94696 45.8724 5.43807 46.0818 5.64761C46.2713 5.8372 46.0718 6.68534 45.7228 7.40376C45.0347 8.82066 44.7555 9.41934 43.9777 10.936C42.9106 13.0115 41.7539 15.047 40.5971 17.0726C38.1339 21.423 34.6436 28.9864 34.0553 33.4267C33.9655 34.1351 33.9356 35.8514 34.7334 36.5498C34.9927 36.7793 36.2691 37.2084 37.0968 36.1108C37.6952 35.3225 40.3478 30.4632 40.8065 29.5751C41.3051 28.6172 45.3638 20.6048 48.9738 15.3763C52.2347 10.6566 54.5184 8.4814 55.8746 7.30398C58.3377 5.16866 61.2596 3.5123 61.13 3.66197C60.8806 3.94136 58.8962 5.35825 56.2435 8.35168C52.4341 12.6622 50.4796 16.6136 49.4624 18.6192C47.2286 23.0295 46.6802 27.7392 46.7001 29.2459C46.72 31.4211 46.5405 34.0154 48.8541 35.1828C51.0779 36.3104 52.7233 35.2926 53.3915 34.6041C53.4713 34.5243 54.0098 33.9755 53.8702 33.736C53.7904 33.6063 53.5112 33.5963 53.3017 33.6761C52.9028 33.8358 53.0026 34.2948 52.5538 34.654C52.2746 34.8835 51.1976 35.6219 50.0807 35.0432C48.7743 34.3646 49.2031 32.2393 49.2031 32.1196C49.2031 31.6107 49.4225 30.3534 49.5422 29.625C50.0707 26.5318 51.3671 18.7988 58.6169 8.2519C58.6169 8.2519 60.9405 4.74958 63.643 2.83379C64.71 2.08543 65.5477 1.74617 66.2856 1.49672C68.6391 0.68849 69.2773 1.15746 69.6163 1.37698C70.0152 1.63641 70.0751 1.94573 70.5039 2.0954C70.5836 2.12534 71.3715 2.37479 71.88 1.66635C72.0296 1.44683 72.2191 0.728403 71.2119 0.199562Z"/>
<path d="M16.8431 19.2278C17.7406 19.9363 18.668 20.3753 19.4957 20.6547C19.8946 21.6226 20.4829 22.2213 20.8718 22.6204C21.2907 23.0395 22.248 23.9774 23.8236 24.4364C24.0729 24.5062 25.8879 25.0151 27.3139 24.3965C27.7028 24.2269 28.73 23.708 28.9195 22.9696C28.9693 22.7701 28.7599 22.6004 28.5804 22.5904C28.4807 22.5904 28.2713 22.6304 28.1715 22.8599C28.0818 23.0594 27.9322 23.3588 27.7128 23.5683C27.5134 23.7579 26.9948 24.0073 26.3566 24.1071C25.9677 24.167 25.2596 24.2668 24.3222 24.0672C22.3477 23.6481 21.1511 22.2911 20.9417 22.0317C20.7622 21.8122 20.443 21.413 20.1439 20.8343C20.822 21.0139 21.3904 21.0937 21.7594 21.1336C22.0486 21.1736 26.0076 21.6126 29.5976 19.2079C31.1732 18.1602 34.6036 15.1867 32.1006 11.395C31.3327 10.2276 29.2984 8.85058 25.0403 10.018C21.6696 10.946 20.2137 13.5802 19.6951 14.7975C18.7178 17.0925 19.0968 19.2378 19.2464 19.8864C17.7106 19.1081 17.0226 17.8309 17.0226 17.8309C16.3544 16.5836 16.514 15.3862 16.5239 15.047C16.6137 11.5846 19.7051 7.93259 26.1372 6.02677C31.2131 4.53005 35.6308 4.00121 43.1299 4.07106C44.4562 4.08104 45.5033 4.1409 46.3709 4.1409C47.2285 4.1409 47.9166 4.1409 48.2158 4.1409C48.7244 4.15088 49.5421 4.1409 50.649 4.07106C50.8484 4.06108 51.4268 4.02117 51.9653 3.68191C52.2745 3.48235 52.3941 3.31272 52.4241 3.14309C52.4739 2.94353 52.4041 2.76392 52.3842 2.71403C52.2944 2.48454 52.1249 2.3648 52.0651 2.32489C52.0152 2.29495 51.7459 2.11535 51.3869 2.18519C51.3171 2.19517 50.9881 2.26502 50.8883 2.50449C50.8285 2.65416 50.9182 2.71403 50.8883 2.89364C50.8285 3.20296 50.4994 3.39255 50.4296 3.43246C50.1504 3.57215 49.921 3.56217 49.6219 3.56217C49.2429 3.5522 48.4252 3.53224 47.9764 3.54222C46.9493 3.54222 46.4706 3.53224 45.982 3.5023C45.4435 3.47237 44.4662 3.43246 42.033 3.42248C39.9488 3.4125 39.8889 3.4125 38.2136 3.4125C37.6053 3.4125 36.0795 3.47237 34.2247 3.52226C28.4508 3.67193 24.3322 4.6897 21.6198 5.65758C19.2962 6.48576 18.2192 7.21416 17.8104 7.51351C17.0126 8.08226 15.796 8.97031 14.8885 10.5768C14.5195 11.2353 13.981 12.2232 13.9312 13.6101C13.8813 14.9572 14.3201 15.955 14.5395 16.424C15.2176 17.9406 16.2846 18.7988 16.8431 19.2278ZM19.6552 16.5537C19.9843 15.3064 20.4929 14.4483 20.8619 13.8795C21.181 13.4006 21.8292 12.4527 23.0358 11.5946C24.1029 10.8362 25.1101 10.487 25.6386 10.3872C29.0491 9.68874 30.6746 10.7464 31.6917 12.742C33.5566 16.404 27.0048 20.7545 22.0386 20.515C21.1311 20.4751 20.3732 20.3154 19.8347 20.1558C19.735 19.8664 19.2464 18.1003 19.6552 16.5537Z"/>
</svg>
