<svg width="20" height="20" viewBox="0 0 20 20" fill="none" xmlns="http://www.w3.org/2000/svg">
<path d="M1.32803 20C2.04596 20 3.2689 19.5138 5.61785 15.3547C6.97148 14.7338 8.45714 14.1776 9.9259 13.7422C10.9932 13.4262 12.0615 13.1778 13.1053 13.0038C14.8261 14.06 16.8258 14.7362 18.2495 14.7362C19.8236 14.7362 19.9861 13.8458 19.9985 13.5731C20.0156 13.1996 19.8825 12.8538 19.6136 12.5724C19.0428 11.9749 17.879 11.672 16.155 11.672C15.2971 11.672 14.3491 11.7493 13.3342 11.9018C12.3073 11.2244 11.4591 10.4262 10.8734 9.58511C10.3231 8.79556 9.83477 7.93178 9.41979 7.01489C10.5436 3.72356 10.7623 1.56178 10.0697 0.588222C9.79565 0.203556 9.38978 0 8.89545 0C8.34355 0 7.89235 0.244 7.59072 0.705556C6.69497 2.07622 7.3909 4.93844 8.28932 7.05911C7.87079 8.24067 7.34845 9.514 6.77299 10.7556C6.12396 12.1562 5.48227 13.4298 4.8648 14.5442C3.10108 15.3787 0.288691 16.9302 0.0217444 18.44C-0.0553835 18.8776 0.0735335 19.2787 0.394714 19.5998C0.656549 19.8616 0.979286 20 1.32803 20ZM16.1548 12.7247C18.1479 12.7247 18.7231 13.1644 18.8521 13.2993C18.9403 13.3916 18.9494 13.4653 18.9456 13.5373C18.9256 13.5684 18.7494 13.6833 18.2493 13.6833C17.4678 13.6833 16.2322 13.3978 14.9023 12.7776C15.3397 12.7424 15.7581 12.7247 16.1548 12.7247ZM8.47225 1.28133C8.57694 1.12111 8.70363 1.05267 8.89545 1.05267C9.07171 1.05267 9.14929 1.11089 9.21152 1.19822C9.52026 1.63222 9.54093 2.97178 8.80855 5.46378C8.13151 3.434 8.09728 1.85489 8.47225 1.28133ZM7.72831 11.198C8.15218 10.2833 8.54827 9.35089 8.89701 8.44822L8.91101 8.47956L8.93324 8.41533C9.26042 9.03578 9.62028 9.62822 10.0093 10.1867C10.4896 10.8764 11.1204 11.5367 11.8657 12.134L11.7601 12.1504L11.8052 12.1793C11.0833 12.3322 10.3544 12.5176 9.62695 12.7331C8.56427 13.048 7.49226 13.4244 6.46426 13.8424L6.49738 13.7831L6.45559 13.8027C6.87412 12.9942 7.29999 12.1229 7.72831 11.198ZM1.05864 18.6231C1.14577 18.1302 2.04885 17.2538 3.86391 16.2393C2.23845 18.7982 1.48117 18.9473 1.32803 18.9473C1.27757 18.9473 1.21978 18.9362 1.1391 18.8558C1.05286 18.7691 1.04419 18.7051 1.05864 18.6231Z"/>
</svg>
