<svg width="19" height="19" viewBox="0 0 19 19" fill="none" xmlns="http://www.w3.org/2000/svg">
<mask id="path-1-outside-1" maskUnits="userSpaceOnUse" x="0" y="0" width="19" height="19" fill="black">
<rect fill="white" width="19" height="19"/>
<path fill-rule="evenodd" clip-rule="evenodd" d="M10.522 7.8016V1L7.80144 1V7.8016H1V10.5222H7.80144V17.3234H10.522V10.5222H17.3234V7.8016H10.522Z"/>
</mask>
<path d="M10.522 1H11.522V1.78814e-07L10.522 1.19209e-07V1ZM10.522 7.8016H9.52201V8.8016H10.522V7.8016ZM7.80144 1V0H6.80144V1H7.80144ZM7.80144 7.8016V8.8016H8.80144V7.8016H7.80144ZM1 7.8016V6.8016H0V7.8016H1ZM1 10.5222H0V11.5222H1V10.5222ZM7.80144 10.5222H8.80144V9.52217H7.80144V10.5222ZM7.80144 17.3234H6.80144V18.3234H7.80144V17.3234ZM10.522 17.3234V18.3234H11.522V17.3234H10.522ZM10.522 10.5222V9.52217H9.522V10.5222H10.522ZM17.3234 10.5222V11.5222H18.3234V10.5222H17.3234ZM17.3234 7.8016H18.3234V6.8016H17.3234V7.8016ZM9.52201 1V7.8016H11.522V1H9.52201ZM7.80144 2L10.522 2V1.19209e-07L7.80144 0V2ZM8.80144 7.8016V1H6.80144V7.8016H8.80144ZM1 8.8016H7.80144V6.8016H1V8.8016ZM2 10.5222V7.8016H0V10.5222H2ZM7.80144 9.52217H1V11.5222H7.80144V9.52217ZM8.80144 17.3234V10.5222H6.80144V17.3234H8.80144ZM10.522 16.3234H7.80144V18.3234H10.522V16.3234ZM9.522 10.5222V17.3234H11.522V10.5222H9.522ZM17.3234 9.52217H10.522V11.5222H17.3234V9.52217ZM16.3234 7.8016V10.5222H18.3234V7.8016H16.3234ZM10.522 8.8016H17.3234V6.8016H10.522V8.8016Z" fill="#362140" mask="url(#path-1-outside-1)"/>
</svg>
