<svg width="16" height="16" viewBox="0 0 16 16" fill="none" xmlns="http://www.w3.org/2000/svg">
<path d="M14.8055 12.6415L12.8316 14.5995C12.5403 14.8983 12.1541 14.9995 11.7779 15C10.1146 14.9502 8.54239 14.1331 7.25149 13.2942C5.13257 11.7526 3.18837 9.84123 1.96815 7.53137C1.50015 6.56277 0.951025 5.32691 1.00349 4.24577C1.00817 3.83907 1.11777 3.43992 1.40419 3.17777L3.37803 1.20492C3.7879 0.856288 4.18428 0.976828 4.44657 1.38292L6.03453 4.39411C6.20167 4.75084 6.10579 5.13307 5.85643 5.38797L5.12922 6.1148C5.08433 6.1763 5.05574 6.2463 5.05502 6.32248C5.33388 7.40191 6.17867 8.3968 6.92497 9.08149C7.67125 9.76618 8.47342 10.6938 9.5147 10.9134C9.6434 10.9493 9.80106 10.9619 9.89314 10.8763L10.7391 10.016C11.0307 9.79495 11.4518 9.68692 11.7631 9.86765H11.7779L14.6422 11.5586C15.0627 11.8222 15.1065 12.3316 14.8055 12.6415V12.6415Z"/>
</svg>
