<svg width="21" height="18" viewBox="0 0 21 18" fill="none" xmlns="http://www.w3.org/2000/svg">
<path d="M20.1155 5.45103C20.0058 4.96254 19.6277 4.62284 19.1699 4.39205L12.2834 0.920839C11.7137 0.633655 11.0563 0.5 10.3277 0.5C9.599 0.5 8.94162 0.633655 8.37188 0.920839L1.48765 4.39094C0.950619 4.65528 0.5 5.07079 0.5 5.69256C0.5 6.3106 0.946202 6.73269 1.48088 7.00911L1.48087 7.00913L1.48545 7.01144L8.37188 10.4827C8.94162 10.7698 9.599 10.9035 10.3277 10.9035C11.0563 10.9035 11.7137 10.7698 12.2834 10.4827L12.2839 10.4824L17.9894 7.59835V14.5175C17.9894 14.8129 18.1022 15.076 18.3074 15.2829L18.6624 14.9308L18.3074 15.2829C18.5128 15.4899 18.7756 15.6052 19.0723 15.6052C19.369 15.6052 19.6319 15.4899 19.8372 15.2829L19.4822 14.9308L19.8372 15.2829C20.0425 15.076 20.1553 14.8129 20.1553 14.5175V5.68338C20.1553 5.6411 20.1522 5.58215 20.1361 5.51713C20.1314 5.49847 20.1249 5.47595 20.1155 5.45103ZM16.6574 11.6577V10.8439L15.9315 11.2117L12.4163 12.9928C12.4161 12.9928 12.416 12.9929 12.4158 12.993C12.0387 13.1829 11.366 13.3066 10.3277 13.3066C9.28922 13.3066 8.6165 13.1829 8.23944 12.993C8.2393 12.9929 8.23916 12.9928 8.23902 12.9928L4.72386 11.2117L3.99787 10.8439V11.6577V14.2474C3.99787 14.7153 4.25737 15.0896 4.61317 15.3716C4.96354 15.6492 5.45283 15.8775 6.04506 16.0722C7.24526 16.4669 8.67662 16.6574 10.3277 16.6574C11.9787 16.6574 13.41 16.4669 14.6102 16.0722C15.2025 15.8775 15.6918 15.6492 16.0421 15.3716C16.3979 15.0896 16.6574 14.7153 16.6574 14.2474V11.6577Z" stroke="#362140"/>
</svg>
