<svg width="13" height="16" viewBox="0 0 13 16" fill="none" xmlns="http://www.w3.org/2000/svg">
<path d="M11.5059 4.83096L11.5059 4.831L11.9898 14.4014C11.9924 14.4316 11.9936 14.4608 11.9936 14.4889L11.9936 14.4899C11.9936 15.0325 11.5602 15.4915 11.0032 15.4915H1.48983C1.21433 15.4915 0.953718 15.3755 0.768053 15.1752L11.5059 4.83096ZM11.5059 4.83096C11.4795 4.30887 11.0547 3.8806 10.5175 3.8806H9.58782C9.57244 2.02442 8.09079 0.5 6.24639 0.5C4.40198 0.5 2.92055 2.02446 2.90517 3.8806H1.97554C1.43829 3.8806 1.0134 4.30878 0.986962 4.83096L0.98696 4.831M11.5059 4.83096L0.98696 4.831M0.98696 4.831L0.501288 14.4387L0.501282 14.4388M0.98696 4.831L0.501282 14.4388M0.501282 14.4388C0.487689 14.7089 0.582623 14.9753 0.767986 15.1752L0.501282 14.4388ZM5.36265 3.8806C5.37767 3.37794 5.77944 2.99222 6.24639 2.99222C6.71349 2.99222 7.11525 3.37798 7.13027 3.8806H5.36265Z" stroke="#362140"/>
</svg>
