<svg width="17" height="24" viewBox="0 0 17 24" fill="none" xmlns="http://www.w3.org/2000/svg">
<path d="M6.12292 17.2271C6.4296 17.2271 6.72372 17.1832 7.00162 17.1047V20.0432H2.01566H1.51566V20.5432V22.2158V22.7158H2.01566H13.9114H14.4114V22.2158V20.5432V20.0432H13.9114H8.92174L8.92235 17.0035C9.29162 17.1465 9.69324 17.2265 10.1159 17.2265C11.6139 17.2265 12.8768 16.2503 13.3142 14.901C14.7575 14.5246 15.8278 13.2207 15.8278 11.6546C15.8278 11.0575 15.6711 10.4972 15.3986 10.0109C15.5229 9.66296 15.5941 9.2867 15.5941 8.8923C15.5941 7.63491 14.9014 6.54946 13.8855 5.97383C14.0164 5.62277 14.0943 5.24103 14.0943 4.83675C14.0943 2.97839 12.5878 1.4715 10.7283 1.4715C10.2344 1.4715 9.769 1.58096 9.35051 1.77104C8.73795 1.00208 7.79875 0.5 6.73049 0.5C5.24936 0.5 4.00381 1.45623 3.55188 2.77837C2.25456 3.11062 1.22117 4.19536 1.04484 5.61156L1.04474 5.61237C0.963513 6.27355 1.08662 6.90454 1.3512 7.45683C0.826795 8.04596 0.5 8.81975 0.5 9.67807C0.5 10.7325 0.98587 11.6653 1.7393 12.2805C1.6708 12.5415 1.63083 12.8172 1.63083 13.1065C1.63083 14.5189 2.50285 15.7147 3.72839 16.2144C4.33619 16.8322 5.17835 17.2271 6.12292 17.2271Z" stroke="#362140"/>
</svg>
