<svg width="23" height="25" viewBox="0 0 23 25" fill="none" xmlns="http://www.w3.org/2000/svg">
<path d="M22.6625 14.4729C23.4077 8.20028 22.3045 4.24023 20.3146 2.4491L20.3156 2.44806C17.1039 -0.610703 6.25718 -1.06343 2.41474 2.58544C0.68918 4.37032 0.081383 6.98989 0.0147751 10.2329C-0.0518328 13.4769 -0.13093 19.5538 5.53178 21.2023H5.53699L5.53178 23.7199C5.53178 23.7199 5.49328 24.7399 6.14478 24.9449C6.88996 25.1863 7.22716 24.7128 9.54491 21.9444C13.4207 22.2806 16.3972 21.5104 16.7354 21.398C17.5181 21.1357 21.9465 20.5498 22.6625 14.4729ZM9.92686 20.173C9.92686 20.173 7.47382 23.2318 6.71095 24.0259C6.46117 24.284 6.18745 24.2601 6.19162 23.748C6.19162 23.4119 6.21035 19.5684 6.21035 19.5684C1.40938 18.1925 1.69246 13.0179 1.7445 10.3109C1.79654 7.60289 2.29193 5.38505 3.75314 3.89158C7.12413 0.730822 16.6334 1.43749 19.0563 3.71465C22.0183 6.34046 20.964 13.7589 20.9702 14.0118C20.3614 19.0844 16.7729 19.406 16.1131 19.6256C15.831 19.7193 13.2135 20.3926 9.92686 20.173Z"/>
<path d="M11.2839 4.48584C10.8832 4.48584 10.8832 5.11029 11.2839 5.11549C14.3926 5.13943 16.9529 7.30627 16.981 11.2809C16.981 11.7003 17.595 11.6951 17.5898 11.2757H17.5888C17.5555 6.993 14.76 4.50978 11.2839 4.48584Z"/>
<path d="M15.3732 10.6222C15.3638 11.0364 15.9768 11.0562 15.982 10.6368C16.033 8.27531 14.577 6.33015 11.8408 6.12513C11.4402 6.09599 11.3985 6.72564 11.7982 6.75478C14.1711 6.93483 15.421 8.55423 15.3732 10.6222Z"/>
<path d="M14.7177 13.3083C14.2036 13.0107 13.6801 13.1959 13.4636 13.4884L13.0109 14.0743C12.7809 14.372 12.351 14.3324 12.351 14.3324C9.21423 13.5029 8.37539 10.2204 8.37539 10.2204C8.37539 10.2204 8.33688 9.77603 8.62413 9.5377L9.19029 9.06936C9.47338 8.84456 9.65238 8.30337 9.3641 7.77154C8.59394 6.38006 8.07669 5.90028 7.81338 5.53185C7.53654 5.18528 7.12024 5.10723 6.68729 5.3414H6.67793C5.77768 5.86801 4.79209 6.8536 5.10744 7.86833C5.6455 8.93822 6.63421 12.3488 9.7856 14.9257C11.2666 16.1444 13.6103 17.3933 14.6053 17.6816L14.6147 17.6961C15.5951 18.0229 16.5484 16.9988 17.0573 16.0715V16.0642C17.2831 15.6157 17.2082 15.191 16.8783 14.9132C16.2934 14.3428 15.4108 13.7132 14.7177 13.3083Z"/>
<path d="M12.2699 8.44795C13.2701 8.50623 13.755 9.02868 13.8071 10.1017C13.8258 10.5211 14.4347 10.492 14.4159 10.0726C14.3493 8.67171 13.6187 7.89114 12.3032 7.81829C11.9025 7.79436 11.865 8.42401 12.2699 8.44795Z"/>
</svg>
