<svg width="26" height="22" viewBox="0 0 26 22" fill="none" xmlns="http://www.w3.org/2000/svg">
<path d="M24.7778 9.5757L24.7728 9.56505L24.7673 9.55466C24.6213 9.27885 24.3764 9.01949 24.2005 8.84981C24.1085 8.76106 24.0241 8.68618 23.962 8.63289L21.6571 2.60295L21.6535 2.59366L21.6496 2.58451C21.3461 1.87644 20.775 1.36056 20.2225 1.02644C19.6807 0.698763 19.0798 0.5 18.6485 0.5H7.10451C6.67424 0.5 6.06788 0.697973 5.52266 1.02575C4.96754 1.35949 4.39183 1.87758 4.10002 2.59252L4.09991 2.59248L4.0959 2.60295L1.79102 8.63289C1.72887 8.68618 1.64444 8.76106 1.55246 8.84981C1.37662 9.01948 1.13167 9.27885 0.985659 9.55466L0.978861 9.56749C0.860721 9.79051 0.731102 10.0352 0.640414 10.5793C0.553201 11.1026 0.5 11.9084 0.5 13.2803C0.5 14.6366 0.638192 15.604 0.882299 16.2895C1.13044 16.9863 1.50104 17.4239 1.97074 17.65L2.05678 17.6915L2.15202 17.6983L2.35273 17.7126V19.7411C2.35273 20.243 2.5024 20.6992 2.83714 21.0294C3.17071 21.3584 3.62506 21.5 4.11164 21.5H4.80048C5.28836 21.5 5.73504 21.3571 6.05428 21.014C6.36787 20.677 6.48812 20.222 6.48812 19.7411V17.747H19.2411V19.7411C19.2411 20.229 19.3709 20.6827 19.6864 21.0167C20.0059 21.355 20.449 21.5 20.9287 21.5H21.6176C22.1042 21.5 22.5585 21.3584 22.8921 21.0294C23.2268 20.6992 23.3765 20.243 23.3765 19.7411V17.7126L23.5772 17.6983L23.6763 17.6912L23.7652 17.6467C24.241 17.4088 24.611 16.9688 24.8566 16.2696C25.0971 15.5846 25.2291 14.6242 25.2292 13.2824C25.2411 11.9095 25.188 11.1035 25.1007 10.5793C25.0167 10.0754 24.8992 9.82969 24.8046 9.63194C24.7954 9.61281 24.7865 9.59412 24.7778 9.5757ZM19.7183 7.24726C19.7339 7.28826 19.7488 7.32744 19.7628 7.36461H6.01389C6.02794 7.32744 6.0428 7.28826 6.05839 7.24726C6.12509 7.07176 6.20401 6.86556 6.2888 6.64404C6.33683 6.51856 6.38674 6.38817 6.43737 6.25567C6.70661 5.55106 7.00144 4.77353 7.12015 4.41133C7.12636 4.40029 7.14337 4.37191 7.17749 4.33069C7.22113 4.27799 7.28083 4.2189 7.35313 4.16493C7.49995 4.05534 7.6696 3.98718 7.8461 3.99372L7.85535 3.99406H7.86461H17.9121H17.9306L17.9491 3.9927C18.1134 3.98052 18.2746 4.04275 18.42 4.15332C18.4915 4.20767 18.5513 4.26825 18.5958 4.32311C18.6315 4.36726 18.6496 4.39816 18.6563 4.41036C18.7748 4.77214 19.0699 5.55043 19.3394 6.25567C19.39 6.38818 19.4399 6.51858 19.4879 6.64406C19.5727 6.86557 19.6516 7.07176 19.7183 7.24726ZM5.58432 14.0629C5.02911 14.0629 4.56413 13.598 4.56413 13.0428C4.56413 12.4875 5.02911 12.0226 5.58432 12.0226C6.13954 12.0226 6.60451 12.4875 6.60451 13.0428C6.60451 13.6031 6.15821 14.0629 5.58432 14.0629ZM20.2162 14.0629C19.6609 14.0629 19.196 13.598 19.196 13.0428C19.196 12.4875 19.6609 12.0226 20.2162 12.0226C20.7714 12.0226 21.2363 12.4875 21.2363 13.0428C21.2363 13.598 20.7714 14.0629 20.2162 14.0629Z" stroke="#CBD3E0"/>
</svg>
