<svg width="21" height="22" viewBox="0 0 21 22" fill="none" xmlns="http://www.w3.org/2000/svg">
<path d="M4.6116 5.006V5.506H5.1116H9.6976H10.1976V5.006V1V0.5H9.6976H5.1116H4.6116V1V5.006ZM10.8556 0.5H10.3556V1V5.006V5.506H10.8556H15.4416H15.9416V5.006V1V0.5H15.4416H10.8556ZM15.9416 6.164V5.664H15.4416H10.8556H10.3556V6.164V11.84V12.34H10.8556H15.4416H15.9416V11.84V6.164ZM17.5136 12.0444H17.7043L17.7041 12.5H10.2754H2.8468V12.0448H3.0396V11.5448V10.0052V9.5052H2.5396H1H0.5V10.0052V11.5448V12.0448H0.693221L0.6936 21L0.693621 21.5H1.1936H19.3624H19.8624V21V12.0444H20.0532V11.5444V10.0048V9.5048H19.5532H18.0136H17.5136V10.0048V11.5444V12.0444ZM5.1116 5.664H4.6116V6.164V11.84V12.34H5.1116H9.6976H10.1976V11.84V6.164V5.664H9.6976H5.1116ZM4.6736 14.616V18.8116H4.516V14.616H4.6736ZM7.498 14.616V18.8116H7.3396V14.616H7.498ZM10.3556 14.616V18.8116H10.1976V14.616H10.3556ZM13.1472 14.616V18.8116H12.9892V14.616H13.1472ZM15.9388 14.616V18.8116H15.7808V14.616H15.9388Z" stroke="#CBD3E0"/>
</svg>
