<svg width="52" height="64" viewBox="0 0 52 64" fill="none" xmlns="http://www.w3.org/2000/svg">
<path d="M26.2 0.300293C11.9747 0.300293 0.400287 11.6176 0.400287 25.5112C0.306763 45.8344 25.2196 62.6858 26.2 63.367C26.2 63.367 52.0933 45.8344 51.9998 25.527C51.9998 11.6176 40.4254 0.300293 26.2 0.300293Z" fill="white"/>
<path d="M35.1571 33.4644V32.7477H34.4404H17.6H16.8833V33.4644V36.133V36.8497H17.6H34.4404H35.1571V36.133V33.4644Z" stroke="#362140" stroke-width="1.43333"/>
<path d="M26.7554 14.031L26.3757 13.7862L25.9911 14.0231L17.2241 19.4245L16.8833 19.6345V20.0347V21.6229V22.3396H17.6H34.7456H35.4623V21.6229V20.0347V19.644L35.1339 19.4323L26.7554 14.031Z" stroke="#362140" stroke-width="1.43333"/>
<path d="M19.1132 29.9285H18.6329V30.6452V31.5823V32.2989H19.3495H19.8299H22.4895H22.9699H23.6866V31.5823V30.6452V29.9285H23.2062V25.0751H23.6866V24.3585V23.4214V22.7047H22.9699H22.4895H19.8299H19.3495H18.6329V23.4214V24.3585V25.0751H19.1132V29.9285Z" stroke="#362140" stroke-width="1.43333"/>
<path d="M24.0795 29.9285H23.5994V30.6452V31.5823V32.2989H24.316H24.7962H27.4561H27.9364H28.6531V31.5823V30.6452V29.9285H28.1727V25.0751H28.6531V24.3585V23.4214V22.7047H27.9364H27.4561H24.7962H24.316H23.5994V23.4214V24.3585V25.0751H24.0795V29.9285Z" stroke="#362140" stroke-width="1.43333"/>
<path d="M29.0463 29.9285H28.5659V30.6452V31.5823V32.2989H29.2826H29.7629H32.4228H32.9032H33.6198V31.5823V30.6452V29.9285H33.1395V25.0751H33.6198V24.3585V23.4214V22.7047H32.9032H32.4228H29.7629H29.2826H28.5659V23.4214V24.3585V25.0751H29.0463V29.9285Z" stroke="#362140" stroke-width="1.43333"/>
</svg>
