<svg width="30" height="20" viewBox="0 0 30 20" fill="none" xmlns="http://www.w3.org/2000/svg">
<path d="M20.0903 4.22778H19.5903V4.72778V7.81101V8.31101H20.0903H24.8615H28.9999H29.4999V7.81101V4.72778V4.22778H28.9999H24.8615H20.0903Z" stroke="#CBD3E0"/>
<path d="M24.2287 4.57742H24.7287V4.07742V1V0.5H24.2287H15.3135H14.8135V1V4.07742V4.57742H15.3135H19.4575H20.0903H24.2287Z" stroke="#CBD3E0"/>
<path d="M19.4577 8.31101H19.9577V7.81101V4.72778V4.22778H19.4577H14.6865H10.5425H10.0425V4.72778V7.81101V8.31101H10.5425H14.6865H15.3137H19.4577Z" stroke="#CBD3E0"/>
<path d="M14.6862 12.0387H15.1862V11.5387V8.4613V7.9613H14.6862H9.9094H5.771H5.271V8.4613V11.5387V12.0387H5.771H9.9094H10.5422H14.6862Z" stroke="#CBD3E0"/>
<path d="M19.4577 15.7723H19.9577V15.2723V12.189V11.689H19.4577H15.3137H14.6865H10.5425H10.0425V12.189V15.2723V15.7723H10.5425H14.6865H15.3137H19.4577Z" stroke="#CBD3E0"/>
<path d="M10.4096 12.189V11.689H9.9096H5.1384H1H0.5V12.189V15.2723V15.7723H1H5.1384H9.9096H10.4096V15.2723V12.189Z" stroke="#CBD3E0"/>
<path d="M5.771 15.4225H5.271V15.9225V19V19.5H5.771H14.6862H15.1862V19V15.9225V15.4225H14.6862H10.5422H9.9094H5.771Z" stroke="#CBD3E0"/>
<path d="M15.3135 15.4225H14.8135V15.9225V19V19.5H15.3135H24.2287H24.7287V19V15.9225V15.4225H24.2287H20.0903H19.4575H15.3135Z" stroke="#CBD3E0"/>
<path d="M20.0903 11.689H19.5903V12.189V15.2723V15.7723H20.0903H24.8615H28.9999H29.4999V15.2723V12.189V11.689H28.9999H24.8615H20.0903Z" stroke="#CBD3E0"/>
<path d="M15.3135 7.9613H14.8135V8.4613V11.5387V12.0387H15.3135H19.4575H20.0903H24.2287H24.7287V11.5387V8.4613V7.9613H24.2287H20.0903H19.4575H15.3135Z" stroke="#CBD3E0"/>
</svg>
