<svg width="23" height="30" viewBox="0 0 23 30" fill="none" xmlns="http://www.w3.org/2000/svg">
<path d="M14.1127 22.0349C17.0041 21.2605 19.4209 19.4062 20.9179 16.8141C22.4138 14.2215 22.8117 11.2013 22.0374 8.30988C20.7265 3.41721 16.2776 0 11.2184 0C10.242 0 9.26351 0.129384 8.31144 0.384735C5.42007 1.15958 3.00327 3.01392 1.50632 5.60649C0.00936801 8.19954 -0.388061 11.2198 0.38678 14.1112C1.51901 18.3374 4.99481 21.4563 9.18149 22.2292V23.3858H6.64653C6.37702 23.3858 6.15829 23.6041 6.15829 23.8741V23.9649H2.96226C2.69275 23.9649 2.47402 24.1831 2.47402 24.4531C2.47402 24.7231 2.69275 24.9414 2.96226 24.9414H6.15829V27.574H2.96226C2.69275 27.574 2.47402 27.7922 2.47402 28.0622C2.47402 28.3322 2.69275 28.5505 2.96226 28.5505H6.15829V28.6408C6.15829 28.9108 6.37702 29.129 6.64653 29.129H15.7767C16.0467 29.129 16.2649 28.9108 16.2649 28.6408V28.5505H19.4614C19.7314 28.5505 19.9497 28.3322 19.9497 28.0622C19.9497 27.7922 19.7314 27.574 19.4614 27.574H16.2649V24.9414H19.4614C19.7314 24.9414 19.9497 24.7231 19.9497 24.4531C19.9497 24.1831 19.7314 23.9649 19.4614 23.9649H16.2649V23.8741C16.2649 23.6041 16.0467 23.3858 15.7767 23.3858H13.2427V22.2277C13.5347 22.1735 13.8256 22.112 14.1127 22.0349ZM8.13811 28.1516H7.13526V24.3618H8.13811V28.1516ZM14.2861 24.3618H15.2889V28.1516H14.2861V24.3618ZM13.3096 24.3618V28.1516H9.1146V24.3618H13.3096ZM10.1575 23.3853V22.3659C10.5036 22.3981 10.8527 22.4186 11.2053 22.4186C11.5041 22.4186 11.8024 22.4025 12.1002 22.3781C12.1554 22.3742 12.2105 22.3761 12.2657 22.3713V23.3849H10.1575V23.3853ZM11.8932 21.4187C11.173 21.4626 10.4495 21.4324 9.74345 21.3245C9.7332 21.323 9.72295 21.3274 9.71318 21.3264C5.73401 20.7371 2.39541 17.835 1.33006 13.8583C0.6226 11.2183 0.985365 8.46124 2.35195 6.09424C3.71854 3.72773 5.92442 2.03499 8.56435 1.32753C9.43391 1.09464 10.3274 0.976484 11.2189 0.976484C15.8372 0.976484 19.8979 4.09586 21.0951 8.56279C21.8021 11.2027 21.4388 13.9598 20.0727 16.3263C18.7066 18.6928 16.5007 20.3851 13.8608 21.0926C13.2144 21.2649 12.5548 21.3738 11.8932 21.4187ZM17.8683 17.6924C18.1056 17.4483 18.3243 17.1939 18.5294 16.9342C18.5391 16.9239 18.5518 16.9205 18.5601 16.9093C18.6085 16.8473 18.65 16.7814 18.6959 16.7184C18.7911 16.59 18.8853 16.4616 18.9727 16.3302C19.0235 16.2536 19.0699 16.1745 19.1187 16.0964C19.1651 16.0217 19.2139 15.9475 19.2578 15.8723C19.2613 15.8674 19.2652 15.864 19.2681 15.8596C19.27 15.8562 19.27 15.8522 19.2715 15.8493C19.2842 15.8273 19.2935 15.8044 19.3057 15.7824C19.436 15.5534 19.5561 15.321 19.6655 15.0828C19.6748 15.0632 19.685 15.0442 19.6943 15.0247C19.9321 14.4984 20.1191 13.952 20.2538 13.3905C20.2783 13.2895 20.2958 13.1879 20.3168 13.0864C20.35 12.9238 20.3818 12.7612 20.4067 12.5967C20.4277 12.458 20.4433 12.3188 20.4579 12.1792C20.4711 12.0498 20.4819 11.9199 20.4897 11.7891C20.4989 11.6373 20.5063 11.4854 20.5082 11.3326C20.5087 11.2916 20.5131 11.2511 20.5131 11.2096C20.5131 11.2096 20.5131 11.2096 20.5131 11.2091C20.5131 11.1383 20.5038 11.0704 20.5028 11.0001C20.498 10.8053 20.4906 10.611 20.4731 10.4157C20.4609 10.2721 20.4423 10.1305 20.4233 9.98846C20.4032 9.83906 20.3823 9.69014 20.3544 9.54074C20.3232 9.36693 20.2841 9.19507 20.2426 9.02467C20.2246 8.95094 20.2138 8.87624 20.1943 8.80252C20.1811 8.75321 20.1621 8.70634 20.1474 8.65751C20.0986 8.4876 20.0444 8.3216 19.9868 8.1556C19.9404 8.0228 19.8935 7.89048 19.8418 7.76012C19.7886 7.62781 19.7309 7.49842 19.6719 7.36904C19.5986 7.20597 19.522 7.04436 19.439 6.88617C19.3936 6.80073 19.3462 6.71675 19.2984 6.63277C19.2905 6.61959 19.2842 6.60641 19.2764 6.59322C19.2705 6.58199 19.271 6.5693 19.2647 6.55807C19.2593 6.54879 19.25 6.54391 19.2442 6.53512C19.1524 6.37693 19.0572 6.22265 18.9566 6.0708C18.9239 6.02149 18.8897 5.97413 18.8565 5.9258C18.7154 5.7222 18.5684 5.523 18.4117 5.33161C18.3853 5.29987 18.358 5.26911 18.3316 5.23738C18.1676 5.04257 17.9972 4.85313 17.8175 4.67199C17.7819 4.63586 17.7438 4.60119 17.7072 4.56555C17.5368 4.40004 17.363 4.23892 17.1799 4.08659C17.1125 4.02995 17.0427 3.97771 16.9733 3.92303C16.8176 3.79999 16.6594 3.67891 16.4949 3.56514C16.3831 3.48751 16.2664 3.41623 16.1507 3.34348C16.055 3.28343 15.9641 3.21703 15.866 3.1599C15.8636 3.15844 15.8621 3.156 15.8597 3.15453C15.8572 3.15307 15.8548 3.15356 15.8523 3.15209C15.8079 3.1267 15.762 3.10473 15.7181 3.08032C15.6556 3.04566 15.5926 3.01294 15.5291 2.97974C15.3392 2.87965 15.1463 2.7864 14.9501 2.70047C14.8949 2.67606 14.8407 2.6492 14.7846 2.62577C14.5536 2.52958 14.3188 2.44512 14.0815 2.36797C13.9965 2.34015 13.9106 2.31524 13.8252 2.28986C13.6221 2.2298 13.417 2.17707 13.2105 2.13118C13.1548 2.11897 13.1001 2.10335 13.044 2.09212C12.7837 2.03939 12.5206 2.00131 12.2559 1.97152C12.1881 1.96371 12.1207 1.95736 12.0528 1.95102C11.7755 1.92563 11.4972 1.90854 11.2179 1.90854C11.2165 1.90854 11.2145 1.90854 11.2126 1.90854C11.2116 1.90854 11.2106 1.90854 11.2092 1.90854C11.2092 1.90854 11.2092 1.90854 11.2087 1.90854C11.2033 1.90854 11.1984 1.90903 11.1926 1.90903C10.9245 1.91 10.6584 1.92612 10.3938 1.94955C10.3064 1.95736 10.2195 1.96566 10.1326 1.97592C9.91092 2.00228 9.69072 2.03499 9.47297 2.07698C9.34505 2.10139 9.21957 2.13118 9.0936 2.16047C8.94762 2.19465 8.80261 2.23127 8.65858 2.27228C8.52968 2.3089 8.40225 2.34747 8.27629 2.38946C8.14641 2.43291 8.01898 2.48174 7.89106 2.53056C7.69577 2.60575 7.50438 2.68631 7.31543 2.7737C7.20264 2.82595 7.09083 2.87916 6.98 2.9358C6.86429 2.99537 6.74906 3.05542 6.63628 3.11938C6.62163 3.12768 6.6065 3.135 6.59185 3.1433C6.58111 3.14867 6.56939 3.14819 6.55914 3.15405C6.54889 3.16039 6.54254 3.17065 6.53277 3.17748C6.39997 3.25462 6.2701 3.33665 6.1412 3.42063C6.046 3.48263 5.95274 3.54757 5.85998 3.61299C5.70618 3.72138 5.55531 3.83368 5.40786 3.95086C5.34293 4.0031 5.2775 4.05534 5.21403 4.10905C5.01483 4.277 4.82051 4.45033 4.63546 4.63488C4.63497 4.63537 4.634 4.63635 4.63351 4.63684C4.44212 4.82774 4.26147 5.03036 4.08668 5.23835C4.05348 5.2779 4.02028 5.31793 3.98757 5.35797C3.68388 5.73196 3.4046 6.12842 3.15951 6.55123C3.15804 6.55416 3.15511 6.55563 3.15365 6.55807C3.15218 6.561 3.15218 6.56442 3.15072 6.56735C3.12924 6.60543 3.11166 6.64449 3.09067 6.68257C3.03549 6.78169 2.98472 6.88275 2.93296 6.98382C2.8607 7.12541 2.7904 7.26797 2.72644 7.41201C2.66931 7.53846 2.61609 7.66687 2.56483 7.79625C2.51893 7.91294 2.47646 8.03012 2.43593 8.1473C2.38125 8.30305 2.32852 8.45929 2.28214 8.61845C2.26212 8.68778 2.24649 8.7576 2.22843 8.82693C2.0551 9.48069 1.9516 10.1608 1.92523 10.8619C1.92523 10.8678 1.92474 10.8741 1.92425 10.88C1.92035 10.9898 1.90765 11.0973 1.90765 11.2081V11.2086C1.90765 12.8554 2.33584 14.4295 3.14437 15.8313C3.14877 15.84 3.14877 15.8498 3.15365 15.8591C3.16292 15.8747 3.17513 15.8864 3.18587 15.9006C3.38947 16.2472 3.61015 16.5861 3.86111 16.9088C3.87478 16.9269 3.8948 16.9361 3.91042 16.9513C4.11109 17.2061 4.32104 17.4561 4.551 17.6924C4.64279 17.7862 4.76924 17.8399 4.90058 17.8399H17.5158C17.6505 17.8404 17.776 17.7872 17.8683 17.6924ZM5.11248 16.8639C4.79756 16.5246 4.51633 16.1623 4.26733 15.7834L4.6672 15.5534C4.90107 15.4192 4.98163 15.1204 4.84687 14.8865C4.71261 14.6531 4.41429 14.5721 4.18042 14.7068L3.78495 14.9339C3.27815 13.9198 2.98569 12.8178 2.91832 11.6978L3.37238 11.6983C3.37238 11.6983 3.37238 11.6983 3.37287 11.6983C3.64238 11.6983 3.86111 11.48 3.86111 11.2105C3.86111 10.941 3.64287 10.7223 3.37336 10.7218L2.91441 10.7213C2.94712 10.1432 3.0394 9.5676 3.1932 9.00221C3.20443 8.96022 3.2137 8.91677 3.22591 8.87527C3.26692 8.7327 3.31721 8.5916 3.36652 8.45098C3.40265 8.34943 3.43781 8.24739 3.47784 8.1473C3.52374 8.0311 3.57305 7.91587 3.62431 7.80162C3.67314 7.69323 3.72587 7.58728 3.7786 7.48134L4.17896 7.71276C4.25561 7.75719 4.34008 7.77819 4.42308 7.77819C4.59152 7.77819 4.75557 7.69079 4.84639 7.53407C4.98114 7.30069 4.90156 7.00237 4.66818 6.86713L4.2644 6.63375C4.281 6.60933 4.29418 6.58248 4.3103 6.55807C4.31127 6.55661 4.31274 6.55514 4.3142 6.55319C4.44896 6.35398 4.59445 6.16259 4.74581 5.97608C4.77754 5.93703 4.80928 5.89845 4.8415 5.86037C4.99383 5.67972 5.15105 5.50395 5.31754 5.33649C5.32242 5.33209 5.32682 5.32672 5.33121 5.32233C5.49428 5.15926 5.66712 5.00595 5.84338 4.85703C5.90343 4.80626 5.96397 4.75743 6.025 4.70861C6.15194 4.60705 6.28279 4.51038 6.41559 4.41615C6.48932 4.3644 6.56207 4.31118 6.63774 4.26187L6.86966 4.66418C6.95998 4.8209 7.12403 4.9083 7.29297 4.9083C7.37548 4.9083 7.45946 4.88731 7.5366 4.84288C7.77047 4.70812 7.85054 4.4098 7.71578 4.17594L7.48485 3.77558C7.56199 3.73652 7.64011 3.69941 7.71871 3.66279C7.89741 3.58028 8.07855 3.50363 8.26262 3.43381C8.36905 3.39328 8.47549 3.35227 8.58437 3.31565C8.69959 3.27708 8.81677 3.24242 8.93395 3.20873C9.05845 3.17309 9.18491 3.14135 9.31136 3.11157C9.42952 3.08325 9.54816 3.0564 9.66778 3.03345C9.85868 2.99732 10.052 2.96754 10.2473 2.94459C10.3264 2.93531 10.4055 2.92799 10.4851 2.92067C10.5642 2.91383 10.6452 2.91285 10.7253 2.90846L10.7258 3.36985C10.7258 3.63936 10.9445 3.8576 11.214 3.8576C11.214 3.8576 11.214 3.8576 11.2145 3.8576C11.4845 3.8576 11.7028 3.63838 11.7023 3.36887L11.7018 2.90846C11.7907 2.91383 11.8805 2.91383 11.9684 2.92213C12.0289 2.9275 12.0895 2.93287 12.1495 2.9402C12.3878 2.96705 12.6241 3.00171 12.8555 3.0481C12.9053 3.05835 12.9541 3.07202 13.0039 3.08276C13.1895 3.12329 13.3721 3.17113 13.5527 3.22435C13.6304 3.2473 13.708 3.27025 13.7856 3.29515C13.998 3.36448 14.207 3.43918 14.4111 3.52462C14.4643 3.54708 14.5165 3.57296 14.5692 3.59639C14.6957 3.65254 14.8182 3.71406 14.9413 3.77607L14.7103 4.17642C14.5756 4.41029 14.6561 4.70861 14.8895 4.84336C14.9662 4.88779 15.0502 4.90879 15.1327 4.90879C15.3016 4.90879 15.4661 4.8209 15.556 4.66467L15.7859 4.26626C15.8392 4.30141 15.8953 4.33413 15.9475 4.37026C16.0896 4.46888 16.2263 4.57385 16.3621 4.68078C16.429 4.73253 16.4958 4.7838 16.5608 4.83799C16.7195 4.97128 16.8723 5.11141 17.0202 5.25593C17.0568 5.29157 17.0944 5.32623 17.131 5.36236C17.2878 5.52104 17.4377 5.68705 17.5817 5.85842C17.6085 5.88967 17.6354 5.92091 17.6618 5.95265C17.7995 6.12109 17.9288 6.29637 18.0529 6.47507C18.0851 6.52145 18.1183 6.56686 18.149 6.61422C18.1534 6.62105 18.1573 6.62838 18.1617 6.63521L17.7584 6.86908C17.5246 7.00432 17.445 7.30313 17.5807 7.53602C17.6715 7.69226 17.8351 7.77965 18.0035 7.77965C18.0865 7.77965 18.171 7.75866 18.2477 7.71374L18.647 7.48231C18.6949 7.57703 18.7413 7.67273 18.7852 7.7694C18.8379 7.88658 18.8912 8.00376 18.9385 8.12435C18.9849 8.23958 19.0264 8.35724 19.0674 8.47491C19.1187 8.62382 19.1685 8.77371 19.2124 8.92653C19.2432 9.03443 19.27 9.1438 19.2969 9.25366C19.334 9.40794 19.3687 9.56271 19.397 9.71749C19.4209 9.84834 19.4404 9.98065 19.458 10.1139C19.4751 10.2433 19.4912 10.3722 19.5029 10.5016C19.5093 10.5744 19.5098 10.6491 19.5137 10.7223L19.0523 10.7228C18.7823 10.7228 18.564 10.942 18.5645 11.2115C18.565 11.481 18.7833 11.6993 19.0528 11.6993H19.0533L19.5186 11.6988C19.5181 11.7071 19.5181 11.7149 19.5176 11.7227C19.5103 11.8438 19.501 11.9644 19.4878 12.0845C19.4756 12.2056 19.4609 12.3267 19.4429 12.4468C19.4199 12.5996 19.3916 12.7514 19.3599 12.9028C19.3423 12.9877 19.3272 13.0732 19.3071 13.1576C19.1856 13.6591 19.0191 14.1512 18.8038 14.6282C18.7979 14.6409 18.7911 14.6526 18.7852 14.6653C18.7432 14.7576 18.6915 14.847 18.6456 14.9378L18.2457 14.7078C18.0118 14.5735 17.7135 14.6536 17.5788 14.8875C17.4445 15.1213 17.5251 15.4202 17.7584 15.5544L18.1525 15.781C18.0851 15.8825 18.0245 15.986 17.9523 16.0851C17.9342 16.11 17.9171 16.1359 17.8991 16.1598C17.7179 16.401 17.5226 16.6369 17.3107 16.8644H5.11248V16.8639ZM10.1218 6.38914C10.0047 6.21825 9.79228 6.13965 9.59259 6.19335C9.39241 6.24706 9.24789 6.42136 9.23226 6.62789C9.16635 7.49501 8.84997 11.8677 9.10142 12.8056C9.35677 13.7606 10.2244 14.4271 11.2116 14.4271C11.4025 14.4271 11.5934 14.4017 11.7794 14.3519C12.9434 14.0399 13.6372 12.8388 13.3257 11.6744C13.0728 10.736 10.612 7.10734 10.1218 6.38914ZM11.526 13.4086C10.8889 13.579 10.2131 13.1835 10.0442 12.5527C9.91825 12.083 9.99783 9.95575 10.1091 8.12142C11.1227 9.65401 12.2555 11.4571 12.3819 11.9268C12.5538 12.5713 12.17 13.2362 11.526 13.4086ZM10.6941 11.6294C10.5574 11.7662 10.4792 11.9517 10.4792 12.147C10.4792 12.3374 10.5574 12.5278 10.6941 12.6645C10.8308 12.8012 11.0163 12.8793 11.2116 12.8793C11.402 12.8793 11.5924 12.8012 11.7291 12.6645C11.8658 12.5278 11.944 12.3374 11.944 12.147C11.944 11.9517 11.8658 11.7662 11.7291 11.6294C11.4557 11.356 10.9675 11.356 10.6941 11.6294ZM13.2427 18.7163H9.18393C8.91442 18.7163 8.69569 18.9345 8.69569 19.2045C8.69569 19.4745 8.91442 19.6928 9.18393 19.6928H13.2427C13.5127 19.6928 13.7309 19.4745 13.7309 19.2045C13.7309 18.9345 13.5127 18.7163 13.2427 18.7163Z" fill="#CBD3E0"/>
</svg>
