<svg width="28" height="26" viewBox="0 0 28 26" fill="none" xmlns="http://www.w3.org/2000/svg">
<path d="M8.02061 9.39583L8.02064 9.39589L8.02854 9.39283C8.78706 9.09878 9.14575 8.28506 8.80721 7.54479L8.80722 7.54479L8.8058 7.54174L8.48785 6.85868C8.35804 6.5734 8.40717 6.22283 8.62115 5.98036L8.62119 5.98039L8.62557 5.97528C9.66715 4.76246 9.80169 3.05039 8.90309 1.73071L8.53581 1.15102L8.53581 1.15101L8.53479 1.14942C8.10802 0.481451 7.19512 0.334578 6.5472 0.685483L6.5382 0.690356L6.52941 0.695593C5.85076 1.0999 5.61814 1.94869 6.04522 2.61715L6.04505 2.61725L6.05288 2.62877L6.45131 3.21572L6.45124 3.21577L6.45654 3.22326C6.65829 3.50904 6.64142 3.91587 6.38103 4.22136C5.45781 5.27187 5.23746 6.72983 5.82762 7.98882C5.82773 7.98905 5.82783 7.98928 5.82794 7.98951L6.14608 8.67297C6.39926 9.21688 6.9391 9.5 7.5025 9.5C7.69012 9.5 7.85834 9.45559 8.02061 9.39583Z" stroke="#CBD3E0"/>
<path d="M13.8072 7.54479L13.8072 7.54479L13.8058 7.54174L13.4878 6.85866C13.358 6.57339 13.4072 6.22282 13.6212 5.98036L13.6212 5.98039L13.6256 5.97528C14.6671 4.76246 14.8017 3.05039 13.9031 1.73071L13.5358 1.15102L13.5358 1.15101L13.5348 1.14942C13.108 0.481451 12.1951 0.334578 11.5472 0.685483L11.5382 0.690356L11.5294 0.695593C10.8508 1.0999 10.6181 1.94869 11.0452 2.61715L11.0451 2.61725L11.0529 2.62877L11.4513 3.21572L11.4512 3.21577L11.4565 3.22326C11.6583 3.50904 11.6414 3.91587 11.381 4.22136C10.4578 5.27188 10.2375 6.72985 10.8276 7.98886C10.8277 7.98908 10.8278 7.98929 10.8279 7.98951L11.1461 8.67297C11.3993 9.21688 11.9391 9.5 12.5025 9.5C12.6866 9.5 12.8898 9.46767 13.0732 9.38547C13.7973 9.08341 14.1411 8.27485 13.8072 7.54479Z" stroke="#CBD3E0"/>
<path d="M18.9137 1.73043L18.9137 1.73042L18.9121 1.72796L18.5237 1.14611C18.1013 0.482225 17.1996 0.333326 16.5572 0.687174L16.5481 0.692152L16.5393 0.697499C15.8685 1.1039 15.6447 1.94937 16.061 2.61305C16.0612 2.61335 16.0614 2.61365 16.0615 2.61394L16.4262 3.19929L16.4328 3.20983L16.4399 3.22003C16.6397 3.5079 16.6221 3.91856 16.3657 4.22451C15.4579 5.27496 15.2426 6.72988 15.8216 7.98592C15.8217 7.98615 15.8218 7.98638 15.8219 7.9866L16.1348 8.67007C16.3832 9.21284 16.9162 9.5 17.4775 9.5C17.6604 9.5 17.8625 9.46735 18.0448 9.38425C18.7404 9.08908 19.1308 8.29335 18.7955 7.54767L18.7955 7.54766L18.7941 7.54463L18.4815 6.86155C18.3529 6.57416 18.4019 6.22173 18.6109 5.97923C19.674 4.78246 19.7948 3.06735 18.9137 1.73043Z" stroke="#CBD3E0"/>
<path d="M3.19231 11.5H1.80769C0.996296 11.5 0.5 12.2778 0.5 12.9964V24.0036C0.5 24.7222 0.996295 25.5 1.80769 25.5H3.19231C4.0037 25.5 4.5 24.7222 4.5 24.0036V13.0201C4.5 12.286 4.01034 11.5 3.19231 11.5Z" stroke="#CBD3E0"/>
<path d="M9.19231 11.5H7.80769C6.9963 11.5 6.5 12.2778 6.5 12.9964V24.0036C6.5 24.7222 6.99629 25.5 7.80769 25.5H9.19231C10.0037 25.5 10.5 24.7222 10.5 24.0036V13.0201C10.5 12.286 10.0103 11.5 9.19231 11.5Z" stroke="#CBD3E0"/>
<path d="M15.1923 11.5H13.8077C12.9963 11.5 12.5 12.2778 12.5 12.9964V24.0036C12.5 24.7222 12.9963 25.5 13.8077 25.5H15.1923C16.0037 25.5 16.5 24.7222 16.5 24.0036V13.0201C16.5 12.286 16.0103 11.5 15.1923 11.5Z" stroke="#CBD3E0"/>
<path d="M21.1923 11.5H19.8077C18.9963 11.5 18.5 12.2778 18.5 12.9964V24.0036C18.5 24.7222 18.9963 25.5 19.8077 25.5H21.1923C22.0037 25.5 22.5 24.7222 22.5 24.0036V13.0201C22.5 12.286 22.0103 11.5 21.1923 11.5Z" stroke="#CBD3E0"/>
<path d="M26 11.5C25.6336 11.5 25.2806 11.6054 25.0064 11.7986C24.7347 11.9901 24.5 12.3027 24.5 12.7045V14.2955C24.5 14.6973 24.7347 15.0099 25.0064 15.2014C25.2806 15.3946 25.6336 15.5 26 15.5C26.3664 15.5 26.7194 15.3946 26.9936 15.2014C27.2653 15.0099 27.5 14.6973 27.5 14.2955V12.7045C27.5 12.3027 27.2653 11.9901 26.9936 11.7986C26.7194 11.6054 26.3664 11.5 26 11.5Z" stroke="#CBD3E0"/>
</svg>
