<svg width="36" height="44" viewBox="0 0 36 44" fill="none" xmlns="http://www.w3.org/2000/svg">
<path d="M0.500183 17.5913V17.589C0.500183 8.18267 8.34064 0.5 18 0.5C27.6592 0.5 35.4998 8.18247 35.4998 17.6L35.4998 17.6023C35.5315 24.4863 31.147 30.9642 26.6589 35.7718C24.4248 38.1649 22.1871 40.1208 20.5073 41.4785C19.6678 42.1571 18.9687 42.6855 18.4804 43.0435C18.2845 43.1872 18.1226 43.3034 17.9992 43.3909C16.8911 42.6148 12.9515 39.7637 9.08581 35.5935C4.687 30.8482 0.468454 24.485 0.500183 17.5913Z" fill="white" stroke="#CAC4CD"/>
<path d="M23.7366 14.2825C23.24 14.3122 22.7487 14.4131 22.2837 14.5619C22.1425 13.9372 21.9309 13.3043 21.6182 12.7664C21.2028 12.0519 20.5721 11.4485 19.652 11.3383L19.652 11.3382L19.6462 11.3376C18.9921 11.267 18.4114 11.507 18.2101 12.0307C18.1137 12.2814 18.1286 12.5617 18.2613 12.8017C18.3948 13.0432 18.6264 13.2086 18.9008 13.2814L18.9008 13.2814L18.9054 13.2826C19.521 13.4395 19.9402 13.8927 20.2212 14.5167C19.8061 14.4035 19.3788 14.3346 18.9506 14.3017L18.9506 14.3017L18.9476 14.3015C17.766 14.218 16.738 14.5505 16.0319 15.2597L15.7699 15.5228L15.9461 15.8497C16.1368 16.2035 16.291 16.6223 16.3587 17.0507L16.3605 17.062L16.3629 17.0733C16.4575 17.533 16.6678 17.9608 16.9425 18.3168L16.9425 18.3168L16.9447 18.3196C17.5558 19.1003 17.8683 20.0118 17.8683 20.9958C17.8683 21.8049 17.644 22.5489 17.2384 23.2346L17.0354 23.5778L17.3248 23.8521C18.1865 24.6688 19.277 25.1333 20.5233 24.8679C20.8262 24.8146 21.0952 24.7112 21.3373 24.5972C21.5847 24.715 21.8637 24.8165 22.1641 24.8687C23.4141 25.1119 24.5077 24.658 25.3761 23.8297C26.2341 23.0112 26.8909 21.8154 27.3341 20.4937L27.3352 20.4904C27.9169 18.7146 27.8481 17.1164 27.1841 15.9628C26.5061 14.7849 25.2622 14.1673 23.7366 14.2825Z" stroke="#362140"/>
<path d="M23.2586 13.2564L23.2586 13.2565L23.2694 13.253C23.6901 13.1167 24.437 12.8298 24.8879 12.1723C25.3355 11.5197 25.3465 10.736 25.3039 10.2959C25.2553 9.72272 24.6966 9.37198 24.166 9.5439C23.7443 9.68053 22.996 9.968 22.5451 10.6469C22.0985 11.3009 22.0893 12.0851 22.1315 12.539C22.1553 12.8082 22.3009 13.043 22.5296 13.1789C22.7541 13.3122 23.0184 13.3282 23.2586 13.2564Z" stroke="#362140"/>
<path d="M13.0768 11.618L13.0769 11.6179L13.0738 11.6081C12.9747 11.295 12.73 11.1215 12.5058 11.043C12.2877 10.9666 12.053 10.963 11.8517 11.0007C11.6569 11.0372 11.4248 11.1257 11.2538 11.3055C11.1636 11.4004 11.0837 11.5289 11.0527 11.6896C11.0213 11.8531 11.0478 12.0128 11.1117 12.154L11.1117 12.1541L11.115 12.1611C11.2816 12.5144 11.5703 13.3454 11.8194 14.2135C10.788 14.7089 10.04 15.7842 9.79479 17.0424C9.6931 17.5172 9.49216 17.9528 9.19572 18.321L9.1956 18.3209L9.18791 18.3309C8.6226 19.0706 8.26904 19.9878 8.26904 20.9956C8.26904 23.5112 10.4276 25.5001 13.0441 25.5001C15.6395 25.5001 17.8191 23.5126 17.8191 20.9956C17.8191 19.9878 17.4655 19.0706 16.9002 18.3309L16.9003 18.3308L16.8924 18.321C16.5954 17.952 16.3942 17.5155 16.2927 17.0584C15.9768 15.4753 14.8681 14.1565 13.4108 13.9651C13.3747 13.55 13.3299 13.1379 13.2824 12.7733C13.2196 12.2919 13.1476 11.8587 13.0768 11.618Z" stroke="#362140"/>
<path d="M16.8057 12.1985L16.8057 12.1985L16.8107 12.1912C17.2593 11.5372 17.269 10.752 17.2269 10.2971C17.1789 9.72323 16.6198 9.37185 16.0888 9.5439C15.6671 9.68053 14.9189 9.968 14.468 10.6469C14.0214 11.3009 14.0121 12.0851 14.0544 12.5389C14.1047 13.1096 14.6778 13.4386 15.1923 13.2719C15.6242 13.1319 16.3586 12.8262 16.8057 12.1985Z" stroke="#362140"/>
</svg>
