<svg width="36" height="44" viewBox="0 0 36 44" fill="none" xmlns="http://www.w3.org/2000/svg">
<path d="M0.500183 17.5913V17.589C0.500183 8.18267 8.34064 0.5 18 0.5C27.6592 0.5 35.4998 8.18247 35.4998 17.6L35.4998 17.6023C35.5315 24.4863 31.147 30.9642 26.6589 35.7718C24.4248 38.1649 22.1871 40.1208 20.5073 41.4785C19.6678 42.1571 18.9687 42.6855 18.4804 43.0435C18.2845 43.1872 18.1226 43.3034 17.9992 43.3909C16.8911 42.6148 12.9515 39.7637 9.08581 35.5935C4.687 30.8482 0.468454 24.485 0.500183 17.5913Z" fill="white" stroke="#CAC4CD"/>
<path d="M22.8733 10.6665L23.2625 10.3648C23.4632 10.6237 23.6044 10.9237 23.6758 11.2435C23.7472 11.5633 23.7471 11.8949 23.6755 12.2146C23.6039 12.5343 23.4626 12.8343 23.2616 13.0931L22.8667 12.7864L23.2616 13.0931C23.1375 13.2529 22.9925 13.3947 22.831 13.5147C22.8552 13.7144 22.8673 13.9155 22.8672 14.1169L22.8733 10.6665ZM22.8733 10.6665L23.2625 10.3648C23.0617 10.1059 22.8062 9.89447 22.5143 9.74573C22.2223 9.59698 21.9011 9.51454 21.5737 9.50429C21.2462 9.49405 20.9205 9.55625 20.6198 9.68645L20.8185 10.1453M22.8733 10.6665L20.8185 10.1453M20.8185 10.1453L20.6198 9.68645C20.4354 9.76628 20.2633 9.87047 20.1078 9.99581M20.8185 10.1453L20.1078 9.99581M20.1078 9.99581C19.2825 9.65495 18.3949 9.48638 17.4997 9.50193C16.6058 9.48689 15.7194 9.65536 14.8951 9.99554C14.7396 9.86967 14.5674 9.76498 14.3828 9.6847C14.0818 9.55376 13.7556 9.49104 13.4274 9.50103C13.0993 9.51103 12.7775 9.59349 12.485 9.74252C12.1925 9.89154 11.9366 10.1034 11.7357 10.363C11.5347 10.6226 11.3937 10.9234 11.3227 11.2439C11.2517 11.5644 11.2525 11.8966 11.325 12.2168C11.3975 12.5369 11.54 12.837 11.7421 13.0957C11.867 13.2553 12.0126 13.3967 12.1749 13.5163C12.151 13.7157 12.1393 13.9164 12.1396 14.1173M20.1078 9.99581L22.8672 14.1171C22.8671 15.5396 22.302 16.9038 21.2962 17.9097C20.2903 18.9156 18.926 19.4807 17.5034 19.4807C16.0808 19.4807 14.7165 18.9156 13.7106 17.9097C12.7048 16.9039 12.1397 15.5397 12.1396 14.1173M12.1396 14.1173C12.1396 14.1172 12.1396 14.117 12.1396 14.1169H12.6396L12.1396 14.1178C12.1396 14.1176 12.1396 14.1175 12.1396 14.1173Z" stroke="#362140"/>
<path d="M11.5832 19.4896L11.5832 19.4896C12.345 19.3145 13.1059 19.1835 13.723 19.5995C14.0306 19.8067 14.2541 20.1167 14.4326 20.4986C14.6102 20.8788 14.7579 21.3625 14.8966 21.9578L14.8966 21.9579C15.2657 23.5435 14.6044 25.1191 13.2158 25.4447C12.5573 25.5991 11.7828 25.4426 11.1373 25.0655C10.4824 24.683 9.90834 24.0434 9.70471 23.1719L11.5832 19.4896ZM11.5832 19.4896L11.5811 19.4901M11.5832 19.4896L11.5811 19.4901M11.5811 19.4901C10.7675 19.6809 10.0719 19.9769 9.72517 20.6517M11.5811 19.4901L9.72517 20.6517M9.72517 20.6517C9.39589 21.2925 9.4618 22.1332 9.70468 23.1718L9.72517 20.6517Z" stroke="#362140"/>
<path d="M23.4187 19.489L23.4191 19.4891C24.2327 19.6799 24.9284 19.976 25.2751 20.6513C25.6042 21.2924 25.5384 22.1339 25.2955 23.1743C25.0921 24.0456 24.5208 24.6851 23.8675 25.0678C23.2236 25.4449 22.4512 25.6009 21.7931 25.4473C20.407 25.1239 19.7312 23.5497 20.1025 21.9602L23.4187 19.489ZM23.4187 19.489C22.6559 19.3108 21.8943 19.179 21.2763 19.5972M23.4187 19.489L21.2763 19.5972M21.2763 19.5972C20.9688 19.8052 20.7454 20.116 20.567 20.4986M21.2763 19.5972L20.567 20.4986M20.567 20.4986C20.3894 20.8795 20.2415 21.364 20.1025 21.96L20.567 20.4986Z" stroke="#362140"/>
<path d="M15.3544 21.8478C15.2978 21.6141 15.2394 21.3893 15.177 21.1764C15.3388 20.9108 15.4449 20.775 15.6338 20.6075L16.008 20.2758L15.6762 19.9017L15.3645 19.5501L15.3535 19.5377C16.0395 19.8104 16.7768 19.9523 17.5272 19.9492C18.2588 19.9461 18.9767 19.8053 19.6458 19.5404L19.6383 19.5489L19.3265 19.9005L18.9955 20.2739L19.3682 20.6057C19.558 20.7747 19.6678 20.9096 19.8242 21.1693C19.7599 21.3845 19.7024 21.6108 19.6476 21.8448C19.4376 22.6596 19.5004 23.52 19.8252 24.2947C19.6874 24.3609 19.5224 24.4073 19.308 24.4394C18.8887 24.5021 18.3358 24.5034 17.4996 24.5034C16.6634 24.5034 16.1107 24.5021 15.6917 24.4391C15.4766 24.4068 15.3113 24.36 15.1734 24.2931C15.4846 23.5813 15.5583 22.7247 15.3555 21.8524L15.3555 21.8524L15.3544 21.8478ZM13.883 18.6863C14.192 18.9318 14.5236 19.144 14.872 19.3205L14.6606 19.5059C14.5989 19.5601 14.5392 19.6164 14.4816 19.6747C14.3601 19.5194 14.2221 19.38 14.0633 19.2614C13.8513 19.103 13.6158 18.9919 13.3572 18.9256C13.5261 18.8336 13.7017 18.7535 13.883 18.6863ZM20.1338 19.3207C20.4967 19.1368 20.8412 18.9144 21.1611 18.6559C21.3501 18.7246 21.5326 18.8084 21.7069 18.9063C21.4229 18.97 21.1658 19.0859 20.9361 19.2575C20.7774 19.3761 20.6393 19.5156 20.5179 19.671C20.4617 19.6141 20.4035 19.559 20.3435 19.5059L20.1338 19.3207Z" stroke="#362140"/>
</svg>
