<svg width="53" height="64" viewBox="0 0 53 64" fill="none" xmlns="http://www.w3.org/2000/svg">
<path d="M26.4666 0C12.2413 0 0.666889 11.3173 0.666889 25.2109C0.573365 45.5341 25.4862 62.3855 26.4666 63.0667C26.4666 63.0667 52.3599 45.5341 52.2664 25.2267C52.2664 11.3173 40.692 0 26.4666 0Z" fill="white"/>
<path d="M31.9442 17.0382L31.5822 15.4781L30.6601 16.7876L26.0521 23.3309L21.3499 16.9463L20.4375 15.7074L20.0762 17.2031L17.17 29.2348L16.9563 30.1197H17.8667H21.7995H22.3944L22.5039 29.535L22.9163 27.3329L25.4193 30.8119L25.9961 31.6137L26.5794 30.8166L29.0615 27.4246L29.4559 29.5548L29.5644 30.141H30.1606H34.0818H34.9838L34.7799 29.2624L31.9442 17.0382Z" stroke="#362140" stroke-width="1.43333"/>
</svg>
