<svg width="82" height="101" viewBox="0 0 82 101" fill="none" xmlns="http://www.w3.org/2000/svg">
<path d="M41.0333 0.100098C18.905 0.100098 0.900402 18.1049 0.900402 40.2083C0.754921 72.5408 39.5083 99.3498 41.0333 100.433C41.0333 100.433 81.3118 72.5408 81.1663 40.2334C81.1663 18.1049 63.1616 0.100098 41.0333 0.100098Z" fill="#CBD3E0"/>
<path d="M65.1757 26.0399C64.9379 25.9139 64.2175 25.8999 64.0007 25.8999C61.5809 25.8999 59.4338 27.0476 58.9512 27.2855C56.6573 28.4401 55.0767 29.8257 54.1605 30.6165C52.1603 32.3519 50.9434 33.9964 50.2161 34.8362C48.4676 36.8515 46.1037 41.1972 45.9219 41.5401C45.2085 42.8557 45.3344 42.6458 44.3203 44.5772C43.6979 45.7598 42.7817 47.5653 42.418 48.244C42.0683 48.9018 41.6837 49.6646 41.4809 50.0145C41.369 50.2174 40.9773 50.8822 40.6696 51.1272C40.5787 51.1971 40.4948 51.2881 40.3549 51.2951C40.236 51.3021 40.1521 51.1831 40.1241 51.1062C39.9912 50.7913 40.2849 49.8675 40.2849 49.8675C40.4248 49.3637 41.0053 47.9921 41.4879 47.1454C42.1033 46.0607 42.8167 44.7311 44.2434 42.0719C44.8029 41.0293 47.0898 36.1518 47.6773 34.6612C48.3487 32.9607 48.7054 30.9594 48.4187 29.9027C48.3487 29.6438 48.1739 29.4338 47.9431 29.3149C47.6214 29.1539 47.2577 29.2869 47.1178 29.3568C46.908 29.4618 46.5513 29.7627 46.5024 29.8187C45.6002 30.7214 44.733 31.8481 44.1455 32.6178C43.8517 33.0027 42.3411 35.1511 41.4739 36.4387C41.2501 36.7746 39.3478 39.6017 37.1168 42.6388C35.5152 44.8151 34.7109 45.9068 33.8647 46.8165C32.7387 48.0131 29.2698 52.3728 24.1014 52.6177C23.2552 52.6597 21.262 52.8486 19.1359 51.9739C18.0518 51.526 16.1146 50.5813 16.1076 47.9221C16.1076 46.8515 16.6741 46.1167 17.0238 45.6268C18.1637 44.0313 19.8143 43.4505 20.8843 43.0796C21.6326 42.8207 22.8495 42.4918 24.3462 42.5128C25.2624 42.5268 26.5422 42.5618 27.7452 43.3455C28.5005 43.8354 29.3957 44.7241 29.081 46.1027C28.4375 48.9228 24.9407 49.2587 23.493 49.1328C23.3811 49.1258 22.4089 49.0278 21.9683 48.545C21.8914 48.461 21.7375 48.251 21.7375 48.0201C21.7375 47.7052 22.0033 47.5723 21.9963 47.4393C21.9613 47.0544 21.5767 47.1874 21.4718 47.2643C21.213 47.4603 21.171 47.8592 21.255 48.1531C21.3739 48.5729 22.1222 49.2797 23.1013 49.4617C26.4583 50.0915 28.7243 48.251 29.2628 46.8235C29.8293 45.3259 29.6125 44.0733 27.969 42.8347C26.2065 41.5051 23.451 41.2742 21.4228 41.6731C20.2339 41.904 17.5972 42.3659 16.1286 44.5562C14.499 46.9914 15.5551 49.2447 15.7439 49.5946C16.3034 50.6583 17.1077 51.2041 17.6602 51.617C19.7094 53.1565 23.7797 53.5274 26.2485 53.0586C31.0462 52.1558 33.3122 49.5666 33.9136 48.9438C34.662 48.1671 35.1306 47.5303 36.0258 46.2916C37.0398 44.8921 37.7322 43.7864 38.0889 43.2126C42.2642 36.5366 41.9075 37.1594 42.1593 36.7326C43.2083 34.9341 44.3833 33.2826 45.5932 31.5892C46.0058 31.0083 46.0967 30.9104 46.8521 30.1616C46.943 30.0706 47.4046 29.7137 47.5514 29.8607C47.6843 29.9936 47.5444 30.5885 47.2997 31.0923C46.8171 32.086 46.6213 32.5059 46.0758 33.5695C45.3274 35.0251 44.5162 36.4527 43.7049 37.8732C41.9774 40.9243 39.5296 46.2287 39.117 49.3427C39.054 49.8396 39.0331 51.0432 39.5926 51.533C39.7744 51.694 40.6696 51.9949 41.2501 51.2251C41.6697 50.6723 43.53 47.2643 43.8517 46.6415C44.2014 45.9697 47.0479 40.3505 49.5796 36.6836C51.8666 33.3736 53.4681 31.8481 54.4193 31.0223C56.1467 29.5248 58.1959 28.3631 58.105 28.4681C57.9301 28.6641 56.5384 29.6577 54.6781 31.7571C52.0064 34.7802 50.6357 37.5513 49.9223 38.9579C48.3557 42.0509 47.9711 45.3539 47.9851 46.4106C47.999 47.9361 47.8731 49.7556 49.4957 50.5743C51.0553 51.3651 52.2093 50.6513 52.6778 50.1685C52.7338 50.1125 53.1115 49.7276 53.0135 49.5596C52.9576 49.4687 52.7618 49.4617 52.6149 49.5177C52.3352 49.6296 52.4051 49.9515 52.0904 50.2034C51.8946 50.3644 51.1392 50.8822 50.3559 50.4764C49.4397 50.0005 49.7405 48.51 49.7405 48.426C49.7405 48.0691 49.8943 47.1874 49.9783 46.6765C50.3489 44.5072 51.2581 39.0839 56.3426 31.6871C56.3426 31.6871 57.9721 29.2309 59.8674 27.8873C60.6157 27.3625 61.2032 27.1245 61.7208 26.9496C63.3713 26.3828 63.8189 26.7117 64.0567 26.8656C64.3364 27.0476 64.3784 27.2645 64.6791 27.3695C64.7351 27.3904 65.2876 27.5654 65.6442 27.0685C65.7492 26.9146 65.882 26.4107 65.1757 26.0399Z" fill="black"/>
<path d="M27.0458 39.3849C27.6753 39.8818 28.3257 40.1897 28.9062 40.3856C29.1859 41.0644 29.5985 41.4843 29.8713 41.7642C30.165 42.0581 30.8364 42.7159 31.9414 43.0378C32.1163 43.0868 33.3891 43.4437 34.3892 43.0098C34.662 42.8909 35.3824 42.527 35.5152 42.0091C35.5502 41.8692 35.4033 41.7502 35.2774 41.7432C35.2075 41.7432 35.0606 41.7712 34.9907 41.9322C34.9278 42.0721 34.8229 42.2821 34.669 42.429C34.5291 42.562 34.1654 42.7369 33.7178 42.8069C33.4451 42.8489 32.9485 42.9189 32.2911 42.7789C30.9064 42.485 30.0671 41.5333 29.9202 41.3513C29.7944 41.1974 29.5706 40.9175 29.3607 40.5116C29.8363 40.6376 30.235 40.6935 30.4937 40.7215C30.6965 40.7495 33.4731 41.0574 35.9908 39.3709C37.0958 38.6362 39.5017 36.5508 37.7462 33.8916C37.2077 33.0729 35.781 32.1072 32.7947 32.9259C30.4308 33.5767 29.4097 35.4242 29.046 36.2779C28.3606 37.8874 28.6264 39.3919 28.7313 39.8468C27.6543 39.301 27.1717 38.4052 27.1717 38.4052C26.7031 37.5305 26.815 36.6908 26.822 36.4528C26.885 34.0246 29.053 31.4634 33.564 30.1268C37.1238 29.0771 40.222 28.7062 45.4813 28.7552C46.4115 28.7622 47.1458 28.8042 47.7543 28.8042C48.3557 28.8042 48.8383 28.8042 49.0481 28.8042C49.4048 28.8112 49.9783 28.8042 50.7546 28.7552C50.8945 28.7482 51.3001 28.7202 51.6778 28.4823C51.8946 28.3423 51.9785 28.2234 51.9995 28.1044C52.0344 27.9644 51.9855 27.8385 51.9715 27.8035C51.9086 27.6425 51.7897 27.5586 51.7477 27.5306C51.7127 27.5096 51.5239 27.3836 51.2721 27.4326C51.2232 27.4396 50.9924 27.4886 50.9224 27.6565C50.8805 27.7615 50.9434 27.8035 50.9224 27.9295C50.8805 28.1464 50.6497 28.2794 50.6007 28.3073C50.4049 28.4053 50.2441 28.3983 50.0342 28.3983C49.7685 28.3913 49.195 28.3773 48.8803 28.3843C48.1599 28.3843 47.8242 28.3773 47.4815 28.3563C47.1039 28.3353 46.4185 28.3073 44.712 28.3003C43.2503 28.2933 43.2083 28.2933 42.0334 28.2933C41.6068 28.2933 40.5367 28.3353 39.2359 28.3703C35.1865 28.4753 32.2981 29.1891 30.3958 29.8679C28.7663 30.4487 28.011 30.9595 27.7242 31.1695C27.1647 31.5683 26.3115 32.1912 25.675 33.3178C25.4163 33.7797 25.0386 34.4724 25.0036 35.4452C24.9687 36.3899 25.2764 37.0896 25.4303 37.4185C25.9058 38.4822 26.6542 39.084 27.0458 39.3849ZM29.018 37.5095C29.2488 36.6348 29.6055 36.033 29.8643 35.6341C30.0881 35.2982 30.5427 34.6334 31.3889 34.0316C32.1373 33.4997 32.8436 33.2548 33.2143 33.1848C35.6062 32.695 36.7461 33.4368 37.4595 34.8363C38.7673 37.4046 34.1724 40.4556 30.6896 40.2877C30.0531 40.2597 29.5216 40.1477 29.1439 40.0357C29.074 39.8328 28.7313 38.5942 29.018 37.5095Z" fill="black"/>
</svg>
