<svg width="52" height="64" viewBox="0 0 52 64" fill="none" xmlns="http://www.w3.org/2000/svg">
<path d="M26.1333 0.366699C11.908 0.366699 0.333576 11.684 0.333576 25.5776C0.240052 45.9008 25.1529 62.7522 26.1333 63.4334C26.1333 63.4334 52.0266 45.9008 51.9331 25.5934C51.9331 11.684 40.3587 0.366699 26.1333 0.366699Z" fill="white"/>
<path d="M23.831 31.8838C24.1705 31.8838 24.4976 31.8412 24.8092 31.7639V35.1417H18.7819H18.0652V35.8584V37.9145V38.6312H18.7819H33.4055H34.1222V37.9145V35.8584V35.1417H33.4055H27.3737L27.3744 31.653C27.8009 31.801 28.2594 31.883 28.7397 31.883C30.6071 31.883 32.1844 30.6786 32.7509 29.0065C34.5415 28.5144 35.8634 26.8851 35.8634 24.9314C35.8634 24.1958 35.6746 23.5044 35.3452 22.9014C35.4922 22.4756 35.5762 22.0164 35.5762 21.5357C35.5762 19.9822 34.7371 18.6377 33.4987 17.9025C33.6457 17.483 33.7324 17.0294 33.7324 16.5501C33.7324 14.2092 31.8347 12.3111 29.4926 12.3111C28.8982 12.3111 28.3369 12.4369 27.8288 12.6565C27.0569 11.7231 25.8956 11.1168 24.5779 11.1168C22.7312 11.1168 21.1757 12.2967 20.592 13.9348C18.9834 14.369 17.707 15.7248 17.4872 17.49L17.4871 17.4911C17.3877 18.3004 17.5312 19.0734 17.8444 19.754C17.2102 20.4891 16.8167 21.4443 16.8167 22.5016C16.8167 23.8065 17.4074 24.9634 18.3274 25.7382C18.251 26.048 18.2068 26.3744 18.2068 26.7163C18.2068 28.4885 19.2965 29.9894 20.8294 30.6233C21.5933 31.3923 22.6482 31.8838 23.831 31.8838Z" stroke="#362140" stroke-width="1.43333"/>
</svg>
