<svg width="52" height="64" viewBox="0 0 52 64" fill="none" xmlns="http://www.w3.org/2000/svg">
<path d="M26.0333 0.266602C11.808 0.266602 0.2336 11.5839 0.2336 25.4775C0.140076 45.8007 25.053 62.6521 26.0333 63.3333C26.0333 63.3333 51.9266 45.8007 51.8331 25.4933C51.8331 11.5839 40.2587 0.266602 26.0333 0.266602Z" fill="white"/>
<mask id="path-2-outside-1" maskUnits="userSpaceOnUse" x="14" y="12.6001" width="24" height="24" fill="black">
<rect fill="white" x="14" y="12.6001" width="24" height="24"/>
<path fill-rule="evenodd" clip-rule="evenodd" d="M27.7055 22.9615V14.6001L24.3611 14.6001V22.9615H16V26.3059H24.3611V34.6668H27.7055V26.3059H36.0667V22.9615H27.7055Z"/>
</mask>
<path d="M27.7055 14.6001H29.1389V13.1668L27.7055 13.1668V14.6001ZM27.7055 22.9615H26.2722V24.3948H27.7055V22.9615ZM24.3611 14.6001V13.1668L22.9278 13.1668V14.6001H24.3611ZM24.3611 22.9615V24.3948H25.7944V22.9615H24.3611ZM16 22.9615V21.5282H14.5667V22.9615H16ZM16 26.3059H14.5667V27.7393H16V26.3059ZM24.3611 26.3059H25.7944V24.8726H24.3611V26.3059ZM24.3611 34.6668H22.9278V36.1001H24.3611V34.6668ZM27.7055 34.6668V36.1001H29.1389V34.6668H27.7055ZM27.7055 26.3059V24.8726H26.2722V26.3059H27.7055ZM36.0667 26.3059V27.7393H37.5V26.3059H36.0667ZM36.0667 22.9615H37.5V21.5282H36.0667V22.9615ZM26.2722 14.6001V22.9615H29.1389V14.6001H26.2722ZM24.3611 16.0334L27.7055 16.0334V13.1668L24.3611 13.1668V16.0334ZM25.7944 22.9615V14.6001H22.9278V22.9615H25.7944ZM16 24.3948H24.3611V21.5282H16V24.3948ZM17.4333 26.3059V22.9615H14.5667V26.3059H17.4333ZM24.3611 24.8726H16V27.7393H24.3611V24.8726ZM25.7944 34.6668V26.3059H22.9278V34.6668H25.7944ZM27.7055 33.2334H24.3611V36.1001H27.7055V33.2334ZM26.2722 26.3059V34.6668H29.1389V26.3059H26.2722ZM36.0667 24.8726H27.7055V27.7393H36.0667V24.8726ZM34.6333 22.9615V26.3059H37.5V22.9615H34.6333ZM27.7055 24.3948H36.0667V21.5282H27.7055V24.3948Z" fill="#362140" mask="url(#path-2-outside-1)"/>
</svg>
