<svg width="18" height="24" viewBox="0 0 18 24" fill="none" xmlns="http://www.w3.org/2000/svg">
<path d="M11.5099 9.16668L13.8272 6.90811C13.9438 6.79411 13.9858 6.62397 13.9356 6.46883C13.885 6.31368 13.7509 6.20054 13.5893 6.17697L10.387 5.71197L8.95476 2.81011C8.81076 2.5174 8.33033 2.5174 8.18633 2.81011L6.75405 5.71197L3.55176 6.17697C3.39019 6.20054 3.25648 6.31368 3.20548 6.46883C3.15533 6.62397 3.19691 6.79411 3.31391 6.90811L5.63119 9.16668L5.08433 12.3561C5.05691 12.5168 5.12291 12.6793 5.25448 12.7753C5.38776 12.8713 5.56219 12.8837 5.70576 12.8078L8.57119 11.3023L11.4358 12.8078C11.4979 12.8408 11.5665 12.8571 11.6346 12.8571C11.7233 12.8571 11.812 12.8297 11.8866 12.7753C12.0186 12.6793 12.0846 12.5168 12.0568 12.3561L11.5099 9.16668ZM10.6275 9.08954L11.0655 11.6451L8.77048 10.4387C8.7079 10.4057 8.63976 10.3894 8.57119 10.3894C8.50262 10.3894 8.43448 10.4057 8.3719 10.4387L6.07691 11.6451L6.5149 9.08954C6.5389 8.95068 6.49262 8.80883 6.39191 8.71025L4.53533 6.90083L7.10076 6.52797C7.24048 6.50783 7.36091 6.41997 7.42348 6.29354L8.57119 3.96854L9.7189 6.29354C9.78148 6.41997 9.9019 6.50783 10.0416 6.52797L12.607 6.90083L10.7505 8.71025C10.6498 8.80883 10.6035 8.95068 10.6275 9.08954Z" fill="#CBD3E0"/>
<path d="M17.1225 21.7281L14.5665 13.6341C15.8955 12.1843 16.7141 10.2596 16.7141 8.14286C16.7141 3.65271 13.0614 0 8.57122 0C4.08107 0 0.428358 3.65271 0.428358 8.14286C0.428358 10.2596 1.24693 12.1843 2.57593 13.6341L0.0199292 21.7281C-0.0293565 21.8846 0.0143579 22.0556 0.133501 22.1683C0.252644 22.281 0.425358 22.3157 0.579215 22.2587L3.69964 21.0887L5.65136 23.8209C5.73236 23.9344 5.86307 24 5.99979 24C6.02464 24 6.0495 23.9979 6.07436 23.9936C6.23679 23.9649 6.36879 23.8453 6.41293 23.6863L8.47007 16.281C8.50436 16.281 8.53693 16.2857 8.57122 16.2857C8.6055 16.2857 8.63807 16.281 8.67236 16.2806L10.7295 23.6859C10.7741 23.8449 10.9056 23.9644 11.0681 23.9931C11.0934 23.9979 11.1178 24 11.1426 24C11.2794 24 11.4101 23.9344 11.4911 23.8204L13.4428 21.0883L16.5632 22.2583C16.7171 22.3157 16.8898 22.281 17.0089 22.1679C17.1281 22.0551 17.1718 21.8841 17.1225 21.7281ZM5.82707 22.5921L4.20579 20.3224C4.09307 20.1639 3.88864 20.1017 3.7065 20.1703L1.1025 21.147L3.26293 14.3044C4.45779 15.3351 5.95093 16.0243 7.59664 16.2219L5.82707 22.5921ZM1.2855 8.14286C1.2855 4.12543 4.55379 0.857143 8.57122 0.857143C12.5886 0.857143 15.8569 4.12543 15.8569 8.14286C15.8569 12.1603 12.5886 15.4286 8.57122 15.4286C4.55379 15.4286 1.2855 12.1603 1.2855 8.14286ZM13.4364 20.1699C13.2538 20.1017 13.0494 20.1639 12.9371 20.322L11.3158 22.5917L9.54622 16.221C11.1919 16.0234 12.6851 15.3343 13.8799 14.3036L16.0404 21.1461L13.4364 20.1699Z" fill="#CBD3E0"/>
</svg>
