<svg width="53" height="64" viewBox="0 0 53 64" fill="none" xmlns="http://www.w3.org/2000/svg">
<path d="M26.3667 0.166992C12.1414 0.166992 0.566944 11.4843 0.566944 25.3779C0.473419 45.7011 25.3863 62.5525 26.3667 63.2337C26.3667 63.2337 52.26 45.7011 52.1664 25.3937C52.1664 11.4843 40.592 0.166992 26.3667 0.166992Z" fill="white"/>
<mask id="path-2-outside-1" maskUnits="userSpaceOnUse" x="14.3333" y="13.9326" width="24" height="23" fill="black">
<rect fill="white" x="14.3333" y="13.9326" width="24" height="23"/>
<path fill-rule="evenodd" clip-rule="evenodd" d="M33.2154 19.7443L31.6327 18.1905L26.5123 23.2581C25.9403 22.5842 25.3582 21.9117 24.7975 21.2705L29.6766 16.3827C30.3064 15.7529 31.3674 15.7881 32.045 16.4632L34.5656 18.9649C35.242 19.64 35.2068 20.5502 34.5757 21.1813L29.2189 26.5556C28.8204 26.0414 28.3729 25.4858 27.8977 24.9075L33.2154 19.7443ZM36.2642 32.1729L36.2501 32.1777C35.5958 32.4044 34.3201 32.8464 32.8548 30.3676C31.3789 27.8734 29.4278 28.4529 29.4278 28.4529C29.338 28.4684 29.2592 28.4957 29.1804 28.5231L29.1803 28.5231C29.1631 28.5291 29.1459 28.5351 29.1286 28.5409C26.926 25.4043 20.732 18.5729 20.1864 18.0261C19.4032 17.2441 18.0882 16.5099 16.9882 17.6628C15.9536 18.7464 16.4841 20.1607 17.2673 20.9439C17.8179 21.4946 24.687 27.72 27.8224 29.915C27.7707 30.051 27.7385 30.1936 27.7268 30.3387C27.7268 34.9223 32.4148 34.6796 33.384 34.5024C35.1126 34.1893 36.9141 31.9503 36.2642 32.1729ZM20.5136 25.5551C21.1472 26.1095 21.811 26.6828 22.4773 27.2485L22.4882 27.2576C23.0685 27.7384 25.2315 29.5307 25.805 29.9778L24.3366 31.4512C24.3366 31.4512 17.724 34.3213 17.1205 34.6192C16.7459 34.8027 16.2041 34.2609 16.3612 33.8335C16.5586 33.2929 19.4651 26.6048 19.4651 26.6048L20.5136 25.5551Z"/>
</mask>
<path d="M31.6327 18.1905L32.6368 17.1677L31.6286 16.1779L30.6244 17.1717L31.6327 18.1905ZM33.2154 19.7443L34.2139 20.7727L35.2672 19.75L34.2196 18.7215L33.2154 19.7443ZM26.5123 23.2581L25.4196 24.1857L26.4209 25.3652L27.5205 24.2768L26.5123 23.2581ZM24.7975 21.2705L23.7831 20.2579L22.8369 21.2058L23.7186 22.2141L24.7975 21.2705ZM29.6766 16.3827L28.663 15.3692L28.6621 15.3701L29.6766 16.3827ZM32.045 16.4632L31.0334 17.4786L31.0353 17.4805L32.045 16.4632ZM34.5656 18.9649L35.5782 17.9504L35.5753 17.9476L34.5656 18.9649ZM34.5757 21.1813L33.5622 20.1677L33.5605 20.1694L34.5757 21.1813ZM29.2189 26.5556L28.0861 27.4337L29.0841 28.7213L30.2341 27.5675L29.2189 26.5556ZM27.8977 24.9075L26.8992 23.8791L25.9527 24.7982L26.7903 25.8175L27.8977 24.9075ZM36.2501 32.1777L35.781 30.8233L35.7809 30.8234L36.2501 32.1777ZM36.2642 32.1729L35.7999 30.8168L35.7951 30.8185L36.2642 32.1729ZM32.8548 30.3676L34.0886 29.6382L34.0883 29.6377L32.8548 30.3676ZM29.4278 28.4529L29.6713 29.8654L29.7547 29.851L29.8359 29.8269L29.4278 28.4529ZM29.1804 28.5231L29.6336 29.8829L29.642 29.8801L29.6503 29.8772L29.1804 28.5231ZM29.1803 28.5231L28.7271 27.1633L28.7187 27.1661L28.7104 27.169L29.1803 28.5231ZM29.1286 28.5409L27.9555 29.3646L28.5715 30.2419L29.5871 29.8989L29.1286 28.5409ZM20.1864 18.0261L21.2011 17.0137L21.1991 17.0117L20.1864 18.0261ZM16.9882 17.6628L18.0249 18.6526L18.0252 18.6523L16.9882 17.6628ZM17.2673 20.9439L18.2808 19.9304L18.2808 19.9304L17.2673 20.9439ZM27.8224 29.915L29.1622 30.4242L29.5587 29.3809L28.6444 28.7408L27.8224 29.915ZM27.7268 30.3387L26.2981 30.2235L26.2935 30.281V30.3387H27.7268ZM33.384 34.5024L33.1286 33.092L33.1262 33.0924L33.384 34.5024ZM22.4773 27.2485L21.5496 28.3411L21.5561 28.3467L21.5628 28.3522L22.4773 27.2485ZM20.5136 25.5551L21.4575 24.4764L20.4477 23.5929L19.4995 24.5422L20.5136 25.5551ZM22.4882 27.2576L23.4027 26.1539L23.4027 26.1539L22.4882 27.2576ZM25.805 29.9778L26.8202 30.9896L27.9631 29.8428L26.6863 28.8474L25.805 29.9778ZM24.3366 31.4512L24.9073 32.766L25.1585 32.657L25.3519 32.463L24.3366 31.4512ZM17.1205 34.6192L17.7512 35.9064L17.7551 35.9044L17.1205 34.6192ZM16.3612 33.8335L17.7065 34.3281L17.7076 34.3251L16.3612 33.8335ZM19.4651 26.6048L18.451 25.5919L18.2589 25.7842L18.1506 26.0335L19.4651 26.6048ZM30.6286 19.2133L32.2113 20.7672L34.2196 18.7215L32.6368 17.1677L30.6286 19.2133ZM27.5205 24.2768L32.6409 19.2092L30.6244 17.1717L25.504 22.2393L27.5205 24.2768ZM23.7186 22.2141C24.276 22.8515 24.8533 23.5186 25.4196 24.1857L27.605 22.3305C27.0273 21.6499 26.4404 20.9718 25.8765 20.327L23.7186 22.2141ZM28.6621 15.3701L23.7831 20.2579L25.812 22.2831L30.691 17.3953L28.6621 15.3701ZM33.0567 15.4478C31.8864 14.2818 29.9169 14.1153 28.663 15.3692L30.6901 17.3962C30.7011 17.3851 30.7286 17.3639 30.7946 17.3661C30.8626 17.3684 30.9526 17.398 31.0334 17.4786L33.0567 15.4478ZM35.5753 17.9476L33.0547 15.4458L31.0353 17.4805L33.5559 19.9822L35.5753 17.9476ZM35.5892 22.1948C36.1425 21.6415 36.4878 20.9062 36.4942 20.1011C36.5008 19.2895 36.1619 18.533 35.5782 17.9504L33.5531 19.9794C33.603 20.0292 33.6202 20.0634 33.625 20.0746C33.6296 20.0852 33.6276 20.0851 33.6277 20.0781C33.6277 20.0715 33.6294 20.073 33.6242 20.0849C33.6186 20.0975 33.6026 20.1273 33.5622 20.1677L35.5892 22.1948ZM30.2341 27.5675L35.5909 22.1931L33.5605 20.1694L28.2038 25.5437L30.2341 27.5675ZM26.7903 25.8175C27.2605 26.3897 27.6988 26.934 28.0861 27.4337L30.3518 25.6775C29.9421 25.1489 29.4853 24.5819 29.0051 23.9975L26.7903 25.8175ZM32.217 18.716L26.8992 23.8791L28.8961 25.9358L34.2139 20.7727L32.217 18.716ZM36.7192 33.5321L36.7333 33.5273L35.7951 30.8185L35.781 30.8233L36.7192 33.5321ZM31.6209 31.097C32.454 32.5063 33.3887 33.3508 34.4537 33.6628C35.5131 33.9731 36.3859 33.6476 36.7194 33.5321L35.7809 30.8234C35.4601 30.9345 35.3679 30.9434 35.2595 30.9117C35.1567 30.8816 34.7209 30.7077 34.0886 29.6382L31.6209 31.097ZM29.4278 28.4529C29.8359 29.8269 29.835 29.8272 29.8341 29.8275C29.8338 29.8276 29.8329 29.8278 29.8323 29.828C29.8311 29.8284 29.8299 29.8287 29.8288 29.829C29.8265 29.8297 29.8243 29.8303 29.8223 29.8309C29.8181 29.8321 29.8144 29.8331 29.811 29.834C29.8043 29.8359 29.799 29.8372 29.7953 29.8382C29.7878 29.84 29.7859 29.8403 29.7891 29.8397C29.7957 29.8384 29.8214 29.8338 29.8623 29.8307C29.9449 29.8246 30.0793 29.8255 30.2425 29.866C30.5233 29.9358 31.0688 30.1639 31.6212 31.0975L34.0883 29.6377C33.1649 28.0771 31.9968 27.3479 30.9331 27.0838C30.4241 26.9574 29.9784 26.9474 29.6491 26.972C29.484 26.9843 29.3457 27.0055 29.2399 27.0261C29.1869 27.0365 29.1416 27.0468 29.1048 27.0559C29.0864 27.0605 29.07 27.0648 29.0558 27.0686C29.0487 27.0706 29.0421 27.0724 29.0361 27.0741C29.0331 27.075 29.0302 27.0758 29.0275 27.0766C29.0261 27.077 29.0248 27.0774 29.0235 27.0778C29.0228 27.078 29.0218 27.0783 29.0215 27.0784C29.0206 27.0787 29.0196 27.0789 29.4278 28.4529ZM29.6503 29.8772C29.6605 29.8737 29.6685 29.8709 29.6762 29.8683C29.6836 29.8657 29.6896 29.8637 29.6946 29.862C29.7049 29.8586 29.7094 29.8572 29.7106 29.8568C29.7121 29.8564 29.6969 29.861 29.6713 29.8654L29.1842 27.0404C28.9623 27.0787 28.7779 27.1456 28.7104 27.169L29.6503 29.8772ZM29.6336 29.8829L29.6336 29.8829L28.7271 27.1633L28.7271 27.1633L29.6336 29.8829ZM29.5871 29.8989C29.6111 29.8908 29.634 29.8829 29.6503 29.8772L28.7104 27.169C28.6922 27.1753 28.6807 27.1793 28.67 27.1829L29.5871 29.8989ZM19.1717 19.0384C19.6882 19.5561 25.8191 26.3222 27.9555 29.3646L30.3016 27.7172C28.0329 24.4865 21.7758 17.5898 21.2011 17.0137L19.1717 19.0384ZM18.0252 18.6523C18.1439 18.5278 18.2143 18.5074 18.2275 18.5037C18.2443 18.499 18.2836 18.4912 18.3674 18.5116C18.575 18.5621 18.8766 18.7438 19.1737 19.0404L21.1991 17.0117C20.713 16.5264 19.9655 15.95 19.0448 15.7261C18.0106 15.4746 16.874 15.7062 15.9512 16.6733L18.0252 18.6523ZM18.2808 19.9304C18.058 19.7076 17.9005 19.4159 17.8585 19.1725C17.8395 19.0619 17.8463 18.977 17.8651 18.9102C17.8826 18.848 17.9214 18.761 18.0249 18.6526L15.9515 16.673C15.0891 17.5762 14.8633 18.6722 15.0336 19.6596C15.194 20.59 15.6934 21.3971 16.2538 21.9575L18.2808 19.9304ZM28.6444 28.7408C25.6042 26.6124 18.8012 20.4508 18.2808 19.9304L16.2538 21.9575C16.8347 22.5383 23.7698 28.8276 27.0004 31.0892L28.6444 28.7408ZM29.1555 30.4539C29.1564 30.4437 29.1586 30.4337 29.1622 30.4242L26.4825 29.4058C26.3828 29.6683 26.3207 29.9436 26.2981 30.2235L29.1555 30.4539ZM33.1262 33.0924C32.7941 33.1532 31.6658 33.2316 30.7 32.8655C30.2453 32.6932 29.8829 32.4442 29.6297 32.0994C29.3833 31.7639 29.1602 31.2295 29.1602 30.3387H26.2935C26.2935 31.7396 26.6563 32.8937 27.3192 33.7963C27.9753 34.6896 28.8455 35.2283 29.684 35.5461C31.3044 36.1603 33.0047 36.0288 33.6419 35.9123L33.1262 33.0924ZM36.7284 33.5289C36.6933 33.5409 36.4356 33.6335 36.087 33.5664C35.8843 33.5274 35.6286 33.429 35.4009 33.2142C35.1711 32.9974 35.0539 32.7414 35.0029 32.5254C34.9157 32.1558 35.0116 31.8749 35.027 31.8285C35.056 31.7406 35.0854 31.6906 35.0859 31.6897C35.0893 31.6837 35.0642 31.7262 34.9904 31.8154C34.9219 31.898 34.8292 31.9995 34.715 32.1109C34.203 32.6106 33.5732 33.0115 33.1286 33.092L33.6394 35.9128C34.9234 35.6802 36.0587 34.8051 36.7171 34.1626C37.0529 33.8349 37.3776 33.4583 37.577 33.1082C37.6297 33.0156 37.6971 32.8845 37.7488 32.7283C37.7867 32.6136 37.8897 32.2772 37.793 31.867C37.7372 31.6308 37.611 31.3582 37.368 31.129C37.127 30.9016 36.8536 30.7947 36.6289 30.7514C36.2361 30.6758 35.9163 30.777 35.7999 30.8168L36.7284 33.5289ZM23.405 26.1559C22.7447 25.5953 22.0863 25.0267 21.4575 24.4764L19.5698 26.6338C20.2081 27.1923 20.8773 27.7703 21.5496 28.3411L23.405 26.1559ZM23.4027 26.1539L23.3918 26.1448L21.5628 28.3522L21.5737 28.3612L23.4027 26.1539ZM26.6863 28.8474C26.1348 28.4174 23.9964 26.6458 23.4027 26.1539L21.5737 28.3612C22.1406 28.8309 24.3283 30.644 24.9237 31.1082L26.6863 28.8474ZM25.3519 32.463L26.8202 30.9896L24.7897 28.966L23.3214 30.4394L25.3519 32.463ZM17.7551 35.9044C18.0171 35.775 19.7716 35.0041 21.5284 34.237C22.3919 33.86 23.2366 33.4922 23.8656 33.2187C24.1801 33.0819 24.4406 32.9687 24.6224 32.8897C24.7133 32.8502 24.7846 32.8193 24.8331 32.7982C24.8573 32.7877 24.8759 32.7796 24.8884 32.7742C24.8947 32.7715 24.8994 32.7694 24.9026 32.7681C24.9041 32.7674 24.9053 32.7669 24.9061 32.7665C24.9065 32.7663 24.9068 32.7662 24.907 32.7661C24.9071 32.7661 24.9072 32.7661 24.9072 32.766C24.9073 32.766 24.9073 32.766 24.3366 31.4512C23.7659 30.1363 23.7659 30.1364 23.7659 30.1364C23.7658 30.1364 23.7657 30.1364 23.7656 30.1365C23.7654 30.1366 23.7651 30.1367 23.7647 30.1369C23.7639 30.1372 23.7627 30.1377 23.7611 30.1384C23.7579 30.1398 23.7531 30.1419 23.7469 30.1446C23.7343 30.1501 23.7157 30.1582 23.6913 30.1687C23.6427 30.1899 23.5713 30.2209 23.4802 30.2604C23.2981 30.3396 23.0372 30.4529 22.7223 30.5899C22.0926 30.8638 21.2465 31.2321 20.3813 31.6099C18.6809 32.3523 16.8274 33.1654 16.486 33.334L17.7551 35.9044ZM15.0159 33.3389C14.6759 34.2637 15.1346 35.0678 15.5178 35.4587C15.8725 35.8206 16.7527 36.3955 17.7512 35.9064L16.4899 33.332C16.7927 33.1837 17.079 33.2125 17.2505 33.2663C17.4114 33.3167 17.5104 33.3963 17.5651 33.4522C17.623 33.5112 17.8894 33.8307 17.7065 34.3281L15.0159 33.3389ZM19.4651 26.6048C18.1506 26.0335 18.1506 26.0336 18.1505 26.0336C18.1505 26.0337 18.1505 26.0338 18.1504 26.0339C18.1504 26.0341 18.1502 26.0344 18.15 26.0348C18.1497 26.0356 18.1492 26.0368 18.1485 26.0384C18.147 26.0417 18.145 26.0465 18.1422 26.0528C18.1367 26.0655 18.1285 26.0844 18.1178 26.109C18.0964 26.1582 18.0651 26.2304 18.0251 26.3224C17.9452 26.5065 17.8308 26.7701 17.6929 27.088C17.4172 27.7239 17.0474 28.5775 16.6713 29.4481C15.9359 31.1509 15.1322 33.0204 15.0148 33.3419L17.7076 34.3251C17.7073 34.326 17.7106 34.3169 17.7202 34.2929C17.729 34.2706 17.7407 34.2415 17.7556 34.2051C17.7853 34.1322 17.8248 34.0372 17.8731 33.9219C17.9697 33.6916 18.098 33.3893 18.2476 33.0389C18.5467 32.3386 18.9276 31.454 19.3031 30.5847C19.6783 29.7158 20.0475 28.8636 20.3229 28.2286C20.4606 27.9111 20.5748 27.6479 20.6546 27.4641C20.6945 27.3722 20.7258 27.3002 20.7471 27.2512C20.7578 27.2266 20.7659 27.2079 20.7714 27.1952C20.7741 27.1889 20.7762 27.1841 20.7776 27.1809C20.7783 27.1793 20.7788 27.1781 20.7792 27.1773C20.7794 27.1769 20.7795 27.1766 20.7796 27.1764C20.7796 27.1763 20.7797 27.1762 20.7797 27.1762C20.7797 27.1761 20.7797 27.1761 19.4651 26.6048ZM19.4995 24.5422L18.451 25.5919L20.4793 27.6177L21.5277 26.568L19.4995 24.5422Z" fill="#362140" mask="url(#path-2-outside-1)"/>
</svg>
