<svg width="20" height="18" viewBox="0 0 20 18" fill="none" xmlns="http://www.w3.org/2000/svg">
<mask id="path-1-outside-1" maskUnits="userSpaceOnUse" x="0" y="-1" width="20" height="19" fill="black">
<rect fill="white" y="-1" width="20" height="19"/>
<path fill-rule="evenodd" clip-rule="evenodd" d="M15.7329 4.10067L14.4454 2.83668L10.2802 6.95896C9.81488 6.41083 9.34139 5.86371 8.88529 5.34216L12.8542 1.36612C13.3665 0.853776 14.2296 0.88241 14.7808 1.43157L16.8312 3.46663C17.3814 4.01579 17.3528 4.75619 16.8394 5.26955L12.4819 9.64136C12.1578 9.2231 11.7937 8.77109 11.4071 8.30067L15.7329 4.10067ZM18.2129 14.2108L18.2015 14.2148C17.6693 14.3992 16.6315 14.7587 15.4395 12.7423C14.2389 10.7134 12.6518 11.1848 12.6518 11.1848C12.5788 11.1974 12.5147 11.2197 12.4505 11.2419L12.4084 11.2564C10.6167 8.70491 5.57817 3.14786 5.13434 2.70301C4.49723 2.06693 3.42755 1.4697 2.53274 2.40747C1.6911 3.28899 2.12266 4.43946 2.75976 5.07657C3.20768 5.52449 8.79541 10.5886 11.3459 12.3742C11.3038 12.4848 11.2777 12.6008 11.2682 12.7188C11.2682 16.4473 15.0816 16.25 15.8701 16.1058C17.2762 15.8511 18.7416 14.0298 18.2129 14.2108ZM5.40047 8.82751C5.91588 9.2785 6.45584 9.74482 6.99784 10.205L7.00678 10.2124L7.00687 10.2125L7.00718 10.2128C7.47986 10.6044 9.23844 12.0616 9.70478 12.4252L8.51033 13.6237C8.51033 13.6237 3.13122 15.9584 2.64035 16.2008C2.33561 16.3501 1.89485 15.9093 2.02268 15.5616C2.18323 15.1219 4.54759 9.68142 4.54759 9.68142L5.40047 8.82751Z"/>
</mask>
<path d="M14.4454 2.83668L15.146 2.12309L14.4426 1.43255L13.742 2.12592L14.4454 2.83668ZM15.7329 4.10067L16.4295 4.81813L17.1644 4.10463L16.4335 3.38708L15.7329 4.10067ZM10.2802 6.95896L9.51782 7.60611L10.2164 8.42904L10.9836 7.66972L10.2802 6.95896ZM8.88529 5.34216L8.17755 4.63569L7.51739 5.29704L8.13253 6.00046L8.88529 5.34216ZM12.8542 1.36612L12.1471 0.659014L12.1464 0.659652L12.8542 1.36612ZM14.7808 1.43157L14.075 2.13999L14.0764 2.14133L14.7808 1.43157ZM16.8312 3.46663L17.5377 2.75886L17.5357 2.75688L16.8312 3.46663ZM16.8394 5.26955L16.1323 4.56245L16.1312 4.56361L16.8394 5.26955ZM12.4819 9.64136L11.6915 10.254L12.3878 11.1523L13.1902 10.3473L12.4819 9.64136ZM11.4071 8.30067L10.7105 7.58321L10.0501 8.2244L10.6345 8.93555L11.4071 8.30067ZM18.2015 14.2148L17.8743 13.2698L17.8741 13.2699L18.2015 14.2148ZM18.2129 14.2108L17.889 13.2647L17.8857 13.2659L18.2129 14.2108ZM15.4395 12.7423L16.3004 12.2334L16.3001 12.2331L15.4395 12.7423ZM12.6518 11.1848L12.8217 12.1703L12.8799 12.1602L12.9365 12.1434L12.6518 11.1848ZM12.4505 11.2419L12.7758 12.1876L12.7784 12.1866L12.4505 11.2419ZM12.4084 11.2564L11.59 11.8311L12.0223 12.4467L12.7336 12.202L12.4084 11.2564ZM5.13434 2.70301L5.84226 1.99672L5.84088 1.99534L5.13434 2.70301ZM2.53274 2.40747L3.25601 3.09802L3.25622 3.09781L2.53274 2.40747ZM2.75976 5.07657L2.05266 5.78368L2.05266 5.78368L2.75976 5.07657ZM11.3459 12.3742L12.2807 12.7294L12.5573 12.0015L11.9194 11.555L11.3459 12.3742ZM11.2682 12.7188L10.2714 12.6384L10.2682 12.6785V12.7188H11.2682ZM15.8701 16.1058L15.6919 15.1218L15.6902 15.1221L15.8701 16.1058ZM6.99784 10.205L6.35056 10.9674L6.35976 10.975L6.99784 10.205ZM5.40047 8.82751L6.05898 8.07493L5.35448 7.4585L4.69294 8.12083L5.40047 8.82751ZM7.00678 10.2124L7.6538 9.44986L7.64486 9.44245L7.00678 10.2124ZM7.00687 10.2125L6.35984 10.9751L6.36974 10.9833L7.00687 10.2125ZM7.00718 10.2128L7.64522 9.44275L7.64431 9.44199L7.00718 10.2128ZM9.70478 12.4252L10.4131 13.1311L11.2104 12.331L10.3196 11.6365L9.70478 12.4252ZM8.51033 13.6237L8.90848 14.541L9.08376 14.465L9.21865 14.3296L8.51033 13.6237ZM2.64035 16.2008L3.08032 17.0988L3.08308 17.0974L2.64035 16.2008ZM2.02268 15.5616L2.96126 15.9067L2.96202 15.9046L2.02268 15.5616ZM4.54759 9.68142L3.84006 8.97473L3.70604 9.10891L3.63045 9.28284L4.54759 9.68142ZM13.7449 3.55028L15.0324 4.81427L16.4335 3.38708L15.146 2.12309L13.7449 3.55028ZM10.9836 7.66972L15.1488 3.54745L13.742 2.12592L9.57675 6.2482L10.9836 7.66972ZM8.13253 6.00046C8.58638 6.51943 9.05652 7.0627 9.51782 7.60611L11.0425 6.31181C10.5732 5.75896 10.0964 5.20799 9.63805 4.68387L8.13253 6.00046ZM12.1464 0.659652L8.17755 4.63569L9.59304 6.04863L13.5619 2.07259L12.1464 0.659652ZM15.4866 0.72315C14.5917 -0.168445 13.0948 -0.288677 12.1471 0.659015L13.5613 2.07323C13.6383 1.99623 13.8676 1.93327 14.075 2.13999L15.4866 0.72315ZM17.5357 2.75688L15.4853 0.721814L14.0764 2.14133L16.1268 4.17639L17.5357 2.75688ZM17.5465 5.97666C17.9691 5.5541 18.2292 4.99649 18.2341 4.38956C18.239 3.7781 17.9841 3.20441 17.5377 2.75887L16.1248 4.1744C16.2286 4.27802 16.2344 4.34911 16.2342 4.37347C16.234 4.40237 16.2231 4.47164 16.1323 4.56245L17.5465 5.97666ZM13.1902 10.3473L17.5477 5.9755L16.1312 4.56361L11.7737 8.93541L13.1902 10.3473ZM10.6345 8.93555C11.0176 9.40172 11.3752 9.84582 11.6915 10.254L13.2723 9.02876C12.9403 8.60038 12.5698 8.14046 12.1797 7.66579L10.6345 8.93555ZM15.0363 3.38321L10.7105 7.58321L12.1037 9.01813L16.4295 4.81813L15.0363 3.38321ZM18.5287 15.1597L18.5402 15.1558L17.8857 13.2659L17.8743 13.2698L18.5287 15.1597ZM14.5787 13.2512C15.2447 14.3779 15.9762 15.0261 16.7868 15.2635C17.5936 15.4998 18.2584 15.2534 18.5289 15.1597L17.8741 13.2699C17.6124 13.3606 17.4922 13.3861 17.349 13.3442C17.2097 13.3034 16.8263 13.1231 16.3004 12.2334L14.5787 13.2512ZM12.6518 11.1848C12.9365 12.1434 12.9359 12.1436 12.9353 12.1438C12.9351 12.1439 12.9344 12.1441 12.934 12.1442C12.9332 12.1444 12.9324 12.1446 12.9316 12.1449C12.9301 12.1453 12.9286 12.1458 12.9272 12.1461C12.9244 12.1469 12.922 12.1476 12.9198 12.1482C12.9156 12.1494 12.9126 12.1501 12.9108 12.1506C12.9072 12.1515 12.9084 12.1511 12.9139 12.15C12.9251 12.1478 12.9525 12.1431 12.9929 12.1401C13.0744 12.134 13.2017 12.1353 13.3545 12.1733C13.6283 12.2412 14.108 12.4558 14.5789 13.2516L16.3001 12.2331C15.5704 10.9999 14.6563 10.4357 13.8364 10.2322C13.4423 10.1343 13.0978 10.1267 12.8442 10.1456C12.7171 10.1551 12.6111 10.1714 12.5308 10.187C12.4905 10.1949 12.4564 10.2027 12.4291 10.2095C12.4154 10.2129 12.4033 10.216 12.393 10.2189C12.3878 10.2203 12.383 10.2216 12.3787 10.2228C12.3766 10.2234 12.3745 10.224 12.3726 10.2246C12.3716 10.2249 12.3706 10.2252 12.3697 10.2254C12.3693 10.2256 12.3686 10.2258 12.3684 10.2258C12.3677 10.226 12.3671 10.2262 12.6518 11.1848ZM12.7784 12.1866C12.7953 12.1808 12.8061 12.177 12.8162 12.1737C12.8256 12.1705 12.8311 12.1688 12.8343 12.1678C12.8401 12.1661 12.8344 12.1681 12.8217 12.1703L12.4819 10.1994C12.3166 10.2279 12.1789 10.2777 12.1226 10.2972L12.7784 12.1866ZM12.7336 12.202L12.7758 12.1876L12.1253 10.2963L12.0832 10.3108L12.7336 12.202ZM4.42642 3.4093C4.84993 3.83379 9.84448 9.34526 11.59 11.8311L13.2268 10.6817C11.389 8.06456 6.30641 2.46193 5.84226 1.99672L4.42642 3.4093ZM3.25622 3.09781C3.37091 2.97762 3.45338 2.94366 3.49619 2.93171C3.54154 2.91904 3.60273 2.91456 3.69389 2.93673C3.90402 2.98783 4.17518 3.15847 4.4278 3.41069L5.84088 1.99534C5.4564 1.61147 4.87416 1.16546 4.16647 0.993364C3.37962 0.802022 2.51674 0.975681 1.80925 1.71712L3.25622 3.09781ZM3.46687 4.36946C3.26606 4.16865 3.11818 3.90154 3.07718 3.66376C3.04303 3.46569 3.07594 3.28664 3.25601 3.09802L1.80946 1.71691C1.1479 2.40982 0.975767 3.24676 1.10626 4.00359C1.22991 4.7207 1.61636 5.34738 2.05266 5.78368L3.46687 4.36946ZM11.9194 11.555C9.43531 9.8159 3.89368 4.79627 3.46687 4.36946L2.05266 5.78368C2.52168 6.2527 8.15551 11.3613 10.7724 13.1934L11.9194 11.555ZM12.2649 12.7992C12.2669 12.7753 12.2721 12.7518 12.2807 12.7294L10.4111 12.0189C10.3355 12.2178 10.2885 12.4264 10.2714 12.6384L12.2649 12.7992ZM15.6902 15.1221C15.4024 15.1747 14.4515 15.2416 13.6279 14.9295C13.2358 14.7809 12.9116 14.5616 12.6823 14.2493C12.4578 13.9436 12.2682 13.473 12.2682 12.7188H10.2682C10.2682 13.8289 10.5552 14.7318 11.0703 15.4332C11.5807 16.1281 12.2592 16.5496 12.919 16.7997C14.1993 17.2849 15.5493 17.181 16.05 17.0895L15.6902 15.1221ZM18.5368 15.1569C18.517 15.1637 18.3409 15.2278 18.1002 15.1814C17.96 15.1545 17.7827 15.0863 17.6245 14.9372C17.465 14.7867 17.3837 14.609 17.3485 14.4595C17.2882 14.204 17.3547 14.0112 17.3641 13.9828C17.3745 13.9513 17.3843 13.9291 17.3895 13.9181C17.395 13.9063 17.3985 13.9001 17.3987 13.8999C17.3989 13.8994 17.3972 13.9025 17.3928 13.9092C17.3885 13.9158 17.3824 13.9249 17.3741 13.9365C17.3573 13.9599 17.3343 13.99 17.3046 14.0259C17.2447 14.0981 17.1652 14.185 17.0687 14.2792C16.6437 14.6939 16.1021 15.0475 15.6919 15.1218L16.0483 17.0898C17.0441 16.9094 17.9384 16.225 18.4655 15.7106C18.7336 15.449 18.9854 15.1551 19.1366 14.8896C19.1765 14.8196 19.2257 14.7235 19.263 14.6105C19.2908 14.5266 19.3631 14.2887 19.295 14.0002C19.2558 13.8342 19.1673 13.643 18.997 13.4824C18.828 13.323 18.6363 13.2479 18.4783 13.2175C18.2016 13.1643 17.9749 13.2353 17.889 13.2647L18.5368 15.1569ZM7.64507 9.44272C7.10727 8.98609 6.57109 8.52303 6.05898 8.07493L4.74197 9.58009C5.26068 10.034 5.80441 10.5036 6.35061 10.9673L7.64507 9.44272ZM7.64486 9.44245L7.63592 9.43504L6.35976 10.975L6.3687 10.9824L7.64486 9.44245ZM7.65385 9.44999L7.65375 9.44991L6.3598 10.9749L6.35989 10.975L7.65385 9.44999ZM7.64431 9.44199L7.644 9.44174L6.36974 10.9833L6.37005 10.9835L7.64431 9.44199ZM10.3196 11.6365C9.86861 11.2849 8.12724 9.84216 7.64522 9.44275L6.36914 10.9828C6.83248 11.3667 8.60828 12.8383 9.08994 13.2138L10.3196 11.6365ZM9.21865 14.3296L10.4131 13.1311L8.99647 11.7193L7.80202 12.9178L9.21865 14.3296ZM3.08308 17.0974C3.30082 16.9899 4.73376 16.3604 6.15957 15.7378C6.86205 15.4311 7.54931 15.1319 8.06101 14.9093C8.31684 14.798 8.52875 14.706 8.67668 14.6417C8.75065 14.6096 8.80862 14.5844 8.84809 14.5673C8.86782 14.5587 8.88293 14.5521 8.8931 14.5477C8.89818 14.5455 8.90203 14.5438 8.90461 14.5427C8.9059 14.5422 8.90687 14.5417 8.90751 14.5415C8.90784 14.5413 8.90808 14.5412 8.90824 14.5411C8.90832 14.5411 8.90838 14.5411 8.90842 14.5411C8.90846 14.541 8.90848 14.541 8.51033 13.6237C8.11219 12.7064 8.11216 12.7064 8.11212 12.7064C8.11208 12.7064 8.11201 12.7065 8.11193 12.7065C8.11177 12.7066 8.11152 12.7067 8.11119 12.7068C8.11053 12.7071 8.10955 12.7075 8.10825 12.7081C8.10565 12.7092 8.10178 12.7109 8.09667 12.7131C8.08646 12.7176 8.0713 12.7241 8.05152 12.7327C8.01195 12.7499 7.95387 12.7751 7.8798 12.8073C7.73164 12.8717 7.51947 12.9639 7.26334 13.0753C6.75112 13.2981 6.06292 13.5977 5.35926 13.9049C3.97281 14.5103 2.47076 15.1693 2.19763 15.3041L3.08308 17.0974ZM1.0841 15.2166C0.837792 15.8865 1.16895 16.4756 1.45513 16.7675C1.7214 17.0392 2.36202 17.4507 3.08032 17.0988L2.20039 15.3028C2.40079 15.2046 2.58848 15.2247 2.69639 15.2586C2.797 15.2901 2.85468 15.3382 2.88347 15.3676C2.9136 15.3983 2.95016 15.4473 2.97488 15.5246C3.00089 15.6059 3.02033 15.746 2.96126 15.9067L1.0841 15.2166ZM4.54759 9.68142C3.63045 9.28284 3.63044 9.28287 3.63042 9.28291C3.6304 9.28295 3.63037 9.28302 3.63034 9.2831C3.63026 9.28327 3.63016 9.28352 3.63001 9.28385C3.62972 9.28452 3.62929 9.28551 3.62872 9.28682C3.62758 9.28945 3.62588 9.29337 3.62363 9.29853C3.61914 9.30886 3.61248 9.32419 3.60379 9.34419C3.58642 9.3842 3.56092 9.44291 3.52841 9.51778C3.4634 9.66752 3.37035 9.88189 3.2582 10.1405C3.03392 10.6577 2.73314 11.352 2.4273 12.0601C1.82723 13.4495 1.17665 14.9631 1.08333 15.2187L2.96202 15.9046C2.96199 15.9047 2.9629 15.9022 2.96512 15.8964C2.96725 15.8909 2.97011 15.8836 2.97381 15.8742C2.98126 15.8554 2.99103 15.8312 3.00327 15.8012C3.02776 15.7412 3.06006 15.6634 3.09949 15.5694C3.17825 15.3815 3.28278 15.1353 3.40457 14.8501C3.648 14.2801 3.95797 13.5603 4.26338 12.8531C4.56869 12.1462 4.86904 11.4529 5.09309 10.9362C5.20511 10.6779 5.29803 10.4638 5.36295 10.3143C5.3954 10.2396 5.42086 10.181 5.43819 10.1411C5.44686 10.1211 5.4535 10.1058 5.45796 10.0955C5.4602 10.0904 5.46189 10.0865 5.46302 10.0839C5.46359 10.0826 5.46401 10.0816 5.4643 10.081C5.46444 10.0806 5.46455 10.0804 5.46462 10.0802C5.46465 10.0802 5.46468 10.0801 5.4647 10.0801C5.46471 10.08 5.46472 10.08 4.54759 9.68142ZM4.69294 8.12083L3.84006 8.97473L5.25512 10.3881L6.108 9.53419L4.69294 8.12083Z" fill="#362140" mask="url(#path-1-outside-1)"/>
</svg>
