<svg width="53" height="64" viewBox="0 0 53 64" fill="none" xmlns="http://www.w3.org/2000/svg">
<path d="M26.6 0.100098C12.3747 0.100098 0.800266 11.4174 0.800266 25.311C0.706742 45.6342 25.6196 62.4856 26.6 63.1668C26.6 63.1668 52.4933 45.6342 52.3998 25.3268C52.3998 11.4174 40.8253 0.100098 26.6 0.100098Z" fill="white"/>
<path d="M29.0502 26.1814L29.0509 26.181L35.9167 22.7104V31.0504C35.9167 31.4413 36.0667 31.7903 36.3373 32.0632C36.608 32.3361 36.9569 32.4896 37.35 32.4896C37.7431 32.4896 38.092 32.3361 38.3627 32.0632C38.6333 31.7903 38.7833 31.4413 38.7833 31.0504V20.1905C38.7833 20.1336 38.7792 20.0522 38.7567 19.9615C38.7506 19.9373 38.7423 19.9081 38.7304 19.8758C38.5845 19.2373 38.0903 18.8015 37.5158 18.5119L29.0502 14.2447C28.3327 13.883 27.5081 13.7164 26.6 13.7164C25.6919 13.7164 24.8673 13.883 24.1498 14.2447L15.6873 18.5103C15.0141 18.8418 14.4167 19.3793 14.4167 20.2018C14.4167 21.0189 15.0079 21.5646 15.6776 21.9108L15.6776 21.9109L15.6842 21.9142L24.1498 26.1814C24.8673 26.5431 25.6919 26.7097 26.6 26.7097C27.5081 26.7097 28.3327 26.5431 29.0502 26.1814ZM34.4833 27.5348V26.3683L33.4428 26.8956L29.1217 29.0849C29.1214 29.0851 29.1212 29.0852 29.1209 29.0853C28.6795 29.3075 27.8727 29.4598 26.6 29.4598C25.3273 29.4598 24.5205 29.3075 24.0791 29.0853C24.0788 29.0852 24.0786 29.0851 24.0783 29.0849L19.7572 26.8956L18.7167 26.3683V27.5348V30.7183C18.7167 31.3354 19.0597 31.8221 19.5117 32.1803C19.956 32.5324 20.5704 32.8176 21.3035 33.0586C22.7921 33.5481 24.5631 33.7831 26.6 33.7831C28.6369 33.7831 30.4079 33.5481 31.8965 33.0586C32.6296 32.8176 33.244 32.5324 33.6883 32.1803C34.1403 31.8221 34.4833 31.3354 34.4833 30.7183V27.5348Z" stroke="#362140" stroke-width="1.43333"/>
</svg>
